<svg width="689" height="514" viewBox="0 0 689 514" fill="none" xmlns="http://www.w3.org/2000/svg">
<path d="M688.756 450.997H0V451.341H688.756V450.997Z" fill="#EBEBEB"/>
<path d="M619.741 473.162H574.118V473.506H619.741V473.162Z" fill="#EBEBEB"/>
<path d="M456.258 476.908H444.288V477.253H456.258V476.908Z" fill="#EBEBEB"/>
<path d="M572.742 460.378H546.307V460.723H572.742V460.378Z" fill="#EBEBEB"/>
<path d="M131.76 462.692H72.2649V463.037H131.76V462.692Z" fill="#EBEBEB"/>
<path d="M152.753 462.692H144.033V463.037H152.753V462.692Z" fill="#EBEBEB"/>
<path d="M310.147 468.506H181.101V468.85H310.147V468.506Z" fill="#EBEBEB"/>
<path d="M326.473 389.56H60.4891C58.4055 389.557 56.4083 388.727 54.9362 387.252C53.4641 385.777 52.6373 383.779 52.6373 381.695V7.79672C52.6555 5.72498 53.4903 3.74405 54.9604 2.28422C56.4306 0.824383 58.4173 0.00354901 60.4891 0H326.473C328.559 0 330.56 0.828695 332.035 2.30378C333.51 3.77886 334.339 5.77951 334.339 7.86559V381.695C334.339 383.781 333.51 385.782 332.035 387.257C330.56 388.732 328.559 389.56 326.473 389.56ZM60.4891 0.275503C58.4968 0.279153 56.5873 1.07317 55.1797 2.48328C53.7722 3.89338 52.9817 5.80435 52.9817 7.79672V381.695C52.9817 383.687 53.7722 385.598 55.1797 387.008C56.5873 388.418 58.4968 389.212 60.4891 389.216H326.473C328.467 389.212 330.378 388.419 331.787 387.009C333.197 385.599 333.991 383.688 333.994 381.695V7.79672C333.991 5.80309 333.197 3.89215 331.787 2.48244C330.378 1.07272 328.467 0.279145 326.473 0.275503H60.4891Z" fill="#EBEBEB"/>
<path d="M624.44 389.56H358.443C356.358 389.557 354.359 388.727 352.885 387.253C351.411 385.778 350.581 383.78 350.577 381.695V7.79672C350.599 5.72372 351.437 3.74281 352.909 2.28335C354.381 0.823902 356.369 0.0035103 358.443 0H624.44C626.51 0.00716926 628.493 0.829606 629.96 2.28905C631.427 3.7485 632.26 5.72735 632.278 7.79672V381.695C632.278 383.776 631.453 385.773 629.984 387.247C628.515 388.721 626.522 389.553 624.44 389.56ZM358.443 0.275503C356.449 0.279145 354.538 1.07272 353.128 2.48244C351.719 3.89215 350.925 5.80309 350.921 7.79672V381.695C350.925 383.688 351.719 385.599 353.128 387.009C354.538 388.419 356.449 389.212 358.443 389.216H624.44C626.434 389.212 628.345 388.419 629.755 387.009C631.164 385.599 631.958 383.688 631.961 381.695V7.79672C631.958 5.80309 631.164 3.89215 629.755 2.48244C628.345 1.07272 626.434 0.279145 624.44 0.275503H358.443Z" fill="#EBEBEB"/>
<path d="M368.87 450.997H417.221V270.915H368.87V450.997Z" fill="#E6E6E6"/>
<path d="M376.916 450.997H368.872V434.784H385.361L376.916 450.997Z" fill="#F0F0F0"/>
<path d="M565.66 450.997H614.011V270.915H565.66V450.997Z" fill="#E6E6E6"/>
<path d="M368.871 444.771H572.688V270.915H368.871V444.771Z" fill="#F0F0F0"/>
<path d="M375.124 326.292H566.447V278.616H375.124V326.292Z" fill="#E6E6E6"/>
<path d="M461.743 293.41H479.816C487.668 293.41 495.176 287.528 500.575 277.142H440.984C446.384 287.556 453.892 293.41 461.743 293.41Z" fill="#F0F0F0"/>
<path d="M564.64 450.997H572.685V434.784H556.196L564.64 450.997Z" fill="#F0F0F0"/>
<path d="M375.124 381.681H566.447V334.005H375.124V381.681Z" fill="#E6E6E6"/>
<path d="M461.743 348.813H479.816C487.668 348.813 495.176 342.931 500.575 332.545H440.984C446.384 343 453.892 348.813 461.743 348.813Z" fill="#F0F0F0"/>
<path d="M375.124 437.071H566.447V389.395H375.124V437.071Z" fill="#E6E6E6"/>
<path d="M461.743 404.203H479.816C487.668 404.203 495.176 398.321 500.575 387.935H440.984C446.384 398.321 453.892 404.203 461.743 404.203Z" fill="#F0F0F0"/>
<path d="M107.432 230.072L292.074 230.072V43.24L107.432 43.24L107.432 230.072Z" fill="#E6E6E6"/>
<path d="M94.6071 230.072L288.671 230.072V43.24L94.6071 43.24L94.6071 230.072Z" fill="#F0F0F0"/>
<path d="M272.431 213.817V59.4946L110.89 59.4946V213.817H272.431Z" fill="white"/>
<path d="M190.537 79.8957L160.893 109.595C153.73 116.776 149.707 126.506 149.707 136.649C149.707 146.793 153.73 156.522 160.893 163.704L190.537 193.361C190.682 193.506 190.854 193.621 191.043 193.7C191.232 193.778 191.435 193.819 191.639 193.819C191.844 193.819 192.047 193.778 192.236 193.7C192.425 193.621 192.597 193.506 192.741 193.361L222.399 163.704C229.563 156.522 233.586 146.793 233.586 136.649C233.586 126.506 229.563 116.776 222.399 109.595L192.755 79.8957C192.459 79.6055 192.061 79.4429 191.646 79.4429C191.232 79.4429 190.834 79.6055 190.537 79.8957ZM163.097 161.444C156.52 154.849 152.827 145.915 152.827 136.601C152.827 127.287 156.52 118.353 163.097 111.758V161.444ZM220.195 161.444V111.813C226.772 118.408 230.466 127.342 230.466 136.656C230.466 145.97 226.772 154.904 220.195 161.5V161.444Z" fill="#F0F0F0"/>
<path d="M560.44 206.627H457.278L451.396 267.54H554.558L560.44 206.627Z" fill="#E6E6E6"/>
<path d="M554.559 267.54L554.146 270.915H450.97L451.397 267.54H554.559Z" fill="#E6E6E6"/>
<path d="M557.274 206.627H454.112L448.216 267.54H551.378L557.274 206.627Z" fill="#F0F0F0"/>
<path d="M549.295 263.573L553.607 210.759C553.618 210.584 553.593 210.407 553.534 210.242C553.475 210.076 553.383 209.924 553.263 209.795C553.143 209.666 552.998 209.563 552.837 209.492C552.676 209.421 552.502 209.383 552.326 209.382H457.484C457.159 209.381 456.845 209.502 456.605 209.721C456.365 209.941 456.217 210.243 456.189 210.567L451.822 263.367C451.811 263.543 451.836 263.721 451.896 263.887C451.956 264.054 452.05 264.207 452.171 264.336C452.293 264.465 452.439 264.568 452.602 264.638C452.765 264.708 452.94 264.744 453.117 264.744H547.959C548.29 264.76 548.614 264.646 548.863 264.428C549.112 264.21 549.267 263.903 549.295 263.573Z" fill="white"/>
<path d="M524.503 267.54L524.089 270.915H410.486L410.899 267.54H524.503Z" fill="#F0F0F0"/>
<path d="M385.827 174.062L579.547 174.062V45.2787L385.827 45.2787V174.062Z" fill="#E6E6E6"/>
<path d="M381.53 174.062L575.25 174.062V45.2787L381.53 45.2787V174.062Z" fill="#F5F5F5"/>
<path d="M567.52 165.384V53.9709L389.256 53.9709V165.384H567.52Z" fill="white"/>
<path d="M392.496 165.37V53.957H389.245V165.37H392.496Z" fill="#E6E6E6"/>
<path d="M384.724 150.603L572.052 150.603V138.95L384.724 138.95V150.603Z" fill="#F5F5F5"/>
<path d="M373.1 30.925H587.992C588.305 30.9286 588.604 31.0546 588.826 31.276C589.047 31.4974 589.173 31.7966 589.177 32.1097C589.177 32.4239 589.052 32.7252 588.83 32.9474C588.607 33.1696 588.306 33.2944 587.992 33.2944H373.1C372.943 33.2962 372.788 33.2669 372.642 33.2082C372.497 33.1495 372.365 33.0625 372.253 32.9523C372.142 32.8421 372.053 32.7109 371.993 32.5663C371.933 32.4216 371.902 32.2664 371.902 32.1097C371.905 31.7943 372.033 31.493 372.257 31.2712C372.482 31.0494 372.785 30.925 373.1 30.925Z" fill="#E6E6E6"/>
<path d="M368.938 32.1097C368.938 32.6976 369.112 33.2723 369.438 33.7614C369.765 34.2504 370.229 34.6317 370.771 34.8573C371.314 35.0829 371.912 35.1427 372.489 35.029C373.066 34.9153 373.596 34.6332 374.012 34.2185C374.429 33.8038 374.714 33.2749 374.83 32.6986C374.946 32.1223 374.889 31.5245 374.666 30.9806C374.443 30.4367 374.064 29.971 373.576 29.6424C373.089 29.3138 372.515 29.137 371.927 29.1343C371.535 29.1325 371.147 29.2081 370.784 29.3568C370.422 29.5055 370.092 29.7244 369.814 30.0009C369.536 30.2774 369.316 30.606 369.166 30.9679C369.015 31.3298 368.938 31.7178 368.938 32.1097Z" fill="#E6E6E6"/>
<path d="M577.934 38.7771C578.356 38.7771 578.762 38.6111 579.064 38.3148C579.365 38.0185 579.538 37.6156 579.545 37.1929V33.7491C579.545 33.3217 579.376 32.9117 579.073 32.6095C578.771 32.3072 578.361 32.1375 577.934 32.1375C577.723 32.1374 577.514 32.1792 577.319 32.2604C577.124 32.3415 576.947 32.4605 576.799 32.6103C576.65 32.7602 576.533 32.938 576.453 33.1334C576.374 33.3289 576.334 33.5381 576.336 33.7491V37.1929C576.343 37.6132 576.514 38.014 576.813 38.31C577.111 38.6059 577.513 38.7735 577.934 38.7771Z" fill="#E6E6E6"/>
<path d="M391.035 38.7771C391.447 38.7597 391.837 38.5864 392.126 38.2923C392.415 37.9981 392.581 37.6052 392.592 37.1929V33.7491C392.592 33.3217 392.422 32.9117 392.12 32.6095C391.817 32.3072 391.407 32.1375 390.98 32.1375C390.769 32.1374 390.56 32.1792 390.365 32.2604C390.17 32.3415 389.994 32.4605 389.845 32.6103C389.697 32.7602 389.579 32.938 389.5 33.1334C389.42 33.3289 389.38 33.5381 389.382 33.7491V37.1929C389.386 37.4058 389.431 37.6158 389.516 37.8109C389.602 38.006 389.725 38.1822 389.878 38.3295C390.032 38.4768 390.213 38.5922 390.412 38.669C390.61 38.7458 390.822 38.7825 391.035 38.7771Z" fill="#E6E6E6"/>
<path opacity="0.4" d="M373.484 157.229L572.052 157.229V32.1096L373.484 32.1096V157.229Z" fill="#E0E0E0"/>
<path d="M555.841 32.1097C555.841 32.6982 556.015 33.2735 556.342 33.7628C556.669 34.2521 557.134 34.6334 557.678 34.8586C558.221 35.0838 558.82 35.1428 559.397 35.028C559.974 34.9131 560.504 34.6298 560.92 34.2136C561.336 33.7975 561.62 33.2673 561.735 32.6902C561.849 32.113 561.791 31.5147 561.565 30.9711C561.34 30.4274 560.959 29.9627 560.469 29.6357C559.98 29.3088 559.405 29.1343 558.816 29.1343C558.027 29.1343 557.27 29.4478 556.712 30.0058C556.154 30.5638 555.841 31.3206 555.841 32.1097Z" fill="#E6E6E6"/>
<path d="M274.813 442.071H290.737V303.948H274.813V442.071Z" fill="#F0F0F0"/>
<path d="M102.074 450.818H284.621V442.071H102.074V450.818Z" fill="#F0F0F0"/>
<path d="M274.814 303.948H95.9574V442.071H274.814V303.948Z" fill="#F5F5F5"/>
<path d="M252.486 320.946H118.289C112.872 320.946 108.481 325.337 108.481 330.754V356.431C108.481 361.848 112.872 366.239 118.289 366.239H252.486C257.903 366.239 262.294 361.848 262.294 356.431V330.754C262.294 325.337 257.903 320.946 252.486 320.946Z" fill="#F0F0F0"/>
<path d="M252.486 379.766H118.289C112.872 379.766 108.481 384.157 108.481 389.574V415.251C108.481 420.668 112.872 425.059 118.289 425.059H252.486C257.903 425.059 262.294 420.668 262.294 415.251V389.574C262.294 384.157 257.903 379.766 252.486 379.766Z" fill="#F0F0F0"/>
<path d="M152.063 346.706H218.707C219.531 346.706 220.32 346.38 220.904 345.799C221.487 345.218 221.817 344.43 221.82 343.606C221.817 342.782 221.488 341.992 220.905 341.409C220.322 340.826 219.532 340.497 218.707 340.493H152.063C151.239 340.497 150.449 340.826 149.866 341.409C149.283 341.992 148.954 342.782 148.95 343.606C148.954 344.43 149.283 345.218 149.867 345.799C150.45 346.38 151.24 346.706 152.063 346.706Z" fill="#F5F5F5"/>
<path d="M152.063 405.526H218.707C219.531 405.526 220.32 405.2 220.904 404.619C221.487 404.038 221.817 403.25 221.82 402.427C221.817 401.602 221.488 400.812 220.905 400.229C220.322 399.646 219.532 399.317 218.707 399.313H152.063C151.239 399.317 150.449 399.646 149.866 400.229C149.283 400.812 148.954 401.602 148.95 402.427C148.954 403.25 149.283 404.038 149.867 404.619C150.45 405.2 151.24 405.526 152.063 405.526Z" fill="#F5F5F5"/>
<path d="M344.377 513.206C491.884 513.206 611.463 506.224 611.463 497.612C611.463 489 491.884 482.019 344.377 482.019C196.87 482.019 77.2911 489 77.2911 497.612C77.2911 506.224 196.87 513.206 344.377 513.206Z" fill="#F5F5F5"/>
<path d="M403.404 63.9854H148.839L168.621 410.664H423.171L403.404 63.9854Z" fill="#263238"/>
<path d="M408.347 63.9854H153.783L173.564 410.664H428.128L408.347 63.9854Z" fill="#0066FF"/>
<path opacity="0.5" d="M390.812 75.6392H165.424L181.582 389.45H412.825L390.812 75.6392Z" fill="black"/>
<path d="M165.424 75.6392C182.174 180.247 170.686 284.856 187.464 389.45H418.679C401.929 284.856 413.417 180.247 396.639 75.6392H165.424Z" fill="white"/>
<g opacity="0.3">
<path opacity="0.3" d="M212.703 169.668C217.809 169.709 222.705 171.708 226.38 175.253C230.056 178.798 232.231 183.618 232.456 188.719C232.559 191.173 232.162 193.623 231.288 195.918C230.414 198.213 229.082 200.307 227.373 202.071C225.665 203.835 223.615 205.233 221.348 206.18C219.082 207.127 216.647 207.602 214.191 207.577C209.116 207.535 204.252 205.542 200.608 202.01C196.963 198.479 194.818 193.68 194.616 188.609C194.51 186.162 194.898 183.719 195.757 181.426C196.616 179.133 197.929 177.036 199.617 175.261C201.309 173.502 203.343 172.107 205.593 171.159C207.843 170.212 210.262 169.733 212.703 169.751V169.668ZM212.565 165.77C209.596 165.751 206.654 166.339 203.92 167.496C201.185 168.653 198.715 170.356 196.662 172.5C194.608 174.644 193.013 177.185 191.974 179.966C190.935 182.748 190.475 185.712 190.621 188.678C190.862 194.8 193.45 200.595 197.848 204.86C202.247 209.126 208.119 211.534 214.246 211.586C217.228 211.611 220.185 211.03 222.937 209.878C225.688 208.727 228.178 207.029 230.254 204.887C232.33 202.745 233.95 200.204 235.015 197.418C236.08 194.632 236.569 191.659 236.451 188.678C236.155 182.529 233.514 176.727 229.071 172.466C224.628 168.205 218.721 165.809 212.565 165.77Z" fill="#0066FF"/>
</g>
<path d="M340.547 341.513H267.538C266.992 341.503 266.45 341.611 265.949 341.827C265.447 342.044 264.998 342.365 264.63 342.769C264.263 343.173 263.985 343.651 263.817 344.171C263.649 344.691 263.593 345.24 263.654 345.783C263.787 346.944 264.336 348.018 265.199 348.806C266.063 349.593 267.183 350.041 268.351 350.067H341.359C341.906 350.077 342.448 349.97 342.949 349.752C343.451 349.534 343.9 349.211 344.265 348.805C344.631 348.399 344.905 347.919 345.069 347.397C345.233 346.876 345.283 346.325 345.216 345.783C345.087 344.627 344.542 343.557 343.683 342.771C342.824 341.986 341.71 341.539 340.547 341.513Z" fill="#E0E0E0"/>
<path d="M379.6 323.536H266.065C265.516 323.526 264.971 323.632 264.465 323.847C263.959 324.063 263.505 324.382 263.132 324.786C262.758 325.189 262.475 325.666 262.299 326.187C262.123 326.708 262.059 327.26 262.112 327.807C262.211 328.964 262.736 330.044 263.587 330.835C264.437 331.627 265.551 332.074 266.713 332.091H380.192C380.742 332.106 381.29 332.006 381.798 331.795C382.307 331.583 382.765 331.267 383.142 330.866C383.52 330.465 383.808 329.989 383.988 329.469C384.168 328.949 384.236 328.396 384.187 327.848C384.098 326.687 383.578 325.601 382.729 324.803C381.881 324.005 380.764 323.554 379.6 323.536Z" fill="#E0E0E0"/>
<g opacity="0.3">
<path opacity="0.3" d="M215.03 243.82C220.098 243.856 224.957 245.85 228.589 249.385C232.222 252.92 234.347 257.722 234.521 262.788C234.614 265.24 234.212 267.686 233.339 269.979C232.465 272.273 231.139 274.367 229.438 276.136C227.737 277.898 225.694 279.296 223.435 280.243C221.175 281.191 218.747 281.668 216.297 281.646C211.216 281.611 206.344 279.621 202.691 276.089C199.039 272.557 196.886 267.755 196.681 262.678C196.598 260.222 197.011 257.774 197.897 255.482C198.783 253.19 200.123 251.1 201.837 249.339C203.551 247.578 205.603 246.181 207.87 245.232C210.137 244.284 212.572 243.803 215.03 243.82ZM215.03 239.825C212.045 239.807 209.087 240.391 206.334 241.544C203.581 242.696 201.089 244.393 199.007 246.533C196.926 248.672 195.298 251.21 194.221 253.993C193.145 256.777 192.641 259.75 192.741 262.733C192.986 268.872 195.588 274.68 200.006 278.95C204.424 283.219 210.318 285.621 216.462 285.655C219.438 285.666 222.385 285.075 225.127 283.917C227.868 282.759 230.346 281.058 232.412 278.916C234.478 276.774 236.089 274.236 237.147 271.454C238.206 268.673 238.69 265.706 238.571 262.733C238.365 256.613 235.799 250.811 231.411 246.541C227.023 242.271 221.152 239.864 215.03 239.825Z" fill="#0066FF"/>
</g>
<path d="M300.021 183.884H260.968C259.821 183.875 258.721 183.425 257.895 182.628C257.07 181.83 256.582 180.747 256.533 179.6C256.514 179.046 256.608 178.494 256.807 177.976C257.006 177.459 257.308 176.987 257.693 176.589C258.079 176.19 258.541 175.873 259.051 175.657C259.562 175.441 260.111 175.33 260.665 175.33H299.704C300.852 175.339 301.953 175.786 302.783 176.579C303.612 177.373 304.108 178.454 304.167 179.6C304.188 180.157 304.095 180.711 303.896 181.231C303.697 181.751 303.394 182.226 303.007 182.626C302.62 183.026 302.156 183.344 301.642 183.56C301.129 183.776 300.578 183.886 300.021 183.884Z" fill="#E0E0E0"/>
<path d="M345.093 183.884H318.645C317.496 183.875 316.394 183.425 315.566 182.629C314.739 181.832 314.248 180.748 314.195 179.6C314.177 179.046 314.27 178.494 314.469 177.976C314.669 177.459 314.97 176.987 315.356 176.589C315.741 176.19 316.203 175.873 316.714 175.657C317.224 175.441 317.773 175.33 318.328 175.33H344.79C345.936 175.339 347.036 175.786 347.863 176.58C348.691 177.374 349.183 178.455 349.239 179.6C349.26 180.157 349.167 180.711 348.968 181.231C348.768 181.751 348.466 182.226 348.079 182.626C347.692 183.026 347.227 183.344 346.714 183.56C346.201 183.776 345.65 183.886 345.093 183.884Z" fill="#E0E0E0"/>
<path d="M366.417 201.861H261.588C260.441 201.854 259.34 201.405 258.517 200.607C257.693 199.809 257.209 198.723 257.166 197.577C257.148 197.022 257.241 196.47 257.44 195.953C257.64 195.436 257.941 194.964 258.327 194.565C258.712 194.167 259.174 193.85 259.685 193.634C260.195 193.417 260.744 193.306 261.299 193.306H366.114C367.257 193.313 368.354 193.76 369.175 194.556C369.997 195.352 370.479 196.434 370.522 197.577C370.542 198.13 370.451 198.681 370.254 199.198C370.057 199.715 369.759 200.188 369.376 200.587C368.993 200.987 368.534 201.306 368.025 201.524C367.517 201.743 366.97 201.857 366.417 201.861Z" fill="#E0E0E0"/>
<g opacity="0.3">
<path opacity="0.3" d="M218.017 317.875C223.156 317.975 228.077 319.968 231.838 323.47C235.6 326.972 237.938 331.739 238.404 336.857C238.652 339.255 238.398 341.678 237.661 343.973C236.924 346.269 235.718 348.386 234.12 350.191C232.509 351.965 230.538 353.375 228.338 354.325C226.138 355.275 223.761 355.744 221.365 355.701C216.182 355.617 211.207 353.644 207.377 350.151C203.547 346.658 201.124 341.886 200.564 336.733C200.328 334.317 200.606 331.878 201.38 329.578C202.154 327.277 203.406 325.167 205.055 323.385C206.714 321.615 208.723 320.212 210.955 319.263C213.187 318.314 215.592 317.841 218.017 317.875ZM217.824 313.894C214.874 313.836 211.945 314.402 209.23 315.556C206.514 316.709 204.072 318.423 202.065 320.586C200.058 322.749 198.531 325.312 197.584 328.107C196.637 330.901 196.291 333.864 196.569 336.802C197.63 349.447 209.105 359.71 221.75 359.71C234.396 359.71 243.46 349.447 242.413 336.802C241.867 330.623 239.054 324.866 234.517 320.636C229.98 316.407 224.04 314.006 217.838 313.894H217.824Z" fill="#0066FF"/>
</g>
<path d="M384.328 267.416H263.369C262.814 267.416 262.265 267.527 261.755 267.744C261.244 267.96 260.782 268.277 260.397 268.675C260.011 269.074 259.71 269.546 259.51 270.063C259.311 270.58 259.218 271.133 259.236 271.687C259.286 272.83 259.772 273.91 260.595 274.705C261.418 275.499 262.514 275.948 263.658 275.957H384.673C385.227 275.957 385.776 275.846 386.286 275.63C386.797 275.414 387.259 275.097 387.644 274.698C388.03 274.3 388.332 273.828 388.531 273.311C388.73 272.793 388.824 272.241 388.805 271.687C388.762 270.532 388.27 269.44 387.434 268.642C386.598 267.845 385.484 267.405 384.328 267.416Z" fill="#E0E0E0"/>
<path d="M355.659 249.426H262.842C262.286 249.426 261.736 249.537 261.225 249.754C260.713 249.972 260.251 250.29 259.865 250.689C259.479 251.089 259.178 251.563 258.979 252.082C258.781 252.601 258.689 253.155 258.709 253.71C258.748 254.852 259.228 255.934 260.047 256.73C260.866 257.526 261.961 257.974 263.104 257.98H355.934C356.489 257.981 357.037 257.869 357.548 257.653C358.059 257.437 358.52 257.12 358.906 256.722C359.292 256.323 359.593 255.851 359.793 255.334C359.992 254.816 360.085 254.264 360.067 253.71C360.034 252.563 359.556 251.473 358.733 250.673C357.909 249.873 356.807 249.426 355.659 249.426Z" fill="#E0E0E0"/>
<path d="M214.795 202.109L213.17 199.436C209.602 193.609 202.15 188.416 199.588 186.887L201.516 183.471C206.576 186.534 211.084 190.427 214.851 194.987C220.705 187.121 229.259 179.035 240.844 170.302L243.338 173.525C230.94 182.851 222.151 191.433 216.517 199.601C215.953 200.442 215.374 201.282 214.795 202.109Z" fill="#0066FF"/>
<path d="M216.861 276.219C216.323 275.323 215.772 274.428 215.221 273.546C211.64 267.719 204.201 262.526 201.667 260.983L203.623 257.567C208.656 260.638 213.14 264.531 216.888 269.083C222.756 261.231 231.38 253.132 243.143 244.398L245.582 247.622C233.019 256.947 224.175 265.529 218.569 273.698L216.861 276.219Z" fill="#0066FF"/>
<path d="M221.586 350.494L219.767 347.822C215.8 341.995 208.114 336.802 205.469 335.273L207.26 331.857C212.465 334.941 217.155 338.822 221.159 343.359C226.559 335.507 234.769 327.407 246.174 318.688L248.75 321.911C236.573 331.237 228.212 339.819 223.129 347.987L221.586 350.494Z" fill="#0066FF"/>
<path d="M308.698 101.936C306.273 107.226 303.789 112.511 301.245 117.791C306.489 120.4 310.973 124.315 314.264 129.16C317.555 134.005 319.542 139.615 320.035 145.452H338.342C337.13 126.731 325.09 110.435 308.698 101.936Z" fill="#0066FF"/>
<path d="M238.956 145.479H257.263C256.814 140.301 257.758 135.097 259.996 130.405C262.233 125.714 265.684 121.706 269.991 118.797C266.428 113.507 262.81 108.217 259.137 102.928C245.775 111.579 237.785 127.434 238.956 145.479Z" fill="#263238"/>
<path d="M283.93 95.7922C275.146 95.7053 266.528 98.1853 259.135 102.928C262.808 108.217 266.426 113.507 269.989 118.797C274.762 115.678 280.35 114.039 286.051 114.086C291.326 114.116 296.519 115.395 301.204 117.819C303.739 112.529 306.223 107.244 308.656 101.964C301.025 97.9631 292.546 95.8471 283.93 95.7922Z" fill="#0066FF"/>
<path opacity="0.5" d="M283.93 95.7922C275.146 95.7053 266.528 98.1853 259.135 102.928C262.808 108.217 266.426 113.507 269.989 118.797C274.762 115.678 280.35 114.039 286.051 114.086C291.326 114.116 296.519 115.395 301.204 117.819C303.739 112.529 306.223 107.244 308.656 101.964C301.025 97.9631 292.546 95.8471 283.93 95.7922Z" fill="#263238"/>
<path d="M306.304 132.944C306.304 132.944 287.818 140.506 285.862 141.884C285.395 142.238 285.003 142.681 284.71 143.189C284.417 143.696 284.228 144.257 284.155 144.839C284.082 145.42 284.125 146.01 284.284 146.574C284.442 147.139 284.712 147.666 285.077 148.124C285.767 149.104 286.811 149.777 287.989 150.001C289.166 150.224 290.384 149.981 291.386 149.322C293.411 147.862 306.332 132.944 306.304 132.944ZM286.881 146.719C286.701 146.493 286.569 146.234 286.491 145.956C286.413 145.679 286.391 145.388 286.427 145.102C286.463 144.816 286.556 144.539 286.7 144.29C286.844 144.04 287.037 143.821 287.267 143.647C287.763 143.328 288.362 143.212 288.942 143.322C289.521 143.432 290.036 143.761 290.38 144.239C290.56 144.465 290.693 144.724 290.771 145.002C290.849 145.28 290.871 145.57 290.835 145.857C290.799 146.143 290.706 146.419 290.562 146.669C290.417 146.919 290.224 147.137 289.994 147.311C289.505 147.636 288.91 147.761 288.331 147.662C287.752 147.562 287.234 147.244 286.881 146.774V146.719Z" fill="#263238"/>
<path d="M328.219 124.196C328.309 125.025 328.221 125.864 327.962 126.657C327.702 127.45 327.277 128.178 326.714 128.793C326.151 129.408 325.463 129.897 324.696 130.225C323.929 130.554 323.102 130.715 322.268 130.698C320.501 130.663 318.808 129.983 317.508 128.785C316.209 127.587 315.393 125.955 315.215 124.196C315.121 123.372 315.203 122.536 315.458 121.746C315.713 120.956 316.133 120.23 316.692 119.615C317.25 119.001 317.933 118.513 318.695 118.184C319.457 117.855 320.281 117.693 321.111 117.708C322.882 117.738 324.582 118.414 325.891 119.609C327.2 120.803 328.028 122.435 328.219 124.196Z" fill="white"/>
<path d="M320.161 122.709C320.174 122.84 320.16 122.972 320.119 123.097C320.078 123.222 320.011 123.337 319.923 123.434C319.835 123.532 319.727 123.609 319.606 123.662C319.486 123.715 319.356 123.742 319.224 123.742C318.941 123.74 318.669 123.633 318.461 123.442C318.252 123.251 318.122 122.99 318.095 122.709C318.079 122.577 318.091 122.444 318.131 122.318C318.172 122.192 318.238 122.076 318.327 121.978C318.416 121.88 318.525 121.803 318.646 121.75C318.768 121.698 318.899 121.673 319.031 121.676C319.314 121.678 319.586 121.784 319.794 121.975C320.003 122.166 320.134 122.427 320.161 122.709Z" fill="#263238"/>
<path d="M325.091 122.709C325.105 122.841 325.091 122.974 325.049 123.1C325.007 123.226 324.939 123.342 324.849 123.44C324.759 123.537 324.65 123.615 324.528 123.667C324.405 123.719 324.274 123.745 324.141 123.742C323.86 123.734 323.591 123.625 323.384 123.436C323.177 123.246 323.044 122.988 323.011 122.709C322.995 122.576 323.008 122.442 323.049 122.315C323.09 122.188 323.158 122.071 323.248 121.973C323.339 121.875 323.449 121.797 323.573 121.746C323.696 121.695 323.829 121.671 323.962 121.676C324.245 121.678 324.517 121.785 324.725 121.975C324.934 122.166 325.064 122.427 325.091 122.709Z" fill="#263238"/>
<path d="M322.021 128.109C320.658 128.098 319.348 127.583 318.343 126.662C318.249 126.567 318.196 126.438 318.196 126.304C318.196 126.17 318.249 126.041 318.343 125.946C318.389 125.898 318.445 125.859 318.507 125.833C318.568 125.807 318.634 125.793 318.701 125.793C318.768 125.793 318.834 125.807 318.896 125.833C318.958 125.859 319.013 125.898 319.059 125.946C319.875 126.697 320.94 127.119 322.049 127.131C322.563 127.142 323.075 127.045 323.549 126.846C324.024 126.646 324.451 126.349 324.804 125.973C324.897 125.875 325.025 125.817 325.161 125.813C325.228 125.811 325.295 125.823 325.358 125.847C325.421 125.871 325.478 125.907 325.527 125.953C325.576 125.999 325.615 126.054 325.642 126.115C325.67 126.177 325.685 126.243 325.687 126.31C325.689 126.377 325.678 126.444 325.654 126.507C325.63 126.57 325.594 126.627 325.547 126.676C325.094 127.15 324.545 127.522 323.937 127.769C323.33 128.016 322.677 128.132 322.021 128.109Z" fill="#263238"/>
<path d="M291.507 104.829C291.621 105.648 291.555 106.483 291.315 107.275C291.075 108.067 290.665 108.797 290.115 109.415C289.565 110.034 288.887 110.525 288.129 110.856C287.37 111.186 286.549 111.348 285.721 111.33C283.939 111.289 282.231 110.61 280.907 109.417C279.583 108.224 278.73 106.596 278.503 104.829C278.38 104.013 278.437 103.18 278.671 102.388C278.904 101.597 279.308 100.866 279.855 100.248C280.401 99.6292 281.076 99.1379 281.833 98.8084C282.589 98.4789 283.409 98.3192 284.234 98.3405C286.019 98.3825 287.731 99.0583 289.063 100.247C290.396 101.436 291.262 103.06 291.507 104.829Z" fill="white"/>
<path d="M283.408 103.313C283.426 103.443 283.415 103.574 283.378 103.699C283.34 103.824 283.276 103.94 283.19 104.038C283.103 104.136 282.997 104.214 282.878 104.267C282.759 104.321 282.629 104.348 282.499 104.346C282.215 104.339 281.942 104.232 281.731 104.042C281.519 103.853 281.381 103.595 281.342 103.313C281.321 103.183 281.33 103.051 281.367 102.925C281.403 102.799 281.467 102.682 281.554 102.584C281.641 102.485 281.748 102.407 281.869 102.354C281.989 102.302 282.12 102.277 282.251 102.28C282.536 102.284 282.809 102.391 283.022 102.581C283.234 102.771 283.372 103.031 283.408 103.313Z" fill="#263238"/>
<path d="M288.327 103.313C288.345 103.444 288.335 103.577 288.296 103.703C288.258 103.829 288.193 103.945 288.105 104.043C288.017 104.142 287.909 104.22 287.788 104.272C287.667 104.324 287.536 104.35 287.405 104.347C287.121 104.337 286.85 104.228 286.639 104.039C286.428 103.851 286.289 103.594 286.247 103.313C286.229 103.183 286.24 103.05 286.278 102.924C286.317 102.798 286.382 102.682 286.47 102.584C286.558 102.485 286.666 102.407 286.787 102.355C286.908 102.303 287.039 102.277 287.17 102.28C287.454 102.287 287.727 102.395 287.939 102.584C288.151 102.774 288.288 103.032 288.327 103.313Z" fill="#263238"/>
<path d="M288.464 107.446H282.017C281.894 107.426 281.783 107.363 281.703 107.269C281.622 107.174 281.578 107.054 281.578 106.93C281.578 106.805 281.622 106.685 281.703 106.591C281.783 106.496 281.894 106.433 282.017 106.413H288.464C288.586 106.433 288.698 106.496 288.778 106.591C288.858 106.685 288.903 106.805 288.903 106.93C288.903 107.054 288.858 107.174 288.778 107.269C288.698 107.363 288.586 107.426 288.464 107.446Z" fill="#263238"/>
<path d="M258.792 124.196C258.882 125.025 258.794 125.864 258.535 126.657C258.275 127.45 257.85 128.178 257.287 128.793C256.724 129.408 256.036 129.897 255.269 130.225C254.503 130.554 253.675 130.715 252.841 130.698C251.074 130.663 249.381 129.983 248.081 128.785C246.782 127.587 245.966 125.955 245.788 124.196C245.694 123.372 245.777 122.536 246.031 121.746C246.286 120.956 246.707 120.23 247.265 119.615C247.823 119.001 248.506 118.513 249.268 118.184C250.03 117.855 250.854 117.693 251.684 117.708C253.455 117.741 255.153 118.418 256.461 119.612C257.769 120.806 258.598 122.436 258.792 124.196Z" fill="white"/>
<path d="M250.707 122.709C250.721 122.84 250.707 122.972 250.666 123.097C250.625 123.222 250.558 123.337 250.47 123.434C250.381 123.532 250.273 123.609 250.153 123.662C250.033 123.715 249.902 123.742 249.771 123.742C249.488 123.74 249.216 123.633 249.008 123.442C248.799 123.251 248.668 122.99 248.641 122.709C248.625 122.577 248.638 122.444 248.678 122.318C248.718 122.192 248.785 122.076 248.874 121.978C248.963 121.88 249.071 121.803 249.193 121.75C249.314 121.698 249.446 121.673 249.578 121.676C249.861 121.678 250.132 121.784 250.341 121.975C250.55 122.166 250.68 122.427 250.707 122.709Z" fill="#263238"/>
<path d="M255.637 122.709C255.653 122.84 255.641 122.973 255.601 123.099C255.56 123.225 255.494 123.341 255.405 123.439C255.316 123.537 255.207 123.615 255.086 123.667C254.964 123.719 254.833 123.745 254.701 123.742C254.42 123.734 254.151 123.625 253.944 123.435C253.736 123.246 253.604 122.988 253.571 122.709C253.555 122.577 253.568 122.444 253.608 122.318C253.648 122.192 253.715 122.076 253.804 121.978C253.893 121.88 254.001 121.803 254.123 121.75C254.244 121.698 254.376 121.673 254.508 121.676C254.792 121.674 255.065 121.78 255.274 121.972C255.484 122.163 255.613 122.426 255.637 122.709Z" fill="#263238"/>
<path d="M249.329 128.109C249.265 128.11 249.202 128.098 249.143 128.074C249.084 128.051 249.03 128.016 248.985 127.971C248.89 127.876 248.838 127.747 248.838 127.613C248.838 127.479 248.89 127.35 248.985 127.255C249.431 126.78 249.972 126.402 250.572 126.146C251.171 125.89 251.818 125.761 252.47 125.767C253.834 125.782 255.145 126.302 256.148 127.227C256.196 127.273 256.234 127.329 256.261 127.391C256.287 127.452 256.301 127.518 256.301 127.585C256.301 127.652 256.287 127.719 256.261 127.78C256.234 127.842 256.196 127.897 256.148 127.944C256.048 128.035 255.918 128.087 255.783 128.087C255.647 128.087 255.517 128.035 255.418 127.944C254.602 127.183 253.529 126.76 252.415 126.759C251.901 126.747 251.391 126.843 250.917 127.04C250.442 127.237 250.014 127.53 249.66 127.902C249.579 128.01 249.461 128.084 249.329 128.109Z" fill="#263238"/>
<path d="M353.661 76.5347C349.363 67.4845 339.335 61.4923 328.521 61.4923H306.481C304.968 61.5591 303.464 61.2248 302.121 60.5233C300.779 59.8218 299.645 58.778 298.836 57.4975C295.764 51.7395 288.436 47.6345 280.116 47.6345C271.795 47.6345 264.963 51.7671 262.539 57.4975C261.533 59.9219 258.654 61.4923 255.348 61.4923H233.308C222.494 61.4923 213.141 67.4845 209.89 76.5347C209.77 76.8506 209.722 77.1898 209.752 77.5265C209.788 78.2331 210.093 78.8989 210.606 79.3862C211.119 79.8734 211.8 80.1447 212.507 80.1438H351.471C351.895 80.1448 352.313 80.036 352.683 79.8282C353.054 79.6203 353.364 79.3203 353.584 78.9573C353.805 78.5943 353.927 78.1805 353.941 77.7561C353.954 77.3317 353.858 76.911 353.661 76.5347ZM281.011 63.9856C279.367 63.9516 277.795 63.3038 276.605 62.1694C275.414 61.035 274.691 59.4962 274.578 57.8557C274.523 57.0655 274.632 56.2726 274.898 55.5267C275.165 54.7809 275.583 54.0985 276.127 53.5225C276.671 52.9465 277.328 52.4894 278.057 52.1802C278.786 51.8709 279.572 51.7162 280.364 51.7257C282.018 51.7428 283.605 52.3836 284.808 53.52C286.011 54.6563 286.741 56.2047 286.852 57.8557C286.907 58.6505 286.797 59.4482 286.527 60.1978C286.257 60.9475 285.834 61.6326 285.284 62.2095C284.734 62.7863 284.07 63.2422 283.335 63.548C282.599 63.8538 281.808 64.0029 281.011 63.9856Z" fill="#263238"/>
<path d="M496.484 487.791C495.406 487.924 494.317 487.654 493.425 487.033C493.308 486.888 493.236 486.711 493.219 486.525C493.202 486.338 493.24 486.151 493.329 485.987C493.395 485.845 493.493 485.72 493.614 485.622C493.736 485.524 493.879 485.456 494.032 485.422C495.657 484.967 499.418 486.978 499.542 487.075C499.589 487.095 499.627 487.131 499.652 487.176C499.677 487.22 499.687 487.272 499.679 487.323C499.677 487.369 499.66 487.413 499.63 487.448C499.6 487.482 499.559 487.506 499.514 487.516C498.514 487.694 497.5 487.786 496.484 487.791ZM494.665 485.835C494.515 485.812 494.361 485.812 494.211 485.835C494.117 485.852 494.028 485.891 493.952 485.949C493.875 486.006 493.813 486.08 493.77 486.166C493.632 486.469 493.77 486.62 493.77 486.703C494.321 487.35 496.883 487.364 498.729 487.102C497.461 486.439 496.085 486.01 494.665 485.835Z" fill="#0066FF"/>
<path d="M499.513 487.515H499.416C498.135 486.964 495.463 484.76 495.518 483.631C495.518 483.355 495.683 483.025 496.344 482.956C496.839 482.914 497.332 483.061 497.722 483.369C498.752 484.449 499.45 485.802 499.733 487.267C499.75 487.302 499.759 487.339 499.759 487.378C499.759 487.416 499.75 487.454 499.733 487.488C499.702 487.51 499.665 487.525 499.626 487.529C499.588 487.534 499.549 487.529 499.513 487.515ZM496.579 483.383H496.441C496.014 483.383 496 483.589 496 483.645C496 484.333 497.805 486.055 499.141 486.799C498.879 485.623 498.292 484.544 497.446 483.686C497.197 483.498 496.891 483.401 496.579 483.41V483.383Z" fill="#0066FF"/>
<path d="M510.615 487.281H500.49L496.868 463.836H506.992L510.615 487.281Z" fill="#FFC3BD"/>
<path d="M500.422 486.11H511.442C511.65 486.116 511.851 486.185 512.018 486.308C512.186 486.431 512.311 486.603 512.379 486.799L515.382 495.794C515.445 495.996 515.462 496.209 515.43 496.418C515.397 496.627 515.318 496.826 515.196 496.999C515.075 497.172 514.916 497.315 514.731 497.416C514.545 497.518 514.339 497.576 514.128 497.585C510.133 497.585 504.348 497.296 499.334 497.296C493.479 497.296 494.003 497.613 487.129 497.613C482.996 497.613 481.357 493.411 482.996 493.025C490.724 491.304 491.62 491.111 497.984 486.896C498.697 486.39 499.548 486.116 500.422 486.11Z" fill="#263238"/>
<path opacity="0.2" d="M496.868 463.85L498.741 475.93H508.866L506.992 463.85H496.868Z" fill="black"/>
<path d="M509.458 234.797L502.57 241.753L513.122 245.486C513.122 245.486 517.254 239.811 514.348 235.926L509.458 234.797Z" fill="#FFC3BD"/>
<path d="M500.257 251.479L510.795 253.022L513.151 245.487L502.599 241.754L500.257 251.479Z" fill="#FFC3BD"/>
<path d="M514.059 149.143C514.954 151.072 515.671 152.711 516.387 154.502C517.103 156.293 517.764 158.014 518.453 159.778C519.762 163.318 520.933 166.927 522.021 170.577C523.128 174.271 524.048 178.018 524.776 181.804L525.299 184.697L525.726 187.645C525.878 188.623 525.974 189.642 526.057 190.648C526.14 191.653 526.277 192.562 526.277 193.83V195.621V197.205L526.195 198.761L526.043 200.235C525.864 202.219 525.602 204.078 525.354 205.966C524.803 209.685 524.17 213.322 523.467 216.986C522.007 224.19 520.409 231.229 518.481 238.323L505.932 235.844C506.731 228.846 507.557 221.738 508.218 214.74C508.535 211.242 508.879 207.756 509.072 204.34C509.155 202.66 509.251 200.952 509.251 199.34V198.128V197.012V195.896L509.155 194.987C509.092 194.261 508.991 193.539 508.852 192.824C508.728 192.053 508.618 191.281 508.439 190.496L507.929 188.141L507.337 185.771C506.483 182.603 505.518 179.421 504.416 176.239C503.314 173.057 502.088 169.889 500.793 166.748C500.16 165.164 499.499 163.593 498.81 162.051C498.121 160.508 497.432 158.896 496.757 157.56L514.059 149.143Z" fill="#263238"/>
<path d="M466.495 229.865C466.495 229.865 468.176 307.337 472.721 338.193C477.46 370.289 494.762 473.589 494.762 473.589H511.898C511.898 473.589 505.754 375.276 503.798 343.689C501.663 309.252 502.131 229.865 502.131 229.865H466.495Z" fill="#0066FF"/>
<path d="M490.643 466.756C490.56 466.756 492.406 473.878 492.406 473.878H513.261L513.11 467.528L490.643 466.756Z" fill="#263238"/>
<path d="M462.632 104.276C462.685 103.418 462.272 102.695 461.71 102.66C461.148 102.626 460.65 103.293 460.597 104.151C460.544 105.009 460.957 105.733 461.519 105.767C462.081 105.802 462.579 105.135 462.632 104.276Z" fill="#263238"/>
<path d="M462.21 105.765C461.093 108.392 459.629 110.856 457.858 113.094C458.436 113.514 459.1 113.801 459.803 113.934C460.506 114.068 461.229 114.044 461.921 113.865L462.21 105.765Z" fill="#ED847E"/>
<path d="M465.845 99.4563C465.738 99.4565 465.634 99.428 465.542 99.3737C465.049 98.9859 464.469 98.7232 463.853 98.608C463.236 98.4929 462.601 98.5287 462.002 98.7125C461.94 98.7368 461.875 98.7485 461.808 98.7471C461.742 98.7456 461.677 98.731 461.617 98.704C461.557 98.6771 461.502 98.6384 461.457 98.5901C461.412 98.5419 461.377 98.4851 461.354 98.4232C461.333 98.3599 461.323 98.2929 461.328 98.2261C461.332 98.1593 461.349 98.094 461.379 98.0339C461.408 97.9737 461.449 97.92 461.499 97.8757C461.549 97.8314 461.608 97.7975 461.671 97.7758C462.426 97.5302 463.229 97.4721 464.012 97.6065C464.794 97.7409 465.532 98.0637 466.162 98.5472C466.266 98.6288 466.334 98.7478 466.352 98.8789C466.37 99.01 466.336 99.143 466.258 99.2497C466.21 99.3135 466.147 99.3653 466.076 99.4011C466.004 99.4369 465.925 99.4558 465.845 99.4563Z" fill="#263238"/>
<path d="M489.431 113.672C487.722 121.083 485.794 134.652 490.808 139.583C490.808 139.583 488.521 147.091 474.76 147.091C459.607 147.091 467.804 139.583 467.804 139.583C476.069 137.614 476.138 131.497 474.898 125.739L489.431 113.672Z" fill="#FFC3BD"/>
<path d="M496.136 143.055C497.624 140.038 499.263 136.567 496.136 135.492C492.72 134.294 473.834 133.082 467.208 135.313C465.438 135.764 463.92 136.9 462.987 138.471C462.055 140.042 461.784 141.918 462.235 143.688L496.136 143.055Z" fill="#0066FF"/>
<path d="M510.628 142.49C519.348 146.512 523.783 177.011 523.783 177.011L506.22 182.521C503.082 174.451 500.536 166.164 498.602 157.725C495.902 144.997 501.702 138.385 510.628 142.49Z" fill="#263238"/>
<path d="M402.69 189.945L394.59 182.975L387.303 193.582C387.303 193.582 393.846 198.83 401.078 196.681L402.69 189.945Z" fill="#FFC3BD"/>
<path d="M383.912 179.6L382.797 190.083L387.301 193.582L394.588 182.975L383.912 179.6Z" fill="#FFC3BD"/>
<path d="M491.289 102.391C490.27 112.915 490.201 119.114 484.691 124.513C482.916 126.271 480.697 127.514 478.27 128.107C475.844 128.701 473.302 128.623 470.916 127.883C468.53 127.143 466.39 125.768 464.726 123.906C463.061 122.043 461.934 119.763 461.466 117.309C459.538 107.859 461.466 92.2384 471.977 88.0507C474.214 87.086 476.666 86.7264 479.086 87.0079C481.506 87.2894 483.81 88.2021 485.766 89.6546C487.722 91.1071 489.262 93.0483 490.231 95.2837C491.201 97.519 491.566 99.9699 491.289 102.391Z" fill="#FFC3BD"/>
<path d="M469.729 105.765C468.806 98.4922 468.958 95.7372 472.842 94.1255C468.806 93.3265 465.307 93.2163 463.641 90.8608C461.974 88.5052 461.574 82.4855 469.674 79.7305C468.93 81.108 471.286 83.9732 478.738 81.3835C486.191 78.7938 497.045 78.5183 498.023 86.0946C501.963 84.7171 508.561 96.8805 500.778 105.765C494.29 113.204 489.965 118.342 488.684 122.296C488.624 122.481 488.525 122.651 488.395 122.795C488.264 122.94 488.104 123.055 487.926 123.133C487.748 123.211 487.555 123.25 487.36 123.249C487.165 123.247 486.973 123.204 486.797 123.122C484.111 121.869 479.303 122.943 477.154 123.522C476.851 123.6 476.531 123.573 476.246 123.446C475.96 123.318 475.727 123.097 475.584 122.819C474.192 119.954 470.432 111.771 469.729 105.765Z" fill="#263238"/>
<path d="M496.565 87.0175C496.565 87.0175 499.761 82.5131 505.891 85.8604C502.739 85.7136 499.586 86.1049 496.565 87.0175Z" fill="#263238"/>
<path d="M497.091 87.9817C497.091 87.9817 501.54 85.2267 498.069 80.0334C498.281 82.7217 497.949 85.4252 497.091 87.9817Z" fill="#263238"/>
<path d="M474.885 106.068C474.401 108.673 473.11 111.058 471.193 112.887C468.645 115.298 466.441 113.59 466.372 110.49C466.303 107.735 467.543 103.079 470.505 101.839C473.466 100.6 475.408 102.955 474.885 106.068Z" fill="#FFC3BD"/>
<path opacity="0.3" d="M467.914 272.913C468.906 296.027 470.462 322.861 472.722 338.193C473.589 344.034 474.857 352.216 476.372 361.707C482.461 328.482 486.097 285.669 467.914 272.913Z" fill="black"/>
<path d="M460.323 487.791C459.028 487.791 457.775 487.612 457.375 487.033C457.271 486.879 457.215 486.696 457.215 486.51C457.215 486.323 457.271 486.141 457.375 485.987C457.56 485.71 457.839 485.509 458.16 485.422C459.855 484.967 463.326 486.978 463.478 487.075C463.52 487.098 463.553 487.136 463.571 487.181C463.589 487.227 463.59 487.277 463.574 487.323C463.564 487.37 463.541 487.414 463.507 487.448C463.472 487.482 463.429 487.506 463.381 487.516C462.371 487.692 461.348 487.784 460.323 487.791ZM458.794 485.835C458.639 485.812 458.481 485.812 458.326 485.835C458.227 485.854 458.133 485.893 458.05 485.95C457.967 486.007 457.897 486.08 457.844 486.166C457.665 486.469 457.72 486.62 457.775 486.703C458.229 487.35 460.778 487.364 462.679 487.102C461.479 486.429 460.16 485.999 458.794 485.835Z" fill="#0066FF"/>
<path d="M463.395 487.515H463.299C462.1 486.964 459.745 484.76 459.979 483.631C459.979 483.355 460.227 483.025 460.888 482.956C461.134 482.925 461.383 482.946 461.621 483.017C461.858 483.088 462.078 483.208 462.266 483.369C463.519 484.43 463.643 487.157 463.643 487.267C463.642 487.31 463.632 487.352 463.613 487.39C463.594 487.428 463.567 487.461 463.533 487.488C463.491 487.509 463.443 487.519 463.395 487.515ZM461.067 483.383H460.93C460.489 483.383 460.461 483.589 460.447 483.645C460.31 484.333 461.894 486.055 463.12 486.799C463.044 485.659 462.615 484.571 461.894 483.686C461.66 483.499 461.367 483.402 461.067 483.41V483.383Z" fill="#0066FF"/>
<path d="M474.526 487.281H464.415L464.222 463.836H474.347L474.526 487.281Z" fill="#FFC3BD"/>
<path d="M464.512 486.11H475.532C475.73 486.108 475.921 486.176 476.073 486.302C476.225 486.428 476.326 486.605 476.359 486.799L478.053 495.794C478.092 496.016 478.081 496.243 478.022 496.46C477.962 496.677 477.856 496.878 477.71 497.049C477.564 497.22 477.382 497.357 477.177 497.449C476.972 497.542 476.749 497.588 476.524 497.585C472.543 497.585 466.785 497.296 461.785 497.296C455.917 497.296 450.847 497.613 443.974 497.613C439.841 497.613 438.822 493.411 440.571 493.026C448.547 491.304 455.021 491.111 462.005 486.896C462.754 486.411 463.621 486.14 464.512 486.11Z" fill="#263238"/>
<path opacity="0.2" d="M464.233 463.85L464.316 475.93H474.44L474.358 463.85H464.233Z" fill="black"/>
<path d="M448.434 229.865C448.434 229.865 444.301 305.532 444.384 336.389C444.384 368.485 460.639 473.589 460.639 473.589H477.775C477.775 473.589 473.312 370.358 475.24 338.868C477.293 304.43 487.238 229.893 487.238 229.893L448.434 229.865Z" fill="#0066FF"/>
<path d="M457.581 466.756C457.499 466.756 458.284 473.878 458.284 473.878H479.139L479.938 467.528L457.581 466.756Z" fill="#263238"/>
<path d="M452.124 142.393C452.124 142.393 434.877 185.964 442.385 261.273H505.365C506.026 253.008 499.441 181.019 508.836 141.87C502.877 140.716 496.849 139.952 490.791 139.583C483.129 139.142 475.448 139.142 467.786 139.583C462.501 140.115 457.265 141.055 452.124 142.393Z" fill="#263238"/>
<path opacity="0.2" d="M443.215 181.832C442.278 188.719 441.507 196.585 441.011 205.249C453.243 194.009 457.431 166.004 457.431 166.004L443.215 181.832Z" fill="black"/>
<path d="M458.617 163.139C456.137 169.586 453.63 175.798 450.875 182.038C448.12 188.278 445.269 194.436 442.059 200.607L440.806 202.908L440.172 204.065C439.91 204.533 439.938 204.561 439.222 205.759C437.987 207.701 436.274 209.295 434.249 210.388C432.574 211.268 430.745 211.82 428.863 212.013C426.275 212.25 423.665 212.04 421.149 211.393C419.159 210.9 417.207 210.265 415.308 209.492C411.9 208.081 408.599 206.424 405.431 204.533C403.875 203.638 402.387 202.673 400.913 201.778C399.439 200.883 398.103 199.739 396.519 198.637L403.957 187.232C409.295 190.173 414.899 192.604 420.694 194.491C421.924 194.871 423.181 195.157 424.455 195.345C425.181 195.5 425.932 195.5 426.659 195.345C426.741 195.345 426.48 195.262 426.025 195.497C425.471 195.779 424.998 196.196 424.647 196.709C424.358 197.191 424.73 196.475 424.854 196.199L425.35 195.111L426.342 192.948C428.959 187.108 431.383 181.06 433.739 175.041C436.095 169.021 438.381 162.739 440.489 156.665L458.617 163.139Z" fill="#263238"/>
<path d="M465.462 146.967C468.685 155.976 445.874 192.246 445.874 192.246L432.347 178.843C432.347 178.843 435.804 167.451 440.364 153.73C444.854 140.245 462.39 138.357 465.462 146.967Z" fill="#263238"/>
</svg>
