<svg width="324" height="90" viewBox="0 0 324 90" fill="none" xmlns="http://www.w3.org/2000/svg">
<path d="M99.3384 47.52L79.3384 12.52C78.9013 11.7547 78.2696 11.1186 77.5075 10.6761C76.7453 10.2335 75.8797 10.0003 74.9984 10H4.99839C4.1228 10.0003 3.26263 10.2305 2.50395 10.6676C1.74526 11.1047 1.11467 11.7334 0.675246 12.4907C0.235824 13.2481 0.00298703 14.1075 2.85494e-05 14.9831C-0.00292993 15.8587 0.224093 16.7197 0.658387 17.48L19.2434 50L0.658387 82.52C0.224093 83.2803 -0.00292993 84.1413 2.85494e-05 85.0169C0.00298703 85.8925 0.235824 86.7519 0.675246 87.5093C1.11467 88.2666 1.74526 88.8953 2.50395 89.3324C3.26263 89.7695 4.1228 89.9997 4.99839 90H74.9984C75.8797 89.9997 76.7453 89.7665 77.5075 89.3239C78.2696 88.8814 78.9013 88.2453 79.3384 87.48L99.3384 52.48C99.7708 51.725 99.9983 50.8701 99.9983 50C99.9983 49.1299 99.7708 48.275 99.3384 47.52Z" fill="#BF9B30"/>
<path d="M223.661 47.52L243.685 12.52C244.122 11.7547 244.755 11.1186 245.518 10.6761C246.281 10.2335 247.147 10.0003 248.03 10H318.113C318.989 10.0003 319.851 10.2305 320.61 10.6676C321.37 11.1047 322.001 11.7334 322.441 12.4907C322.881 13.2481 323.114 14.1075 323.117 14.9831C323.12 15.8587 322.893 16.7197 322.458 17.48L303.851 50L322.458 82.52C322.893 83.2803 323.12 84.1413 323.117 85.0169C323.114 85.8925 322.881 86.7519 322.441 87.5093C322.001 88.2666 321.37 88.8953 320.61 89.3324C319.851 89.7695 318.989 89.9997 318.113 90H248.03C247.147 89.9997 246.281 89.7665 245.518 89.3239C244.755 88.8814 244.122 88.2453 243.685 87.48L223.661 52.48C223.228 51.725 223 50.8701 223 50C223 49.1299 223.228 48.275 223.661 47.52Z" fill="#BF9B30"/>
<rect x="55" width="210" height="80" rx="4" fill="#FFBF00"/>
<path d="M136.805 40.336H140.357V47.152C139.445 47.84 138.389 48.368 137.189 48.736C135.989 49.104 134.781 49.288 133.565 49.288C131.821 49.288 130.253 48.92 128.861 48.184C127.469 47.432 126.373 46.4 125.573 45.088C124.789 43.76 124.397 42.264 124.397 40.6C124.397 38.936 124.789 37.448 125.573 36.136C126.373 34.808 127.477 33.776 128.885 33.04C130.293 32.288 131.877 31.912 133.637 31.912C135.109 31.912 136.445 32.16 137.645 32.656C138.845 33.152 139.853 33.872 140.669 34.816L138.173 37.12C136.973 35.856 135.525 35.224 133.829 35.224C132.757 35.224 131.805 35.448 130.973 35.896C130.141 36.344 129.493 36.976 129.029 37.792C128.565 38.608 128.333 39.544 128.333 40.6C128.333 41.64 128.565 42.568 129.029 43.384C129.493 44.2 130.133 44.84 130.949 45.304C131.781 45.752 132.725 45.976 133.781 45.976C134.901 45.976 135.909 45.736 136.805 45.256V40.336ZM152.105 49.288C150.361 49.288 148.785 48.912 147.377 48.16C145.985 47.408 144.889 46.376 144.089 45.064C143.305 43.736 142.913 42.248 142.913 40.6C142.913 38.952 143.305 37.472 144.089 36.16C144.889 34.832 145.985 33.792 147.377 33.04C148.785 32.288 150.361 31.912 152.105 31.912C153.849 31.912 155.417 32.288 156.809 33.04C158.201 33.792 159.297 34.832 160.097 36.16C160.897 37.472 161.297 38.952 161.297 40.6C161.297 42.248 160.897 43.736 160.097 45.064C159.297 46.376 158.201 47.408 156.809 48.16C155.417 48.912 153.849 49.288 152.105 49.288ZM152.105 45.976C153.097 45.976 153.993 45.752 154.793 45.304C155.593 44.84 156.217 44.2 156.665 43.384C157.129 42.568 157.361 41.64 157.361 40.6C157.361 39.56 157.129 38.632 156.665 37.816C156.217 37 155.593 36.368 154.793 35.92C153.993 35.456 153.097 35.224 152.105 35.224C151.113 35.224 150.217 35.456 149.417 35.92C148.617 36.368 147.985 37 147.521 37.816C147.073 38.632 146.849 39.56 146.849 40.6C146.849 41.64 147.073 42.568 147.521 43.384C147.985 44.2 148.617 44.84 149.417 45.304C150.217 45.752 151.113 45.976 152.105 45.976ZM164.219 32.2H168.107V45.832H176.531V49H164.219V32.2ZM178.703 32.2H186.335C188.159 32.2 189.767 32.552 191.159 33.256C192.567 33.944 193.655 34.92 194.423 36.184C195.207 37.448 195.599 38.92 195.599 40.6C195.599 42.28 195.207 43.752 194.423 45.016C193.655 46.28 192.567 47.264 191.159 47.968C189.767 48.656 188.159 49 186.335 49H178.703V32.2ZM186.143 45.808C187.823 45.808 189.159 45.344 190.151 44.416C191.159 43.472 191.663 42.2 191.663 40.6C191.663 39 191.159 37.736 190.151 36.808C189.159 35.864 187.823 35.392 186.143 35.392H182.591V45.808H186.143Z" fill="white"/>
</svg>
