<svg width="324" height="90" viewBox="0 0 324 90" fill="none" xmlns="http://www.w3.org/2000/svg">
<path d="M99.3384 47.52L79.3384 12.52C78.9013 11.7547 78.2696 11.1186 77.5075 10.6761C76.7453 10.2335 75.8797 10.0003 74.9984 10H4.99839C4.1228 10.0003 3.26263 10.2305 2.50395 10.6676C1.74526 11.1047 1.11467 11.7334 0.675246 12.4907C0.235824 13.2481 0.00298703 14.1075 2.85494e-05 14.9831C-0.00292993 15.8587 0.224093 16.7197 0.658387 17.48L19.2434 50L0.658387 82.52C0.224093 83.2803 -0.00292993 84.1413 2.85494e-05 85.0169C0.00298703 85.8925 0.235824 86.7519 0.675246 87.5093C1.11467 88.2666 1.74526 88.8953 2.50395 89.3324C3.26263 89.7695 4.1228 89.9997 4.99839 90H74.9984C75.8797 89.9997 76.7453 89.7665 77.5075 89.3239C78.2696 88.8814 78.9013 88.2453 79.3384 87.48L99.3384 52.48C99.7708 51.725 99.9983 50.8701 99.9983 50C99.9983 49.1299 99.7708 48.275 99.3384 47.52Z" fill="#CA7B2D"/>
<path d="M223.661 47.52L243.685 12.52C244.122 11.7547 244.755 11.1186 245.518 10.6761C246.281 10.2335 247.147 10.0003 248.03 10H318.113C318.989 10.0003 319.851 10.2305 320.61 10.6676C321.37 11.1047 322.001 11.7334 322.441 12.4907C322.881 13.2481 323.114 14.1075 323.117 14.9831C323.12 15.8587 322.893 16.7197 322.458 17.48L303.851 50L322.458 82.52C322.893 83.2803 323.12 84.1413 323.117 85.0169C323.114 85.8925 322.881 86.7519 322.441 87.5093C322.001 88.2666 321.37 88.8953 320.61 89.3324C319.851 89.7695 318.989 89.9997 318.113 90H248.03C247.147 89.9997 246.281 89.7665 245.518 89.3239C244.755 88.8814 244.122 88.2453 243.685 87.48L223.661 52.48C223.228 51.725 223 50.8701 223 50C223 49.1299 223.228 48.275 223.661 47.52Z" fill="#CA7B2D"/>
<rect x="55" width="210" height="80" rx="4" fill="#E69341"/>
<path d="M119.703 40.264C120.663 40.568 121.415 41.08 121.959 41.8C122.503 42.504 122.775 43.376 122.775 44.416C122.775 45.888 122.199 47.024 121.047 47.824C119.911 48.608 118.247 49 116.055 49H107.367V32.2H115.575C117.623 32.2 119.191 32.592 120.279 33.376C121.383 34.16 121.935 35.224 121.935 36.568C121.935 37.384 121.735 38.112 121.335 38.752C120.951 39.392 120.407 39.896 119.703 40.264ZM111.231 35.128V39.088H115.095C116.055 39.088 116.783 38.92 117.279 38.584C117.775 38.248 118.023 37.752 118.023 37.096C118.023 36.44 117.775 35.952 117.279 35.632C116.783 35.296 116.055 35.128 115.095 35.128H111.231ZM115.767 46.072C116.791 46.072 117.559 45.904 118.071 45.568C118.599 45.232 118.863 44.712 118.863 44.008C118.863 42.616 117.831 41.92 115.767 41.92H111.231V46.072H115.767ZM136.423 49L133.183 44.32H132.991H129.607V49H125.719V32.2H132.991C134.479 32.2 135.767 32.448 136.855 32.944C137.959 33.44 138.807 34.144 139.399 35.056C139.991 35.968 140.287 37.048 140.287 38.296C140.287 39.544 139.983 40.624 139.375 41.536C138.783 42.432 137.935 43.12 136.831 43.6L140.599 49H136.423ZM136.351 38.296C136.351 37.352 136.047 36.632 135.439 36.136C134.831 35.624 133.943 35.368 132.775 35.368H129.607V41.224H132.775C133.943 41.224 134.831 40.968 135.439 40.456C136.047 39.944 136.351 39.224 136.351 38.296ZM151.503 49.288C149.759 49.288 148.183 48.912 146.775 48.16C145.383 47.408 144.287 46.376 143.487 45.064C142.703 43.736 142.311 42.248 142.311 40.6C142.311 38.952 142.703 37.472 143.487 36.16C144.287 34.832 145.383 33.792 146.775 33.04C148.183 32.288 149.759 31.912 151.503 31.912C153.247 31.912 154.815 32.288 156.207 33.04C157.599 33.792 158.695 34.832 159.495 36.16C160.295 37.472 160.695 38.952 160.695 40.6C160.695 42.248 160.295 43.736 159.495 45.064C158.695 46.376 157.599 47.408 156.207 48.16C154.815 48.912 153.247 49.288 151.503 49.288ZM151.503 45.976C152.495 45.976 153.391 45.752 154.191 45.304C154.991 44.84 155.615 44.2 156.063 43.384C156.527 42.568 156.759 41.64 156.759 40.6C156.759 39.56 156.527 38.632 156.063 37.816C155.615 37 154.991 36.368 154.191 35.92C153.391 35.456 152.495 35.224 151.503 35.224C150.511 35.224 149.615 35.456 148.815 35.92C148.015 36.368 147.383 37 146.919 37.816C146.471 38.632 146.247 39.56 146.247 40.6C146.247 41.64 146.471 42.568 146.919 43.384C147.383 44.2 148.015 44.84 148.815 45.304C149.615 45.752 150.511 45.976 151.503 45.976ZM179.025 32.2V49H175.833L167.457 38.8V49H163.617V32.2H166.833L175.185 42.4V32.2H179.025ZM194.352 40.336H197.904V47.152C196.992 47.84 195.936 48.368 194.736 48.736C193.536 49.104 192.328 49.288 191.112 49.288C189.368 49.288 187.8 48.92 186.408 48.184C185.016 47.432 183.92 46.4 183.12 45.088C182.336 43.76 181.944 42.264 181.944 40.6C181.944 38.936 182.336 37.448 183.12 36.136C183.92 34.808 185.024 33.776 186.432 33.04C187.84 32.288 189.424 31.912 191.184 31.912C192.656 31.912 193.992 32.16 195.192 32.656C196.392 33.152 197.4 33.872 198.216 34.816L195.72 37.12C194.52 35.856 193.072 35.224 191.376 35.224C190.304 35.224 189.352 35.448 188.52 35.896C187.688 36.344 187.04 36.976 186.576 37.792C186.112 38.608 185.88 39.544 185.88 40.6C185.88 41.64 186.112 42.568 186.576 43.384C187.04 44.2 187.68 44.84 188.496 45.304C189.328 45.752 190.272 45.976 191.328 45.976C192.448 45.976 193.456 45.736 194.352 45.256V40.336ZM214.523 45.88V49H201.515V32.2H214.211V35.32H205.379V38.968H213.179V41.992H205.379V45.88H214.523Z" fill="white"/>
</svg>
