<svg width="324" height="90" viewBox="0 0 324 90" fill="none" xmlns="http://www.w3.org/2000/svg">
<path d="M99.3384 47.52L79.3384 12.52C78.9013 11.7547 78.2696 11.1186 77.5075 10.6761C76.7453 10.2335 75.8797 10.0003 74.9984 10H4.99839C4.1228 10.0003 3.26263 10.2305 2.50395 10.6676C1.74526 11.1047 1.11467 11.7334 0.675246 12.4907C0.235824 13.2481 0.00298703 14.1075 2.85494e-05 14.9831C-0.00292993 15.8587 0.224093 16.7197 0.658387 17.48L19.2434 50L0.658387 82.52C0.224093 83.2803 -0.00292993 84.1413 2.85494e-05 85.0169C0.00298703 85.8925 0.235824 86.7519 0.675246 87.5093C1.11467 88.2666 1.74526 88.8953 2.50395 89.3324C3.26263 89.7695 4.1228 89.9997 4.99839 90H74.9984C75.8797 89.9997 76.7453 89.7665 77.5075 89.3239C78.2696 88.8814 78.9013 88.2453 79.3384 87.48L99.3384 52.48C99.7708 51.725 99.9983 50.8701 99.9983 50C99.9983 49.1299 99.7708 48.275 99.3384 47.52Z" fill="#A9A9A9"/>
<path d="M223.661 47.52L243.685 12.52C244.122 11.7547 244.755 11.1186 245.518 10.6761C246.281 10.2335 247.147 10.0003 248.03 10H318.113C318.989 10.0003 319.851 10.2305 320.61 10.6676C321.37 11.1047 322.001 11.7334 322.441 12.4907C322.881 13.2481 323.114 14.1075 323.117 14.9831C323.12 15.8587 322.893 16.7197 322.458 17.48L303.851 50L322.458 82.52C322.893 83.2803 323.12 84.1413 323.117 85.0169C323.114 85.8925 322.881 86.7519 322.441 87.5093C322.001 88.2666 321.37 88.8953 320.61 89.3324C319.851 89.7695 318.989 89.9997 318.113 90H248.03C247.147 89.9997 246.281 89.7665 245.518 89.3239C244.755 88.8814 244.122 88.2453 243.685 87.48L223.661 52.48C223.228 51.725 223 50.8701 223 50C223 49.1299 223.228 48.275 223.661 47.52Z" fill="#A9A9A9"/>
<rect x="55" width="210" height="80" rx="4" fill="#CCCCCC"/>
<path d="M123.614 49.288C122.286 49.288 120.998 49.112 119.75 48.76C118.518 48.392 117.526 47.92 116.774 47.344L118.094 44.416C118.814 44.944 119.67 45.368 120.662 45.688C121.654 46.008 122.646 46.168 123.638 46.168C124.742 46.168 125.558 46.008 126.086 45.688C126.614 45.352 126.878 44.912 126.878 44.368C126.878 43.968 126.718 43.64 126.398 43.384C126.094 43.112 125.694 42.896 125.198 42.736C124.718 42.576 124.062 42.4 123.23 42.208C121.95 41.904 120.902 41.6 120.086 41.296C119.27 40.992 118.566 40.504 117.974 39.832C117.398 39.16 117.11 38.264 117.11 37.144C117.11 36.168 117.374 35.288 117.902 34.504C118.43 33.704 119.222 33.072 120.278 32.608C121.35 32.144 122.654 31.912 124.19 31.912C125.262 31.912 126.31 32.04 127.334 32.296C128.358 32.552 129.254 32.92 130.022 33.4L128.822 36.352C127.27 35.472 125.718 35.032 124.166 35.032C123.078 35.032 122.27 35.208 121.742 35.56C121.23 35.912 120.974 36.376 120.974 36.952C120.974 37.528 121.27 37.96 121.862 38.248C122.47 38.52 123.39 38.792 124.622 39.064C125.902 39.368 126.95 39.672 127.766 39.976C128.582 40.28 129.278 40.76 129.854 41.416C130.446 42.072 130.742 42.96 130.742 44.08C130.742 45.04 130.47 45.92 129.926 46.72C129.398 47.504 128.598 48.128 127.526 48.592C126.454 49.056 125.15 49.288 123.614 49.288ZM133.398 32.2H137.286V49H133.398V32.2ZM141.273 32.2H145.161V45.832H153.585V49H141.273V32.2ZM170.738 32.2L163.466 49H159.626L152.378 32.2H156.578L161.69 44.2L166.874 32.2H170.738ZM185.148 45.88V49H172.14V32.2H184.836V35.32H176.004V38.968H183.804V41.992H176.004V45.88H185.148ZM198.946 49L195.706 44.32H195.514H192.13V49H188.242V32.2H195.514C197.002 32.2 198.29 32.448 199.378 32.944C200.482 33.44 201.33 34.144 201.922 35.056C202.514 35.968 202.81 37.048 202.81 38.296C202.81 39.544 202.506 40.624 201.898 41.536C201.306 42.432 200.458 43.12 199.354 43.6L203.122 49H198.946ZM198.874 38.296C198.874 37.352 198.57 36.632 197.962 36.136C197.354 35.624 196.466 35.368 195.298 35.368H192.13V41.224H195.298C196.466 41.224 197.354 40.968 197.962 40.456C198.57 39.944 198.874 39.224 198.874 38.296Z" fill="white"/>
</svg>
