<svg width="282" height="282" viewBox="0 0 282 282" fill="none" xmlns="http://www.w3.org/2000/svg">
<rect width="282" height="282" fill="white"/>
<path d="M58.9046 211.283C104.109 234.919 177.402 234.919 222.607 211.283C267.812 187.647 267.812 149.379 222.607 125.765C177.402 102.151 104.109 102.129 58.9046 125.765C13.6998 149.401 13.6998 187.664 58.9046 211.283Z" fill="#F5F5F5"/>
<path d="M83.8761 102.652L94.7705 96.3634L83.8761 90.0752L72.8827 96.3634L83.8761 102.652Z" stroke="#EBEBEB" stroke-width="1.08419" stroke-linecap="round" stroke-linejoin="round"/>
<path d="M75.4166 96.3691L83.8815 71.9033V101.256L75.4166 96.3691Z" fill="#E0E0E0"/>
<path d="M83.8816 101.256L92.341 96.3691L83.8816 71.9033V101.256Z" fill="#E6E6E6"/>
<path d="M70.563 110.325L81.4575 104.037L70.563 97.7485L59.5696 104.037L70.563 110.325Z" stroke="#EBEBEB" stroke-width="1.08419" stroke-linecap="round" stroke-linejoin="round"/>
<path d="M62.1036 104.042L70.5631 67.7092V108.929L62.1036 104.042Z" fill="#E0E0E0"/>
<path d="M70.563 108.929L79.0225 104.042L70.563 67.7092V108.929Z" fill="#E6E6E6"/>
<path d="M57.2501 117.998L68.1445 111.71L57.2501 105.422L46.2512 111.71L57.2501 117.998Z" stroke="#EBEBEB" stroke-width="1.08419" stroke-linecap="round" stroke-linejoin="round"/>
<path d="M48.7906 111.716L57.2501 90.0752V116.602L48.7906 111.716Z" fill="#E0E0E0"/>
<path d="M57.2501 116.602L65.7095 111.716L57.2501 90.0752V116.602Z" fill="#E6E6E6"/>
<path d="M43.9371 125.672L54.8315 119.384L43.9371 113.095L32.9382 119.384L43.9371 125.672Z" stroke="#EBEBEB" stroke-width="1.08419" stroke-linecap="round" stroke-linejoin="round"/>
<path d="M35.4722 119.389L43.9371 82.6492V124.276L35.4722 119.389Z" fill="#E0E0E0"/>
<path d="M43.937 124.276L52.3965 119.389L43.937 82.6492V124.276Z" fill="#E6E6E6"/>
<path d="M189.132 94.2913L247.232 127.832" stroke="#EBEBEB" stroke-width="1.08419" stroke-miterlimit="10" stroke-linecap="round"/>
<path d="M247.232 124.276C247.162 120.065 246.867 115.862 246.347 111.683C245.798 107.143 244.698 99.4802 240.329 96.9517C235.959 94.4232 234.31 98.9964 233.678 101.245C232.853 104.163 228.571 102.316 227.977 97.5068C227.384 92.6972 226.994 77.3724 221.86 74.4207C216.726 71.469 215.071 78.5872 214.489 80.577C213.34 84.4852 209.97 83.4078 208.871 80.8189C207.772 78.2299 204.77 77.5978 203.638 81.2421C202.506 84.8864 201.808 89.0694 198.141 86.9202C194.92 85.0348 196.399 81.5994 193.26 79.9669C190.776 78.6807 189.622 84.815 189.622 91.0207L247.232 124.276Z" fill="#E0E0E0"/>
<path d="M243.011 92.2903C243.011 92.9609 242.406 93.1533 241.67 92.7301L237.272 90.1796C236.911 89.9747 236.602 89.6889 236.369 89.3447C236.136 89.0005 235.987 88.6071 235.931 88.1953C235.931 87.5302 236.536 87.3323 237.272 87.761L241.67 90.3115C242.031 90.5152 242.34 90.7999 242.573 91.1432C242.806 91.4866 242.956 91.8792 243.011 92.2903V92.2903Z" fill="#E6E6E6"/>
<path d="M224.96 70.7268C224.96 71.3974 224.361 71.5898 223.619 71.1666L219.221 68.6161C218.859 68.4122 218.549 68.1267 218.316 67.7823C218.084 67.4379 217.934 67.044 217.88 66.6318C217.88 65.9667 218.479 65.7688 219.221 66.1976L223.619 68.748C223.98 68.951 224.29 69.2356 224.523 69.579C224.756 69.9225 224.905 70.3155 224.96 70.7268V70.7268Z" fill="#E6E6E6"/>
<path d="M210.663 74.6956C210.663 75.3662 210.064 75.5586 209.327 75.1353L204.93 72.5848C204.568 72.381 204.258 72.0955 204.025 71.7511C203.792 71.4066 203.643 71.0127 203.589 70.6005C203.589 69.9354 204.188 69.7376 204.93 70.1663L209.327 72.7168C209.688 72.9208 209.996 73.2057 210.228 73.549C210.46 73.8924 210.609 74.2849 210.663 74.6956V74.6956Z" fill="#E6E6E6"/>
<path d="M197.108 76.0091C197.108 76.6797 196.509 76.872 195.767 76.4433L191.369 73.8983C191.009 73.6931 190.7 73.4072 190.469 73.0629C190.237 72.7187 190.088 72.3254 190.034 71.914C190.034 71.2489 190.633 71.051 191.369 71.4798L195.767 74.0248C196.129 74.2293 196.438 74.515 196.671 74.8593C196.903 75.2036 197.053 75.5971 197.108 76.0091V76.0091Z" fill="#E6E6E6"/>
<path d="M186.714 89.3387V53" stroke="#EBEBEB" stroke-width="1.08419" stroke-miterlimit="10" stroke-linecap="round"/>
<path d="M45.8829 169.717C45.8829 169.717 46.7843 161.648 44.2833 153.963C41.9308 146.697 37.2036 142.844 34.3398 141.689C28.9256 139.529 28.4419 145.493 32.4984 149.621C35.4721 152.655 42.6288 158.91 43.8601 169.519L45.8829 169.717Z" fill="#2968FF"/>
<path opacity="0.7" d="M45.8829 169.717C45.8829 169.717 46.7843 161.648 44.2833 153.963C41.9308 146.697 37.2036 142.844 34.3398 141.689C28.9256 139.529 28.4419 145.493 32.4984 149.621C35.4721 152.655 42.6288 158.91 43.8601 169.519L45.8829 169.717Z" fill="white"/>
<path d="M32.8777 143.355C36.1482 145.554 44.9374 151.902 45.2562 169.657" stroke="#FAFAFA" stroke-width="1.08419" stroke-miterlimit="10" stroke-linecap="round"/>
<path d="M43.5798 175.23C41.8978 167.095 38.4624 164.143 32.3225 160.999C29.6951 159.658 26.617 158.163 25.5066 156.454C24.3963 154.744 24.957 152.446 28.7387 152.496C35.648 152.589 43.5193 160.917 44.5692 170.041L43.5798 175.23Z" fill="#2968FF"/>
<path opacity="0.8" d="M43.5798 175.23C41.8978 167.095 38.4624 164.143 32.3225 160.999C29.6951 159.658 26.617 158.163 25.5066 156.454C24.3963 154.744 24.957 152.446 28.7387 152.496C35.648 152.589 43.5193 160.917 44.5692 170.041L43.5798 175.23Z" fill="white"/>
<path d="M28.156 154.266C33.3724 154.975 41.6119 161.054 44.2283 171.855" stroke="#FAFAFA" stroke-width="1.08419" stroke-miterlimit="10" stroke-linecap="round"/>
<path d="M236.288 165.908C238.405 161.84 240.048 150.429 237.327 145.152C234.606 139.875 230.561 140.299 229.934 142.008C229.385 143.586 230.742 146.405 232.501 149.764C234.26 153.122 235.744 160.318 234.079 163.671L236.288 165.908Z" fill="#2968FF"/>
<path opacity="0.7" d="M236.288 165.908C238.405 161.84 240.048 150.429 237.327 145.152C234.606 139.875 230.561 140.299 229.934 142.008C229.385 143.586 230.742 146.405 232.501 149.764C234.26 153.122 235.744 160.318 234.079 163.671L236.288 165.908Z" fill="white"/>
<path d="M232.606 142.283C234.337 143.674 239.295 152.177 235.827 163.847" stroke="#FAFAFA" stroke-width="1.08419" stroke-miterlimit="10" stroke-linecap="round"/>
<path d="M235.618 170.217C234.343 167.667 231.55 163.445 233.452 160.549C235.354 157.652 237.344 160.213 238.872 158.322C240.4 156.431 238.652 153.375 239.971 151.726C242.522 148.483 244.369 152.249 246.369 151.754C247.815 151.397 249.426 148.192 253.587 148.582C257.748 148.972 257.539 152.27 255.686 153.821C253.834 155.371 251.635 156.915 253.064 159.24C254.329 161.302 254.983 165.111 250.657 166.589C246.523 168.002 248.568 169.794 247.908 171.817C247.249 173.84 243.346 175.758 239.196 174.197L235.618 170.217Z" fill="#2968FF"/>
<path opacity="0.8" d="M235.618 170.217C234.343 167.667 231.55 163.445 233.452 160.549C235.354 157.652 237.344 160.213 238.872 158.322C240.4 156.431 238.652 153.375 239.971 151.726C242.522 148.483 244.369 152.249 246.369 151.754C247.815 151.397 249.426 148.192 253.587 148.582C257.748 148.972 257.539 152.27 255.686 153.821C253.834 155.371 251.635 156.915 253.064 159.24C254.329 161.302 254.983 165.111 250.657 166.589C246.523 168.002 248.568 169.794 247.908 171.817C247.249 173.84 243.346 175.758 239.196 174.197L235.618 170.217Z" fill="white"/>
<path d="M254.158 150.451C249.651 151.66 238.855 160.433 237.943 171.443" stroke="#FAFAFA" stroke-width="1.08419" stroke-miterlimit="10" stroke-linecap="round"/>
<path d="M250.91 162.011C248.684 161.505 243.027 161.433 240.911 162.461" stroke="#FAFAFA" stroke-width="1.08419" stroke-miterlimit="10" stroke-linecap="round"/>
<path d="M242.17 152.694C242.17 152.694 243.819 155.887 243.583 158.575" stroke="#FAFAFA" stroke-width="1.08419" stroke-miterlimit="10" stroke-linecap="round"/>
<path d="M180.684 121.5C179.947 118.949 178.63 116.603 176.836 114.645C174.716 112.333 172.236 110.379 169.493 108.857C166.307 107.053 162.92 105.63 159.401 104.619C155.524 103.501 151.548 102.764 147.528 102.421C143.375 102.041 139.197 102.041 135.045 102.421C131.027 102.764 127.052 103.501 123.177 104.619C119.656 105.629 116.267 107.052 113.08 108.857C110.336 110.392 107.858 112.359 105.742 114.684C103.95 116.643 102.633 118.988 101.894 121.538C101.237 123.897 101.237 126.391 101.894 128.75C102.627 131.301 103.944 133.646 105.742 135.599C107.86 137.925 110.34 139.895 113.085 141.431C116.269 143.235 119.654 144.656 123.172 145.663C127.048 146.787 131.024 147.531 135.045 147.884C139.197 148.258 143.375 148.258 147.528 147.884C151.55 147.529 155.528 146.784 159.406 145.658C162.924 144.65 166.309 143.229 169.493 141.425V141.425C172.239 139.891 174.719 137.921 176.836 135.593C178.631 133.639 179.948 131.294 180.684 128.744C181.341 126.374 181.341 123.87 180.684 121.5Z" fill="#37474F"/>
<path d="M101.4 121.511H181.173V125.578L101.4 125.353V121.511Z" fill="#37474F"/>
<path d="M135.045 98.7764L141.278 121.5L123.177 100.997C127.051 99.8707 131.026 99.127 135.045 98.7764V98.7764Z" fill="#455A64"/>
<path d="M147.528 98.7765L141.295 121.5L135.061 98.7655C139.209 98.3909 143.381 98.3946 147.528 98.7765V98.7765Z" fill="#455A64"/>
<path d="M159.401 100.997L141.295 121.5L147.528 98.7656C151.549 99.1198 155.526 99.8673 159.401 100.997Z" fill="#455A64"/>
<path d="M176.831 111.056C178.624 113.017 179.94 115.364 180.678 117.916L141.3 121.5L176.831 111.056Z" fill="#455A64"/>
<path d="M180.684 117.921C181.335 120.279 181.335 122.77 180.684 125.128L141.3 121.5L180.684 117.921Z" fill="#455A64"/>
<path d="M180.684 125.128C179.947 127.679 178.63 130.025 176.836 131.982L141.3 121.538L180.684 125.128Z" fill="#455A64"/>
<path d="M176.836 131.982C174.719 134.308 172.239 136.276 169.493 137.809L141.289 121.5L176.836 131.982Z" fill="#455A64"/>
<path d="M141.295 121.527L159.406 142.046C155.528 143.166 151.55 143.902 147.528 144.245L141.289 121.511L141.295 121.527Z" fill="#455A64"/>
<path d="M141.289 121.533L147.528 144.267C143.376 144.646 139.197 144.646 135.045 144.267L141.289 121.533Z" fill="#455A64"/>
<path d="M141.278 121.527L135.034 144.262C131.012 143.919 127.034 143.182 123.155 142.063L141.278 121.527Z" fill="#455A64"/>
<path d="M141.278 121.527L123.139 142.047C119.622 141.035 116.237 139.612 113.053 137.809L141.278 121.527Z" fill="#455A64"/>
<path d="M141.273 121.5L105.736 131.944C103.94 129.988 102.623 127.642 101.889 125.089L141.273 121.5Z" fill="#455A64"/>
<path d="M141.273 121.5L101.894 125.128C101.237 122.77 101.237 120.279 101.894 117.921L141.273 121.5Z" fill="#455A64"/>
<path d="M141.273 121.5L101.894 117.899C102.634 115.348 103.95 113.001 105.742 111.04L141.273 121.5Z" fill="#455A64"/>
<path d="M113.08 105.241L141.273 121.5L105.742 111.056C107.859 108.736 110.337 106.772 113.08 105.241V105.241Z" fill="#455A64"/>
<path d="M169.493 105.241L141.295 121.5L159.401 100.986C162.921 102 166.309 103.428 169.493 105.241V105.241Z" fill="#455A64"/>
<path d="M169.493 105.241C172.237 106.77 174.715 108.734 176.831 111.056L141.3 121.5L169.493 105.241Z" fill="#455A64"/>
<path d="M141.278 121.5L113.069 137.787C110.324 136.252 107.844 134.285 105.725 131.96L141.262 121.516L141.278 121.5Z" fill="#455A64"/>
<path d="M123.177 100.997L141.278 121.5L113.08 105.219C116.267 103.417 119.656 101.999 123.177 100.997V100.997Z" fill="#455A64"/>
<path d="M141.295 121.527L169.493 137.809C166.308 139.612 162.923 141.035 159.406 142.047L141.295 121.527Z" fill="#455A64"/>
<path d="M117.164 98.5675L139.563 111.496L138.464 93.2192C130.224 93.571 123.227 95.33 117.164 98.5675Z" fill="#2968FF"/>
<path opacity="0.2" d="M117.164 98.5675L139.563 111.496L138.464 93.2192C130.224 93.571 123.227 95.33 117.164 98.5675Z" fill="white"/>
<path d="M139.563 111.496V118.554L117.164 105.62V98.5676L139.563 111.496Z" fill="#2968FF"/>
<path opacity="0.1" d="M139.563 111.496V118.554L117.164 105.62V98.5676L139.563 111.496Z" fill="black"/>
<path d="M168.602 100.381L142.894 111.979V119.032L168.602 107.434V100.381Z" fill="#2968FF"/>
<path opacity="0.3" d="M168.602 100.381L142.894 111.979V119.032L168.602 107.434V100.381Z" fill="black"/>
<path d="M168.602 100.381C161.682 95.6708 152.453 93.1863 141.756 93.1533L142.443 104.581L142.894 111.98L168.602 100.381Z" fill="#2968FF"/>
<path opacity="0.1" d="M168.602 100.381C161.682 95.6708 152.453 93.1863 141.756 93.1533L142.443 104.581L142.894 111.98L168.602 100.381Z" fill="black"/>
<path d="M141.751 93.1533V100.206L142.894 119.032V111.98L141.751 93.1533Z" fill="#1C1D1F"/>
<path d="M148.121 125.562L161.264 138.204C162.001 137.924 162.682 137.655 163.463 137.281C172.516 133.202 177.248 127.09 177.243 120.923V113.942C176.248 111.287 173.511 111.293 170.647 108.957L143.807 121.049L143.537 121.17L148.121 125.562Z" fill="#2968FF"/>
<path opacity="0.6" d="M148.121 125.562L161.264 138.204C162.001 137.924 162.682 137.655 163.463 137.281C172.516 133.202 177.248 127.09 177.243 120.923V113.942C176.248 111.287 173.511 111.293 170.647 108.957L143.807 121.049L143.537 121.17L148.121 125.562Z" fill="white"/>
<path d="M148.121 118.51L161.264 131.152C162.001 130.872 162.682 130.602 163.463 130.223C178.617 123.38 181.651 110.847 170.658 101.882L143.818 113.975L143.548 114.096L148.121 118.51Z" fill="#2968FF"/>
<path opacity="0.8" d="M148.121 118.51L161.264 131.152C162.001 130.872 162.682 130.602 163.463 130.223C178.617 123.38 181.651 110.847 170.658 101.882L143.818 113.975L143.548 114.096L148.121 118.51Z" fill="white"/>
<path d="M161.242 138.193V131.136L143.521 114.112V121.165L161.242 138.193Z" fill="#2968FF"/>
<path opacity="0.6" d="M161.242 138.193V131.136L143.521 114.112V121.165L161.242 138.193Z" fill="white"/>
<path d="M114.833 106.967C111.057 109.347 106.863 110.847 105.335 113.738V120.796C105.335 124.474 107.045 128.2 110.59 131.608C115.537 136.352 123.37 139.705 132.676 141.041C141.288 142.312 150.074 141.672 158.411 139.166V132.114L146.841 128.046L140.047 121.5L114.833 106.967Z" fill="#2968FF"/>
<path opacity="0.6" d="M114.833 106.967C111.057 109.347 106.863 110.847 105.335 113.738V120.796C105.335 124.474 107.045 128.2 110.59 131.608C115.537 136.352 123.37 139.705 132.676 141.041C141.288 142.312 150.074 141.672 158.411 139.166V132.114L146.841 128.046L140.047 121.5L114.833 106.967Z" fill="black"/>
<path d="M114.833 99.9143C103.983 106.741 102.235 116.525 110.59 124.551C115.537 129.3 123.37 132.647 132.676 133.988C141.288 135.257 150.074 134.617 158.411 132.114L146.841 120.994L140.047 114.47L114.833 99.9143Z" fill="#2968FF"/>
<path opacity="0.3" d="M114.833 99.9143C103.983 106.741 102.235 116.525 110.59 124.551C115.537 129.3 123.37 132.647 132.676 133.988C141.288 135.257 150.074 134.617 158.411 132.114L146.841 120.994L140.047 114.47L114.833 99.9143Z" fill="black"/>
<path d="M240.735 176.824C239.999 174.273 238.682 171.927 236.888 169.97C234.772 167.644 232.294 165.677 229.55 164.143C226.364 162.339 222.977 160.916 219.458 159.905C215.581 158.786 211.605 158.05 207.585 157.707C203.432 157.327 199.254 157.327 195.102 157.707C191.084 158.051 187.109 158.787 183.234 159.905C179.715 160.916 176.328 162.339 173.142 164.143C170.396 165.676 167.916 167.644 165.799 169.97C164.006 171.928 162.69 174.274 161.951 176.824C161.294 179.183 161.294 181.677 161.951 184.036C162.684 186.587 164.001 188.932 165.799 190.885C167.917 193.211 170.397 195.181 173.142 196.717C176.327 198.519 179.712 199.939 183.229 200.949C187.108 202.065 191.086 202.802 195.107 203.148C199.26 203.522 203.438 203.522 207.59 203.148C211.612 202.802 215.59 202.066 219.469 200.949C222.987 199.942 226.373 198.519 229.555 196.711V196.711C232.303 195.179 234.785 193.211 236.904 190.885C238.698 188.929 240.015 186.585 240.752 184.036C241.401 181.675 241.395 179.182 240.735 176.824Z" fill="#37474F"/>
<path d="M161.451 176.819H241.225V180.886L161.451 180.661V176.819Z" fill="#37474F"/>
<path d="M195.096 154.084L201.335 176.819L183.229 156.305C187.103 155.179 191.077 154.435 195.096 154.084V154.084Z" fill="#455A64"/>
<path d="M207.579 154.084L201.346 176.819L195.107 154.084C199.256 153.706 203.431 153.706 207.579 154.084Z" fill="#455A64"/>
<path d="M219.452 156.305L201.346 176.819L207.579 154.084C211.6 154.435 215.577 155.179 219.452 156.305V156.305Z" fill="#455A64"/>
<path d="M236.882 166.369C238.676 168.329 239.993 170.677 240.73 173.229L201.352 176.83L236.882 166.369Z" fill="#455A64"/>
<path d="M240.735 173.229C241.389 175.587 241.389 178.078 240.735 180.435L201.357 176.83L240.735 173.229Z" fill="#455A64"/>
<path d="M240.735 180.436C239.997 182.986 238.68 185.331 236.888 187.29L201.352 176.846L240.735 180.436Z" fill="#455A64"/>
<path d="M236.893 187.29C234.771 189.613 232.29 191.58 229.544 193.116L201.341 176.83L236.893 187.29Z" fill="#455A64"/>
<path d="M201.346 176.835L219.458 197.354C215.579 198.471 211.601 199.207 207.579 199.553L201.341 176.819L201.346 176.835Z" fill="#455A64"/>
<path d="M201.341 176.841L207.579 199.553C203.427 199.929 199.249 199.929 195.096 199.553L201.341 176.841Z" fill="#455A64"/>
<path d="M201.335 176.835L195.096 199.553C191.075 199.207 187.097 198.47 183.218 197.354L201.335 176.835Z" fill="#455A64"/>
<path d="M201.335 176.835L183.196 197.354C179.68 196.34 176.295 194.918 173.109 193.116L201.335 176.835Z" fill="#455A64"/>
<path d="M201.324 176.83L165.788 187.273C163.991 185.318 162.674 182.971 161.94 180.419L201.324 176.83Z" fill="#455A64"/>
<path d="M201.324 176.83L161.946 180.435C161.289 178.078 161.289 175.586 161.946 173.229L201.324 176.83Z" fill="#455A64"/>
<path d="M201.324 176.824L161.946 173.224C162.684 170.672 164.001 168.324 165.793 166.364L201.324 176.824Z" fill="#455A64"/>
<path d="M173.137 160.526L201.324 176.802L165.793 166.358C167.91 164.031 170.39 162.061 173.137 160.526V160.526Z" fill="#455A64"/>
<path d="M229.544 160.527L201.346 176.802L219.452 156.289C222.972 157.297 226.36 158.72 229.544 160.527V160.527Z" fill="#455A64"/>
<path d="M229.544 160.526C232.288 162.058 234.766 164.024 236.882 166.347L201.357 176.791L229.544 160.526Z" fill="#455A64"/>
<path d="M201.335 176.824L173.131 193.116C170.387 191.58 167.908 189.613 165.788 187.29L201.324 176.846L201.335 176.824Z" fill="#455A64"/>
<path d="M183.229 156.305L201.335 176.819L173.137 160.526C176.322 158.725 179.71 157.308 183.229 156.305V156.305Z" fill="#455A64"/>
<path d="M201.346 176.835L229.544 193.116C226.36 194.92 222.974 196.342 219.458 197.354L201.346 176.835Z" fill="#455A64"/>
<path d="M166.2 167.897V179.32C165.911 178.276 165.763 177.198 165.76 176.115V167.897H166.2Z" fill="#2968FF"/>
<path opacity="0.3" d="M166.2 167.897V179.32C165.911 178.276 165.763 177.198 165.76 176.115V167.897H166.2Z" fill="black"/>
<path d="M201.324 167.908L166.2 171.119C165.617 169.016 165.617 166.795 166.2 164.693L201.324 167.908Z" fill="#2968FF"/>
<path d="M201.324 167.897L166.2 164.682C166.86 162.406 168.036 160.312 169.636 158.564L201.324 167.897Z" fill="#2968FF"/>
<path d="M176.182 153.381L201.324 167.898L169.636 158.553C171.526 156.489 173.736 154.742 176.182 153.381V153.381Z" fill="#2968FF"/>
<path d="M185.186 149.599L201.335 167.892L176.182 153.381C179.023 151.769 182.046 150.5 185.186 149.599V149.599Z" fill="#2968FF"/>
<path d="M195.772 147.62L201.335 167.892L185.186 149.599C188.641 148.594 192.187 147.931 195.772 147.62V147.62Z" fill="#2968FF"/>
<path d="M206.936 147.62L201.346 167.892L195.783 147.62C199.493 147.278 203.226 147.278 206.936 147.62V147.62Z" fill="#2968FF"/>
<path d="M217.495 149.599L201.346 167.892L206.936 147.62C210.512 147.933 214.049 148.596 217.495 149.599V149.599Z" fill="#2968FF"/>
<g opacity="0.2">
<path opacity="0.2" d="M201.324 167.908L166.2 171.119C165.617 169.016 165.617 166.795 166.2 164.693L201.324 167.908Z" fill="white"/>
<path opacity="0.2" d="M201.324 167.897L166.2 164.682C166.86 162.406 168.036 160.312 169.636 158.564L201.324 167.897Z" fill="white"/>
<path opacity="0.2" d="M176.182 153.381L201.324 167.898L169.636 158.553C171.526 156.489 173.736 154.742 176.182 153.381V153.381Z" fill="white"/>
<path opacity="0.2" d="M185.186 149.599L201.335 167.892L176.182 153.381C179.023 151.769 182.046 150.5 185.186 149.599V149.599Z" fill="white"/>
<path opacity="0.2" d="M195.772 147.62L201.335 167.892L185.186 149.599C188.641 148.594 192.187 147.931 195.772 147.62V147.62Z" fill="white"/>
<path opacity="0.2" d="M206.936 147.62L201.346 167.892L195.783 147.62C199.493 147.278 203.226 147.278 206.936 147.62V147.62Z" fill="white"/>
<path opacity="0.2" d="M217.495 149.599L201.346 167.892L206.936 147.62C210.512 147.933 214.049 148.596 217.495 149.599V149.599Z" fill="white"/>
</g>
<path d="M231.122 173.383L225.85 178.33L221.843 182.117L218.023 185.712L217.512 186.19V194.397C220.651 193.497 223.673 192.23 226.515 190.621C228.964 189.248 231.176 187.49 233.067 185.415C234.667 183.673 235.839 181.582 236.492 179.308C236.783 178.265 236.933 177.187 236.937 176.104V167.903L231.122 173.383Z" fill="#2968FF"/>
<path opacity="0.3" d="M231.122 173.383L225.85 178.33L221.843 182.117L218.023 185.712L217.512 186.19V194.397C220.651 193.497 223.673 192.23 226.515 190.621C228.964 189.248 231.176 187.49 233.067 185.415C234.667 183.673 235.839 181.582 236.492 179.308C236.783 178.265 236.933 177.187 236.937 176.104V167.903L231.122 173.383Z" fill="black"/>
<path d="M233.045 158.575C234.643 160.325 235.818 162.418 236.481 164.693L201.352 167.909L233.045 158.575Z" fill="#2968FF"/>
<path d="M236.921 167.914C236.916 168.999 236.766 170.079 236.475 171.124L225.834 170.146L201.352 167.903L231.105 165.155L236.475 164.666C236.77 165.723 236.919 166.816 236.921 167.914Z" fill="#2968FF"/>
<path d="M236.475 171.124C235.821 173.397 234.649 175.487 233.051 177.231L221.827 173.933L201.352 167.886L225.834 170.129L236.475 171.124Z" fill="#2968FF"/>
<path d="M233.051 177.231C231.16 179.306 228.948 181.063 226.499 182.436L218.006 177.522L201.357 167.914L221.832 173.96L233.051 177.231Z" fill="#2968FF"/>
<path d="M226.499 153.381L201.346 167.903L217.495 149.61C220.634 150.509 223.656 151.775 226.499 153.381V153.381Z" fill="#2968FF"/>
<path d="M226.499 153.381C228.945 154.75 231.156 156.504 233.045 158.575L201.352 167.92L226.499 153.381Z" fill="#2968FF"/>
<path d="M226.499 182.436C223.657 184.044 220.635 185.309 217.495 186.207L201.357 167.914L218.006 177.522L226.499 182.436Z" fill="#2968FF"/>
<g opacity="0.2">
<path opacity="0.2" d="M233.045 158.575C234.643 160.325 235.818 162.418 236.481 164.693L201.352 167.908L233.045 158.575Z" fill="white"/>
<path opacity="0.2" d="M236.921 167.914C236.916 168.999 236.766 170.079 236.475 171.124L225.834 170.145L201.352 167.903L231.105 165.154L236.475 164.665C236.77 165.723 236.919 166.816 236.921 167.914Z" fill="white"/>
<path opacity="0.2" d="M236.475 171.124C235.821 173.397 234.649 175.487 233.051 177.231L221.827 173.933L201.352 167.886L225.834 170.129L236.475 171.124Z" fill="white"/>
<path opacity="0.2" d="M233.051 177.231C231.16 179.306 228.948 181.063 226.499 182.436L218.007 177.522L201.357 167.914L221.832 173.96L233.051 177.231Z" fill="white"/>
<path opacity="0.2" d="M226.499 153.381L201.346 167.903L217.495 149.61C220.634 150.509 223.656 151.775 226.499 153.381V153.381Z" fill="white"/>
<path opacity="0.2" d="M226.499 153.381C228.945 154.75 231.156 156.504 233.045 158.575L201.352 167.919L226.499 153.381Z" fill="white"/>
<path opacity="0.2" d="M226.499 182.436C223.657 184.043 220.635 185.309 217.495 186.207L201.357 167.914L218.007 177.522L226.499 182.436Z" fill="white"/>
</g>
<path d="M217.501 186.213V194.419L201.335 176.104V167.892L217.501 186.213Z" fill="#1C1D1F"/>
<path d="M201.335 176.104L166.2 179.331V171.119L201.335 167.892V176.104Z" fill="#2968FF"/>
<path opacity="0.1" d="M201.335 176.104L166.2 179.331V171.119L201.335 167.892V176.104Z" fill="black"/>
<path d="M120.638 176.824C119.901 174.273 118.584 171.927 116.79 169.97C114.674 167.645 112.196 165.678 109.452 164.143C106.265 162.338 102.876 160.915 99.3548 159.905C95.4803 158.786 91.5056 158.05 87.4874 157.707C83.3351 157.327 79.1568 157.327 75.0044 157.707C70.9846 158.051 67.008 158.787 63.1316 159.905C59.6089 160.915 56.2178 162.338 53.0286 164.143C50.2843 165.677 47.8062 167.644 45.6905 169.97C43.8966 171.927 42.5797 174.273 41.8429 176.824C41.1914 179.184 41.1914 181.676 41.8429 184.036C42.5784 186.586 43.8955 188.93 45.6905 190.885C47.8058 193.212 50.2839 195.181 53.0286 196.717C56.2119 198.521 59.5976 199.941 63.1151 200.949C66.9938 202.066 70.972 202.802 74.9934 203.148C79.146 203.522 83.3238 203.522 87.4764 203.148C91.4979 202.802 95.4761 202.066 99.3548 200.949C102.873 199.942 106.259 198.519 109.441 196.711V196.711C112.19 195.179 114.672 193.211 116.79 190.885C118.585 188.93 119.902 186.586 120.638 184.036C121.289 181.676 121.289 179.184 120.638 176.824V176.824Z" fill="#37474F"/>
<path d="M41.3481 176.819H121.122V180.886L41.3481 180.661V176.819Z" fill="#37474F"/>
<path d="M75.0154 154.084L81.2487 176.819L63.1425 156.305C67.0182 155.179 70.9948 154.435 75.0154 154.084Z" fill="#455A64"/>
<path d="M87.4764 154.084L81.2432 176.819L75.0154 154.084C79.1605 153.706 83.3313 153.706 87.4764 154.084Z" fill="#455A64"/>
<path d="M99.3438 156.305L81.2432 176.819L87.4764 154.084C91.4953 154.435 95.4701 155.179 99.3438 156.305V156.305Z" fill="#455A64"/>
<path d="M116.79 166.369C118.584 168.329 119.901 170.677 120.638 173.229L81.2542 176.83L116.79 166.369Z" fill="#455A64"/>
<path d="M120.638 173.229C121.289 175.587 121.289 178.078 120.638 180.435L81.2542 176.83L120.638 173.229Z" fill="#455A64"/>
<path d="M120.638 180.436C119.901 182.987 118.584 185.333 116.79 187.29L81.2542 176.846L120.638 180.436Z" fill="#455A64"/>
<path d="M116.79 187.29C114.671 189.613 112.191 191.58 109.447 193.116L81.2377 176.83L116.79 187.29Z" fill="#455A64"/>
<path d="M81.2432 176.835L99.3548 197.354C95.4761 198.471 91.4979 199.207 87.4764 199.553L81.2322 176.819L81.2432 176.835Z" fill="#455A64"/>
<path d="M81.2322 176.841L87.4764 199.553C83.3312 199.928 79.1606 199.928 75.0154 199.553L81.2322 176.841Z" fill="#455A64"/>
<path d="M81.2267 176.835L75.0154 199.553C70.994 199.207 67.0157 198.471 63.137 197.354L81.2267 176.835Z" fill="#455A64"/>
<path d="M81.2267 176.835L63.0876 197.354C59.5802 196.34 56.2041 194.918 53.0286 193.116L81.2267 176.835Z" fill="#455A64"/>
<path d="M81.2212 176.83L45.685 187.273C43.8909 185.316 42.574 182.97 41.8373 180.419L81.2212 176.83Z" fill="#455A64"/>
<path d="M81.2212 176.83L41.8373 180.435C41.1861 178.078 41.1861 175.587 41.8373 173.229L81.2212 176.83Z" fill="#455A64"/>
<path d="M81.2212 176.824L41.8373 173.224C42.5741 170.671 43.891 168.323 45.685 166.364L81.2212 176.824Z" fill="#455A64"/>
<path d="M53.0286 160.526L81.2212 176.802L45.6905 166.358C47.8053 164.031 50.2835 162.061 53.0286 160.526V160.526Z" fill="#455A64"/>
<path d="M109.441 160.527L81.2432 176.802L99.3438 156.289C102.866 157.296 106.255 158.719 109.441 160.527V160.527Z" fill="#455A64"/>
<path d="M109.441 160.526C112.19 162.065 114.672 164.038 116.79 166.369L81.2596 176.813L109.441 160.526Z" fill="#455A64"/>
<path d="M81.2267 176.824L53.0286 193.116C50.2834 191.582 47.8036 189.614 45.685 187.29L81.2212 176.846L81.2267 176.824Z" fill="#455A64"/>
<path d="M63.1206 156.305L81.2267 176.819L53.0286 160.526C56.214 158.725 59.6016 157.308 63.1206 156.305V156.305Z" fill="#455A64"/>
<path d="M81.2432 176.835L109.441 193.116C106.257 194.92 102.872 196.342 99.3548 197.354L81.2432 176.835Z" fill="#455A64"/>
<path d="M91.8408 162.725L96.3866 157.569C96.3866 151.523 88.999 151.374 85.734 151.083C82.4689 150.792 76.8678 148.917 76.8678 155.799L78.4289 161.494C82.9363 161.204 87.4614 161.62 91.8408 162.725V162.725Z" fill="#2968FF"/>
<path opacity="0.6" d="M91.8408 162.725L96.3866 157.569C96.3866 151.523 88.999 151.374 85.734 151.083C82.4689 150.792 76.8678 148.917 76.8678 155.799L78.4289 161.494C82.9363 161.204 87.4614 161.62 91.8408 162.725V162.725Z" fill="white"/>
<path d="M91.8408 154.628L96.3866 149.478C90.0214 147.822 83.4271 147.224 76.8678 147.708L78.4289 153.381C82.9372 153.096 87.4623 153.517 91.8408 154.628V154.628Z" fill="#2968FF"/>
<path opacity="0.8" d="M91.8408 154.628L96.3866 149.478C90.0214 147.822 83.4271 147.224 76.8678 147.708L78.4289 153.381C82.9372 153.096 87.4623 153.517 91.8408 154.628V154.628Z" fill="white"/>
<path d="M78.4289 153.403V161.505L76.8678 155.81V147.708L78.4289 153.403Z" fill="#2968FF"/>
<path d="M96.3865 149.478L91.8408 154.628V162.736L96.3865 157.58V149.478Z" fill="#2968FF"/>
<g opacity="0.6">
<path opacity="0.6" d="M78.4289 153.403V161.505L76.8678 155.81V147.708L78.4289 153.403Z" fill="white"/>
<path opacity="0.6" d="M96.3866 149.478L91.8408 154.628V162.736L96.3866 157.58V149.478Z" fill="white"/>
</g>
<path d="M94.0615 155.283V163.385C95.9581 163.997 97.7885 164.798 99.5252 165.776C101.041 166.636 102.433 167.698 103.664 168.931L112.58 166.309C110.807 164.499 108.788 162.949 106.583 161.703C104.148 160.307 101.542 154.645 94.0615 155.283Z" fill="#2968FF"/>
<path opacity="0.6" d="M94.0615 155.283V163.385C95.9581 163.997 97.7885 164.798 99.5252 165.776C101.041 166.636 102.433 167.698 103.664 168.931L112.58 166.309C110.807 164.499 108.788 162.949 106.583 161.703C104.148 160.307 101.542 154.645 94.0615 155.283Z" fill="black"/>
<path d="M98.6072 150.138L94.0615 155.283C95.9599 155.89 97.7907 156.691 99.5252 157.674C101.041 158.534 102.433 159.595 103.664 160.829L112.58 158.207C110.81 156.394 108.791 154.843 106.583 153.601C104.056 152.164 101.382 151.003 98.6072 150.138V150.138Z" fill="#2968FF"/>
<path opacity="0.3" d="M98.6072 150.138L94.0615 155.283C95.9599 155.89 97.7907 156.691 99.5252 157.674C101.041 158.534 102.433 159.595 103.664 160.829L112.58 158.207C110.81 156.394 108.791 154.843 106.583 153.601C104.056 152.164 101.382 151.003 98.6072 150.138V150.138Z" fill="black"/>
<path d="M103.664 160.829L112.58 158.201V166.309L103.664 168.931V160.829Z" fill="#2968FF"/>
<path opacity="0.6" d="M103.664 160.829L112.58 158.201V166.309L103.664 168.931V160.829Z" fill="black"/>
<path d="M117.054 168.018H114.042C113.932 167.876 113.839 167.733 113.729 167.59L104.802 162.093V170.201C106.704 172.647 107.424 175.318 106.929 177.94L116.79 178.858C116.957 178.04 117.04 177.208 117.038 176.373V176.373L117.054 168.018Z" fill="#2968FF"/>
<path opacity="0.6" d="M117.054 168.018H114.042C113.932 167.876 113.839 167.733 113.729 167.59L104.802 162.093V170.201C106.704 172.647 107.424 175.318 106.929 177.94L116.79 178.858C116.957 178.04 117.04 177.208 117.038 176.373V176.373L117.054 168.018Z" fill="black"/>
<path d="M106.924 169.871L116.79 170.756C117.593 166.947 116.576 163.027 113.723 159.488L104.797 162.109C106.698 164.556 107.446 167.232 106.924 169.871Z" fill="#2968FF"/>
<path opacity="0.3" d="M106.924 169.871L116.79 170.756C117.593 166.947 116.576 163.027 113.723 159.488L104.797 162.109C106.698 164.556 107.446 167.232 106.924 169.871Z" fill="black"/>
<path d="M116.79 170.756V178.863L106.924 177.956V169.854L116.79 170.756Z" fill="#2968FF"/>
<path opacity="0.6" d="M116.79 170.756V178.863L106.924 177.956V169.854L116.79 170.756Z" fill="black"/>
<path d="M75.9663 161.736V153.628C70.4696 151.094 60.2348 153.667 56.8048 161.214L63.8626 165.292C67.6535 163.396 71.7523 162.192 75.9663 161.736Z" fill="#2968FF"/>
<path opacity="0.3" d="M75.9663 161.736V153.628C70.4696 151.094 60.2348 153.667 56.8048 161.214L63.8626 165.292C67.6535 163.396 71.7523 162.192 75.9663 161.736Z" fill="black"/>
<path d="M75.9663 153.628L74.3998 147.917C67.7543 148.665 61.6694 150.495 56.8103 153.111L63.8681 157.184C67.6573 155.289 71.7542 154.085 75.9663 153.628Z" fill="#2968FF"/>
<path opacity="0.1" d="M75.9663 153.628L74.3998 147.917C67.7543 148.665 61.6694 150.495 56.8103 153.111L63.8681 157.184C67.6573 155.289 71.7542 154.085 75.9663 153.628Z" fill="black"/>
<path d="M63.8626 157.184V165.292L56.8048 161.213V153.111L63.8626 157.184Z" fill="#1C1D1F"/>
<path d="M56.4805 158.207L55.0294 162.225C50.2858 165.16 47.2901 168.694 46.0588 172.394L55.9529 173.295C56.8598 170.761 58.9266 168.348 62.1257 166.314V158.207H56.4805Z" fill="#2968FF"/>
<path opacity="0.3" d="M56.4805 158.207L55.0294 162.225C50.2858 165.16 47.2901 168.694 46.0588 172.394L55.9529 173.295C56.8598 170.761 58.9266 168.348 62.1257 166.314V158.207H56.4805Z" fill="black"/>
<path d="M62.1037 158.207L55.0294 154.123C50.2858 157.052 47.2901 160.592 46.0588 164.286L55.9529 165.193C56.8378 162.659 58.9046 160.24 62.1037 158.207Z" fill="#2968FF"/>
<path opacity="0.1" d="M62.1037 158.207L55.0294 154.123C50.2858 157.052 47.2901 160.592 46.0588 164.286L55.9529 165.193C56.8378 162.659 58.9046 160.24 62.1037 158.207Z" fill="black"/>
<path d="M46.0588 164.286V172.394L55.9309 173.295V165.193L46.0588 164.286Z" fill="#1C1D1F"/>
<path d="M55.5406 174.719V166.611L52.6054 166.347L45.4157 168.222V176.318C45.4618 179.536 46.628 182.636 48.7137 185.086L57.6404 182.464C55.777 180.018 55.0514 177.341 55.5406 174.719Z" fill="#2968FF"/>
<path opacity="0.3" d="M55.5406 174.719V166.611L52.6054 166.347L45.4157 168.222V176.318C45.4618 179.536 46.628 182.636 48.7137 185.086L57.6404 182.464C55.777 180.018 55.0514 177.341 55.5406 174.719Z" fill="black"/>
<path d="M48.7467 176.983L57.6733 174.356V182.464L48.7467 185.086V176.983Z" fill="#1C1D1F"/>
<path d="M55.5461 166.611L45.6521 165.71C44.8495 169.524 45.8664 173.438 48.7192 176.983L57.6459 174.356C55.777 171.91 55.0514 169.233 55.5461 166.611Z" fill="#2968FF"/>
<path opacity="0.1" d="M55.5461 166.611L45.6521 165.71C44.8495 169.524 45.8664 173.438 48.7192 176.983L57.6459 174.356C55.777 171.91 55.0514 169.233 55.5461 166.611Z" fill="black"/>
<path d="M66.1052 185.075C61.9222 182.662 59.8335 179.501 59.8335 176.34V168.222H102.636V176.324C102.636 179.49 100.548 182.651 96.3645 185.064C88.0096 189.901 74.4657 189.901 66.1052 185.075Z" fill="#37474F"/>
<path d="M81.2377 180.589C93.0558 180.589 102.636 175.057 102.636 168.233C102.636 161.408 93.0558 155.876 81.2377 155.876C69.4195 155.876 59.839 161.408 59.839 168.233C59.839 175.057 69.4195 180.589 81.2377 180.589Z" fill="#455A64"/>
<path d="M63.8626 187.394V186.361L49.8845 178.264V186.361C51.6578 188.172 53.6787 189.723 55.8869 190.967C58.414 192.403 61.0879 193.564 63.8626 194.43L68.4029 189.285C66.8415 188.777 65.3232 188.145 63.8626 187.394V187.394Z" fill="#2968FF"/>
<path opacity="0.3" d="M63.8626 187.394V186.361L49.8845 178.264V186.361C51.6578 188.172 53.6787 189.723 55.8869 190.967C58.414 192.403 61.0879 193.564 63.8626 194.43L68.4029 189.285C66.8415 188.777 65.3232 188.145 63.8626 187.394V187.394Z" fill="black"/>
<path d="M62.9227 178.792C61.4055 177.934 60.0114 176.874 58.7782 175.642L49.8625 178.264C51.6373 180.074 53.6579 181.624 55.8649 182.87C58.3932 184.304 61.0668 185.465 63.8407 186.333L68.3809 181.183C66.4843 180.575 64.6552 179.774 62.9227 178.792V178.792Z" fill="#2968FF"/>
<path opacity="0.1" d="M62.9227 178.792C61.4055 177.934 60.0114 176.874 58.7782 175.642L49.8625 178.264C51.6373 180.074 53.6579 181.624 55.8649 182.87C58.3932 184.304 61.0668 185.465 63.8407 186.333L68.3809 181.183C66.4843 180.575 64.6552 179.774 62.9227 178.792V178.792Z" fill="black"/>
<path d="M63.8626 194.436V186.334L68.4029 181.183V189.291L63.8626 194.436Z" fill="#1C1D1F"/>
<path d="M66.0833 186.988V195.095C72.4484 196.752 79.0428 197.35 85.602 196.865V188.763L66.0833 186.988Z" fill="#2968FF"/>
<path opacity="0.1" d="M66.0833 186.988V195.095C72.4484 196.752 79.0428 197.35 85.602 196.865V188.763L66.0833 186.988Z" fill="black"/>
<path d="M70.6181 181.837L66.0723 186.987C72.4376 188.643 79.0315 189.243 85.5911 188.763L84.041 183.063C79.5302 183.355 75.0013 182.942 70.6181 181.837V181.837Z" fill="#2968FF"/>
<path opacity="0.2" d="M70.6181 181.837L66.0723 186.987C72.4376 188.643 79.0315 189.243 85.5911 188.763L84.041 183.063C79.5302 183.355 75.0013 182.942 70.6181 181.837V181.837Z" fill="white"/>
<path d="M100.366 186.361L107.446 190.45C112.19 187.521 115.185 183.981 116.417 180.282V172.179L106.522 179.38C105.632 181.914 103.565 184.333 100.366 186.361Z" fill="#2968FF"/>
<path opacity="0.1" d="M100.366 186.361L107.446 190.45C112.19 187.521 115.185 183.981 116.417 180.282V172.179L106.522 179.38C105.632 181.914 103.565 184.333 100.366 186.361Z" fill="black"/>
<path d="M100.366 178.259L107.446 182.348C112.19 179.413 115.185 175.879 116.417 172.179L106.522 171.278C105.632 173.812 103.565 176.225 100.366 178.259Z" fill="#2968FF"/>
<path opacity="0.2" d="M100.366 178.259L107.446 182.348C112.19 179.413 115.185 175.879 116.417 172.179L106.522 171.278C105.632 173.812 103.565 176.225 100.366 178.259Z" fill="white"/>
<path d="M107.44 182.348V190.45L100.366 186.366V178.259L107.44 182.348Z" fill="#2968FF"/>
<path opacity="0.3" d="M107.44 182.348V190.45L100.366 186.366V178.259L107.44 182.348Z" fill="black"/>
<path d="M88.07 188.56V190.758C87.5479 190.841 87.0312 190.912 86.5035 190.973L88.07 196.678C94.4737 195.964 100.597 194.232 105.659 191.495V183.365L88.07 188.56Z" fill="#2968FF"/>
<path opacity="0.1" d="M88.07 188.56V190.758C87.5479 190.841 87.0312 190.912 86.5035 190.973L88.07 196.678C94.4737 195.964 100.597 194.232 105.659 191.495V183.365L88.07 188.56Z" fill="black"/>
<path d="M86.5035 182.843L88.07 188.559C94.4737 187.845 100.597 186.119 105.659 183.382L98.5852 179.292C94.8039 181.192 90.7113 182.394 86.5035 182.843V182.843Z" fill="#2968FF"/>
<path opacity="0.2" d="M86.5035 182.843L88.07 188.559C94.4737 187.845 100.597 186.119 105.659 183.382L98.5852 179.292C94.8039 181.192 90.7113 182.394 86.5035 182.843V182.843Z" fill="white"/>
<path d="M88.07 188.543V196.645L86.5035 190.951V182.843L88.07 188.543Z" fill="#2968FF"/>
<path opacity="0.3" d="M88.07 188.543V196.645L86.5035 190.951V182.843L88.07 188.543Z" fill="black"/>
<path d="M225.246 134.329C225.226 133.972 225.123 133.624 224.944 133.314C224.766 133.003 224.517 132.739 224.218 132.543L209.333 123.951C208.783 123.622 208.305 123.891 208.305 124.551V138.935C208.323 139.293 208.426 139.641 208.605 139.952C208.784 140.262 209.033 140.526 209.333 140.722L215.566 144.317L217.534 152.281C217.527 152.427 217.579 152.57 217.677 152.677C217.776 152.785 217.913 152.849 218.059 152.856C218.204 152.862 218.347 152.811 218.455 152.712C218.562 152.614 218.627 152.477 218.633 152.331L220.436 147.125L224.245 149.324C224.795 149.654 225.273 149.385 225.273 148.731L225.246 134.329Z" fill="#2968FF"/>
<path opacity="0.5" d="M225.246 134.329C225.226 133.972 225.123 133.624 224.944 133.314C224.766 133.003 224.517 132.739 224.218 132.543L209.333 123.951C208.783 123.622 208.305 123.891 208.305 124.551V138.935C208.323 139.293 208.426 139.641 208.605 139.952C208.784 140.262 209.033 140.526 209.333 140.722L215.566 144.317L217.534 152.281C217.527 152.427 217.579 152.57 217.677 152.677C217.776 152.785 217.913 152.849 218.059 152.856C218.204 152.862 218.347 152.811 218.455 152.712C218.562 152.614 218.627 152.477 218.633 152.331L220.436 147.125L224.245 149.324C224.795 149.654 225.273 149.385 225.273 148.731L225.246 134.329Z" fill="white"/>
<path d="M213.944 130.504C214.248 130.677 214.529 130.887 214.78 131.13C215.004 131.349 215.205 131.59 215.379 131.85C215.53 132.081 215.654 132.328 215.747 132.587C215.825 132.807 215.875 133.036 215.896 133.269C215.896 133.505 215.923 133.752 215.923 134.011C215.923 134.269 215.923 134.505 215.896 134.725C215.882 134.902 215.832 135.075 215.747 135.231C215.665 135.375 215.535 135.486 215.379 135.544C215.183 135.598 214.976 135.598 214.78 135.544C214.484 135.476 214.202 135.359 213.944 135.198C213.639 135.027 213.357 134.818 213.103 134.577C212.878 134.365 212.679 134.127 212.51 133.868C212.222 133.443 212.043 132.954 211.988 132.444C211.988 132.208 211.988 131.96 211.988 131.702C211.988 131.444 211.988 131.207 211.988 130.993C212.005 130.814 212.057 130.64 212.142 130.482C212.221 130.335 212.352 130.223 212.51 130.168C212.702 130.108 212.907 130.098 213.103 130.141C213.403 130.211 213.688 130.334 213.944 130.504V130.504ZM219.199 133.851C219.255 133.81 219.322 133.785 219.392 133.78C219.492 133.786 219.588 133.818 219.672 133.873L220.458 134.329C220.548 134.381 220.627 134.45 220.689 134.533C220.74 134.603 220.769 134.688 220.771 134.775C220.773 134.793 220.773 134.811 220.771 134.83C220.762 134.85 220.749 134.869 220.733 134.885L214.258 139.667C214.201 139.709 214.135 139.735 214.065 139.744C213.965 139.737 213.868 139.703 213.785 139.645L212.999 139.194C212.908 139.142 212.829 139.071 212.768 138.985C212.715 138.917 212.684 138.835 212.68 138.749C212.676 138.729 212.676 138.708 212.68 138.688C212.688 138.667 212.701 138.648 212.719 138.633L219.199 133.851ZM214.637 133.851C214.645 133.771 214.645 133.69 214.637 133.609V132.9C214.644 132.814 214.644 132.728 214.637 132.642C214.619 132.449 214.561 132.262 214.467 132.092C214.34 131.886 214.159 131.719 213.944 131.609C213.692 131.46 213.516 131.422 213.395 131.488C213.343 131.529 213.301 131.582 213.271 131.642C213.242 131.702 213.226 131.767 213.224 131.834C213.224 131.883 213.224 131.96 213.224 132.076C213.224 132.191 213.224 132.301 213.224 132.422C213.224 132.543 213.224 132.664 213.224 132.779C213.224 132.895 213.224 132.983 213.224 133.043C213.245 133.236 213.303 133.422 213.395 133.593C213.53 133.802 213.72 133.969 213.944 134.077C214.197 134.225 214.373 134.263 214.467 134.197C214.516 134.158 214.557 134.108 214.585 134.051C214.614 133.994 214.63 133.931 214.632 133.868L214.637 133.851ZM219.617 138.364C219.923 138.537 220.205 138.747 220.458 138.991C220.681 139.209 220.88 139.45 221.052 139.711C221.207 139.939 221.331 140.186 221.42 140.447C221.496 140.668 221.548 140.897 221.574 141.129C221.574 141.365 221.574 141.613 221.574 141.871C221.574 142.129 221.574 142.366 221.574 142.585C221.557 142.763 221.505 142.935 221.42 143.091C221.382 143.165 221.33 143.231 221.267 143.285C221.204 143.339 221.131 143.379 221.052 143.404C220.858 143.461 220.652 143.461 220.458 143.404C220.161 143.336 219.876 143.219 219.617 143.058C219.313 142.887 219.033 142.678 218.782 142.437C218.556 142.224 218.355 141.986 218.182 141.728C218.03 141.498 217.907 141.251 217.814 140.991C217.737 140.771 217.687 140.542 217.666 140.31C217.666 140.068 217.666 139.821 217.666 139.562C217.666 139.304 217.666 139.068 217.666 138.853C217.678 138.674 217.729 138.5 217.814 138.342C217.895 138.196 218.026 138.085 218.182 138.029C218.379 137.98 218.585 137.98 218.782 138.029C219.079 138.096 219.361 138.215 219.617 138.38V138.364ZM220.315 141.728C220.32 141.647 220.32 141.567 220.315 141.486V140.794C220.315 140.684 220.315 140.596 220.315 140.541C220.292 140.349 220.234 140.162 220.145 139.991C220.008 139.783 219.818 139.616 219.595 139.507C219.342 139.359 219.166 139.32 219.073 139.386C219.021 139.428 218.979 139.481 218.949 139.541C218.92 139.6 218.904 139.666 218.902 139.733C218.897 139.813 218.897 139.894 218.902 139.975C218.902 140.084 218.902 140.2 218.902 140.321C218.902 140.442 218.902 140.563 218.902 140.684C218.897 140.77 218.897 140.856 218.902 140.942C218.919 141.135 218.978 141.323 219.073 141.492C219.198 141.699 219.379 141.866 219.595 141.975C219.848 142.124 220.024 142.162 220.145 142.096C220.196 142.053 220.238 141.999 220.267 141.939C220.297 141.878 220.313 141.812 220.315 141.744V141.728Z" fill="#FAFAFA"/>
<path d="M160.852 79.1754C160.832 78.818 160.728 78.4703 160.55 78.1601C160.371 77.8499 160.123 77.5858 159.824 77.389L144.939 68.8031C144.389 68.4733 143.911 68.7372 143.911 69.3968V83.7816C143.93 84.1399 144.033 84.4887 144.212 84.7999C144.39 85.1112 144.639 85.3762 144.939 85.5735L151.172 89.1684L153.14 97.1166C153.161 97.2397 153.224 97.3518 153.318 97.4344C153.412 97.517 153.531 97.5652 153.656 97.5709C153.781 97.5767 153.904 97.5397 154.005 97.4661C154.106 97.3925 154.179 97.2867 154.212 97.1661L156.015 91.9607L159.824 94.1594C160.374 94.4892 160.852 94.2253 160.852 93.5657V79.1754Z" fill="#2968FF"/>
<path opacity="0.5" d="M160.852 79.1754C160.832 78.818 160.728 78.4703 160.55 78.1601C160.371 77.8499 160.123 77.5858 159.824 77.389L144.939 68.8031C144.389 68.4733 143.911 68.7372 143.911 69.3968V83.7816C143.93 84.1399 144.033 84.4887 144.212 84.7999C144.39 85.1112 144.639 85.3762 144.939 85.5735L151.172 89.1684L153.14 97.1166C153.161 97.2397 153.224 97.3518 153.318 97.4344C153.412 97.517 153.531 97.5652 153.656 97.5709C153.781 97.5767 153.904 97.5397 154.005 97.4661C154.106 97.3925 154.179 97.2867 154.212 97.1661L156.015 91.9607L159.824 94.1594C160.374 94.4892 160.852 94.2253 160.852 93.5657V79.1754Z" fill="white"/>
<path d="M149.551 75.3718C149.854 75.5446 150.135 75.7551 150.386 75.9984C150.609 76.218 150.81 76.4592 150.985 76.7185C151.138 76.9476 151.262 77.1951 151.354 77.455C151.431 77.6752 151.481 77.9042 151.502 78.1366C151.502 78.373 151.529 78.6203 151.529 78.8787C151.529 79.137 151.529 79.3734 151.502 79.5932C151.489 79.7722 151.439 79.9465 151.354 80.1044C151.274 80.2496 151.142 80.3595 150.985 80.4122C150.792 80.4754 150.585 80.4849 150.386 80.4397C150.089 80.3712 149.807 80.2522 149.551 80.0879C149.244 79.9188 148.961 79.71 148.71 79.4668C148.484 79.2548 148.285 79.0168 148.116 78.7577C147.961 78.5298 147.837 78.2821 147.748 78.0212C147.671 77.8004 147.62 77.5718 147.594 77.3396C147.594 77.0977 147.594 76.8504 147.594 76.5975C147.594 76.3447 147.594 76.0973 147.594 75.883C147.611 75.7041 147.663 75.5303 147.748 75.3718C147.827 75.2252 147.959 75.1135 148.116 75.0585C148.311 75.0098 148.515 75.0098 148.71 75.0585C149.006 75.1136 149.29 75.2196 149.551 75.3718V75.3718ZM154.805 78.7193C154.863 78.6804 154.929 78.6559 154.998 78.6478C155.099 78.6544 155.196 78.6886 155.278 78.7467L156.064 79.1975C156.153 79.2503 156.231 79.3193 156.295 79.4008C156.346 79.4715 156.375 79.5557 156.377 79.6427C156.38 79.6628 156.38 79.6831 156.377 79.7032C156.367 79.7227 156.354 79.7411 156.339 79.7581L149.864 84.5403C149.806 84.5791 149.74 84.6036 149.672 84.6117C149.571 84.6051 149.474 84.5709 149.391 84.5128L148.605 84.062C148.514 84.0123 148.435 83.9428 148.374 83.8587C148.323 83.788 148.295 83.7038 148.292 83.6168C148.287 83.5989 148.287 83.5798 148.292 83.5618C148.299 83.5387 148.313 83.5179 148.33 83.5014L154.805 78.7193ZM150.243 78.7193C150.251 78.6388 150.251 78.5578 150.243 78.4774V77.7683C150.251 77.6842 150.251 77.5996 150.243 77.5155C150.227 77.3221 150.169 77.1345 150.073 76.9658C149.948 76.757 149.767 76.5875 149.551 76.4766C149.298 76.3337 149.122 76.2897 149.001 76.3612C148.95 76.4039 148.909 76.4567 148.879 76.5164C148.85 76.576 148.833 76.6411 148.831 76.7075C148.831 76.7514 148.831 76.8339 148.831 76.9438C148.831 77.0538 148.831 77.1692 148.831 77.2956C148.831 77.422 148.831 77.5375 148.831 77.6529C148.831 77.7683 148.831 77.8563 148.831 77.9112C148.852 78.1036 148.91 78.2901 149.001 78.4609C149.136 78.67 149.326 78.8375 149.551 78.9446C149.803 79.093 149.979 79.1315 150.073 79.0656C150.124 79.0263 150.165 78.9765 150.194 78.9195C150.224 78.8625 150.241 78.7998 150.243 78.7357V78.7193ZM155.223 83.232C155.53 83.4049 155.813 83.6174 156.064 83.8642C156.288 84.0793 156.487 84.319 156.658 84.5787C156.812 84.8072 156.936 85.0548 157.026 85.3153C157.102 85.5362 157.154 85.7648 157.18 85.9969C157.18 86.2387 157.18 86.4861 157.18 86.7444C157.18 87.0028 157.18 87.2391 157.18 87.4535C157.163 87.6324 157.111 87.8062 157.026 87.9647C156.947 88.1113 156.815 88.223 156.658 88.278C156.464 88.3325 156.258 88.3325 156.064 88.278C155.767 88.2095 155.483 88.0925 155.223 87.9317C154.922 87.7575 154.641 87.5491 154.388 87.3106C154.163 87.0941 153.963 86.8546 153.789 86.596C153.638 86.3656 153.514 86.1185 153.42 85.8595C153.343 85.6393 153.293 85.4103 153.272 85.1779C153.272 84.9415 153.244 84.6942 153.244 84.4358C153.244 84.1775 153.244 83.9411 153.272 83.7213C153.285 83.5424 153.336 83.3682 153.42 83.2101C153.503 83.0671 153.633 82.9581 153.789 82.9022C153.982 82.8399 154.188 82.8285 154.388 82.8693C154.686 82.9466 154.969 83.0749 155.223 83.2485V83.232ZM155.921 86.596C155.926 86.5155 155.926 86.4347 155.921 86.3542V85.6616C155.921 85.5517 155.921 85.4637 155.921 85.4087C155.902 85.2159 155.844 85.0288 155.751 84.8591C155.616 84.6483 155.426 84.479 155.201 84.3699C154.948 84.2269 154.772 84.183 154.679 84.2544C154.626 84.2954 154.583 84.3479 154.554 84.4079C154.524 84.4679 154.509 84.5338 154.509 84.6007C154.503 84.6794 154.503 84.7584 154.509 84.8371C154.509 84.947 154.509 85.0624 154.509 85.1889C154.509 85.3153 154.509 85.4307 154.509 85.5462C154.503 85.6322 154.503 85.7185 154.509 85.8045C154.525 85.9979 154.583 86.1855 154.679 86.3542C154.804 86.563 154.985 86.7325 155.201 86.8434C155.454 86.9863 155.637 87.0248 155.751 86.9588C155.803 86.917 155.845 86.8644 155.874 86.8046C155.904 86.7447 155.92 86.6792 155.921 86.6125V86.596Z" fill="#FAFAFA"/>
<path d="M58.6572 133.884C58.6767 133.526 58.7799 133.179 58.9585 132.868C59.137 132.558 59.3859 132.294 59.6851 132.097L74.5702 123.506C75.1198 123.176 75.598 123.446 75.598 124.105V138.49C75.5794 138.848 75.4765 139.196 75.2979 139.506C75.1193 139.817 74.87 140.081 74.5702 140.277L68.3369 143.871L66.3691 151.825C66.3756 151.971 66.324 152.113 66.2256 152.221C66.1271 152.329 65.9899 152.393 65.8441 152.399C65.6984 152.406 65.5559 152.354 65.4482 152.256C65.3405 152.158 65.2763 152.02 65.2697 151.875L63.4723 146.669L59.6631 148.868C59.1134 149.198 58.6352 148.928 58.6352 148.274L58.6572 133.884Z" fill="#2968FF"/>
<g opacity="0.5">
<path opacity="0.5" d="M58.6572 133.884C58.6767 133.526 58.7799 133.179 58.9585 132.868C59.137 132.558 59.3859 132.294 59.6851 132.097L74.5702 123.506C75.1198 123.176 75.598 123.446 75.598 124.105V138.49C75.5794 138.848 75.4765 139.196 75.2979 139.506C75.1193 139.817 74.87 140.081 74.5702 140.277L68.3369 143.871L66.3691 151.825C66.3756 151.971 66.324 152.113 66.2256 152.221C66.1271 152.329 65.9899 152.393 65.8441 152.399C65.6984 152.406 65.5559 152.354 65.4482 152.256C65.3405 152.158 65.2763 152.02 65.2697 151.875L63.4723 146.669L59.6631 148.868C59.1134 149.198 58.6352 148.928 58.6352 148.274L58.6572 133.884Z" fill="white"/>
</g>
<path d="M63.8571 132.812C64.1546 132.627 64.4819 132.495 64.8245 132.422C65.0546 132.375 65.2925 132.387 65.5171 132.455C65.6978 132.52 65.8483 132.649 65.9404 132.818C66.0387 132.999 66.0968 133.2 66.1108 133.406C66.1327 133.659 66.1437 133.933 66.1437 134.23C66.1437 134.527 66.1327 134.813 66.1108 135.088C66.0867 135.358 66.0294 135.623 65.9404 135.879C65.835 136.178 65.6928 136.462 65.5171 136.726C65.3182 137.026 65.0859 137.303 64.8245 137.55C64.5324 137.829 64.2076 138.07 63.8571 138.27C63.556 138.455 63.2276 138.59 62.8842 138.672C62.6567 138.722 62.4199 138.713 62.1971 138.644C62.0164 138.579 61.8659 138.45 61.7739 138.281C61.6738 138.1 61.6138 137.9 61.598 137.693C61.598 137.44 61.598 137.144 61.598 136.869C61.598 136.594 61.598 136.286 61.598 136.011C61.6243 135.741 61.6833 135.475 61.7739 135.22C61.8769 134.92 62.0192 134.635 62.1971 134.373C62.397 134.074 62.6272 133.795 62.8842 133.543C63.1775 133.261 63.5043 133.015 63.8571 132.812V132.812ZM69.9035 129.674C69.9659 129.553 70.0395 129.439 70.1233 129.333C70.2158 129.227 70.3255 129.138 70.4476 129.069L71.3601 128.519C71.4359 128.463 71.5307 128.44 71.6239 128.453C71.6899 128.453 71.7229 128.525 71.7229 128.613C71.7267 128.642 71.7267 128.671 71.7229 128.701L71.6789 128.816L64.1924 142.987C64.1301 143.105 64.0564 143.217 63.9725 143.322C63.8812 143.429 63.7714 143.518 63.6482 143.586L62.7413 144.135C62.6633 144.191 62.5669 144.215 62.4719 144.201C62.406 144.201 62.373 144.13 62.373 144.042C62.3691 144.013 62.3691 143.983 62.373 143.954L62.417 143.839L69.9035 129.674ZM64.6596 135.791C64.6671 135.693 64.6671 135.593 64.6596 135.495V134.676C64.6676 134.582 64.6676 134.488 64.6596 134.395C64.6566 134.318 64.6374 134.243 64.6034 134.173C64.5693 134.104 64.521 134.043 64.4617 133.994C64.3518 133.917 64.1484 133.994 63.8571 134.131C63.6323 134.245 63.4403 134.414 63.2998 134.623C63.1593 134.832 63.0748 135.073 63.0546 135.324C63.0465 135.425 63.0465 135.526 63.0546 135.626C63.0546 135.758 63.0546 135.896 63.0546 136.039C63.0546 136.182 63.0546 136.314 63.0546 136.445C63.046 136.537 63.046 136.629 63.0546 136.72C63.0546 136.798 63.0724 136.874 63.1067 136.944C63.1411 137.014 63.1909 137.074 63.2525 137.122C63.3624 137.198 63.5603 137.149 63.8571 136.984C64.1051 136.86 64.3143 136.67 64.4617 136.434C64.5712 136.236 64.6386 136.017 64.6596 135.791V135.791ZM70.4147 134.362C70.7147 134.177 71.0435 134.043 71.3876 133.966C71.6158 133.92 71.852 133.931 72.0747 133.999C72.2553 134.065 72.4059 134.194 72.4979 134.362C72.598 134.543 72.658 134.744 72.6738 134.95C72.6738 135.203 72.7013 135.5 72.7013 135.775C72.7013 136.05 72.7013 136.357 72.6738 136.632C72.648 136.902 72.5889 137.168 72.4979 137.424C72.3939 137.725 72.2516 138.011 72.0747 138.276C71.6537 138.911 71.0887 139.439 70.4257 139.815C70.1271 140 69.8004 140.136 69.4582 140.216C69.2291 140.27 68.9898 140.26 68.7657 140.189C68.5839 140.125 68.4328 139.996 68.3424 139.826C68.2435 139.645 68.1853 139.444 68.172 139.238C68.172 138.99 68.139 138.688 68.139 138.419C68.139 138.149 68.139 137.831 68.172 137.556C68.1958 137.288 68.253 137.024 68.3424 136.77C68.4477 136.469 68.5899 136.183 68.7657 135.918C68.9658 135.617 69.198 135.339 69.4582 135.088C69.7428 134.799 70.0645 134.55 70.4147 134.346V134.362ZM71.2172 137.319C71.2247 137.221 71.2247 137.121 71.2172 137.023V136.209C71.2251 136.116 71.2251 136.022 71.2172 135.929C71.2176 135.851 71.2 135.774 71.1656 135.705C71.1313 135.635 71.0812 135.574 71.0193 135.527C70.9094 135.451 70.7115 135.495 70.4147 135.665C70.1676 135.791 69.9588 135.981 69.81 136.215C69.7039 136.411 69.6367 136.625 69.6121 136.847C69.6069 136.946 69.6069 137.045 69.6121 137.144C69.6121 137.281 69.6121 137.418 69.6121 137.556C69.6121 137.693 69.6121 137.836 69.6121 137.963C69.6064 138.054 69.6064 138.146 69.6121 138.237C69.6152 138.314 69.6343 138.39 69.6684 138.459C69.7025 138.528 69.7508 138.589 69.81 138.639C69.92 138.716 70.1233 138.672 70.4147 138.501C70.6629 138.377 70.872 138.187 71.0193 137.952C71.1327 137.753 71.2003 137.531 71.2172 137.303V137.319Z" fill="#FAFAFA"/>
</svg>
