<svg width="282" height="282" viewBox="0 0 282 282" fill="none" xmlns="http://www.w3.org/2000/svg">
<rect width="282" height="282" fill="white"/>
<path d="M163.567 159.406C163.611 159.445 163.652 159.487 163.692 159.53L164.045 159.896L165.41 161.342L170.559 166.857L188.803 186.528H188.592L209.287 162.824L209.43 162.663L209.547 162.843L211.055 165.113L226.712 188.687L226.495 188.649L241.545 176.627L241.632 176.559L241.706 176.639L253.195 189.667L256.297 193.221L257.103 194.152C257.283 194.363 257.37 194.474 257.37 194.474C257.37 194.474 257.264 194.375 257.078 194.177L256.259 193.221L253.096 189.71L241.532 176.776H241.694L226.681 188.879L226.557 188.978L226.464 188.842L210.788 165.306L209.274 163.029H209.529C201.998 171.652 194.913 179.747 188.809 186.732L188.704 186.85L188.598 186.732C181.105 178.581 174.833 171.77 170.435 166.981L165.348 161.398L164.014 159.921C163.871 159.754 163.76 159.63 163.673 159.537C163.586 159.443 163.561 159.412 163.567 159.406Z" fill="#E6E6E6"/>
<path d="M186.663 186.689C186.659 187.12 186.784 187.542 187.021 187.902C187.258 188.262 187.597 188.543 187.995 188.71C188.392 188.876 188.83 188.921 189.253 188.838C189.676 188.755 190.065 188.547 190.369 188.243C190.674 187.938 190.881 187.549 190.964 187.126C191.048 186.703 191.003 186.265 190.836 185.868C190.67 185.47 190.389 185.132 190.029 184.894C189.669 184.657 189.247 184.533 188.816 184.536C188.246 184.539 187.7 184.767 187.297 185.17C186.894 185.573 186.666 186.119 186.663 186.689V186.689Z" fill="#E0E0E0"/>
<path d="M224.671 189.276C224.674 189.705 224.804 190.125 225.045 190.481C225.286 190.836 225.627 191.113 226.025 191.275C226.423 191.436 226.86 191.476 227.281 191.39C227.701 191.303 228.087 191.093 228.389 190.787C228.69 190.481 228.895 190.093 228.975 189.671C229.056 189.249 229.009 188.812 228.842 188.417C228.674 188.021 228.393 187.684 228.034 187.448C227.675 187.212 227.254 187.088 226.824 187.092C226.249 187.097 225.7 187.33 225.296 187.739C224.893 188.148 224.668 188.701 224.671 189.276Z" fill="#E0E0E0"/>
<path d="M239.454 177.322C239.458 177.75 239.588 178.167 239.829 178.521C240.07 178.875 240.411 179.15 240.808 179.31C241.205 179.471 241.641 179.51 242.06 179.423C242.479 179.335 242.863 179.126 243.163 178.821C243.463 178.515 243.666 178.128 243.746 177.707C243.826 177.286 243.779 176.851 243.612 176.457C243.445 176.063 243.165 175.727 242.806 175.493C242.448 175.258 242.029 175.134 241.601 175.138C241.027 175.145 240.479 175.378 240.077 175.787C239.675 176.196 239.451 176.748 239.454 177.322V177.322Z" fill="#E0E0E0"/>
<path d="M207.24 163.116C207.242 163.545 207.372 163.965 207.613 164.321C207.854 164.676 208.195 164.953 208.593 165.115C208.991 165.276 209.428 165.317 209.849 165.23C210.27 165.143 210.655 164.934 210.957 164.628C211.259 164.322 211.463 163.933 211.544 163.511C211.624 163.089 211.578 162.652 211.41 162.257C211.243 161.861 210.962 161.524 210.602 161.288C210.243 161.052 209.822 160.929 209.392 160.932C208.818 160.937 208.268 161.17 207.865 161.579C207.461 161.988 207.236 162.541 207.24 163.116V163.116Z" fill="#E0E0E0"/>
<path d="M255.658 194.536C255.66 194.966 255.79 195.385 256.031 195.741C256.272 196.097 256.613 196.373 257.011 196.535C257.409 196.697 257.846 196.737 258.267 196.65C258.688 196.564 259.073 196.354 259.375 196.048C259.677 195.742 259.881 195.353 259.961 194.931C260.042 194.509 259.996 194.073 259.828 193.677C259.661 193.281 259.379 192.944 259.02 192.709C258.661 192.473 258.24 192.349 257.81 192.353C257.235 192.358 256.686 192.59 256.283 192.999C255.879 193.409 255.654 193.961 255.658 194.536V194.536Z" fill="#E0E0E0"/>
<path d="M65.4972 30.2566H51.5581V85.6968H65.4972V30.2566Z" fill="#E6E6E6"/>
<path d="M85.9997 42.3472H72.0605V85.6906H85.9997V42.3472Z" fill="#E6E6E6"/>
<path d="M106.818 52.2478H92.8793V85.6906H106.818V52.2478Z" fill="#E6E6E6"/>
<path d="M126.093 65.8335H112.153V85.6969H126.093V65.8335Z" fill="#E6E6E6"/>
<path d="M114.933 16.4229C114.933 16.4229 114.802 16.5903 114.548 16.8881L113.388 18.2219L108.977 23.2466L93.0716 41.2366L92.9847 41.3297L92.8855 41.2552L82.5071 33.3024H82.718L68.202 51.7018L68.0283 51.9252L67.9228 52.0616L67.7925 51.9438L48.2455 34.6796H48.4626C40.789 44.754 34.2878 53.3581 29.6352 59.4437L24.2196 66.5219L22.7742 68.3829L22.3958 68.8606C22.3535 68.917 22.3079 68.9708 22.2593 69.0218C22.2945 68.9613 22.3339 68.9033 22.3771 68.8481L22.7369 68.3519L24.1451 66.4474L29.4863 59.3197L48.2207 34.4687L48.3199 34.3384L48.4378 34.4439L68.0097 51.6646H67.7739L67.9476 51.4413L82.4823 33.0543L82.5754 32.9364L82.6932 33.0295L93.053 40.9761H92.8669L108.853 23.1288C110.782 20.9886 112.296 19.3075 113.332 18.166L114.517 16.8633C114.79 16.5531 114.933 16.4229 114.933 16.4229Z" fill="#E6E6E6"/>
<path d="M112.631 29.2827C112.626 29.1886 112.637 29.0943 112.662 29.0036L112.817 28.2095C112.978 27.4713 113.196 26.4912 113.437 25.2939C113.99 22.8125 114.771 19.4254 115.671 15.6289L115.869 15.815L115.168 16.0322C111.279 17.2294 107.755 18.2902 105.199 19.047L102.166 19.9217L101.335 20.145C101.239 20.1806 101.139 20.1995 101.037 20.2009C101.126 20.1525 101.219 20.113 101.316 20.083L102.129 19.8038L105.131 18.8299C107.668 18.0173 111.186 16.9192 115.057 15.7282L115.758 15.5173L116.031 15.4304L115.962 15.7096C115.1 19.5247 114.312 22.8994 113.692 25.3497C113.388 26.5346 113.14 27.5085 112.96 28.2405C112.873 28.5445 112.799 28.805 112.743 29.016C112.719 29.1099 112.681 29.1998 112.631 29.2827V29.2827Z" fill="#E6E6E6"/>
<path d="M222.593 110.163C225.363 110.118 228.084 110.896 230.412 112.397C232.74 113.898 234.571 116.056 235.673 118.598C236.775 121.14 237.098 123.951 236.602 126.676C236.106 129.402 234.813 131.919 232.887 133.91C230.96 135.901 228.487 137.275 225.779 137.86C223.071 138.445 220.251 138.214 217.674 137.196C215.098 136.178 212.881 134.419 211.304 132.142C209.727 129.864 208.861 127.17 208.815 124.4C208.759 120.686 210.178 117.102 212.761 114.433C215.344 111.764 218.88 110.229 222.593 110.163V110.163ZM222.928 130.87C224.252 130.846 225.54 130.429 226.627 129.673C227.715 128.917 228.554 127.856 229.038 126.623C229.523 125.39 229.631 124.042 229.35 122.748C229.068 121.453 228.41 120.272 227.457 119.352C226.504 118.432 225.3 117.815 223.996 117.579C222.693 117.343 221.349 117.499 220.134 118.027C218.919 118.554 217.888 119.43 217.171 120.544C216.454 121.657 216.083 122.958 216.104 124.282C216.12 125.163 216.308 126.032 216.66 126.84C217.011 127.647 217.518 128.378 218.152 128.99C218.785 129.602 219.533 130.083 220.353 130.405C221.172 130.728 222.048 130.886 222.928 130.87V130.87Z" fill="#E0E0E0"/>
<path d="M222.568 108.42C226.746 108.36 230.776 109.959 233.776 112.866C236.776 115.774 238.502 119.752 238.573 123.929L229.02 124.177C228.958 120.027 226.148 118.339 222.817 118.128C221.998 118.08 221.178 118.201 220.408 118.484C219.639 118.767 218.936 119.207 218.345 119.775C217.753 120.343 217.286 121.027 216.972 121.785C216.658 122.543 216.504 123.357 216.52 124.177L207.066 124.431C207.001 120.253 208.598 116.22 211.504 113.218C214.411 110.216 218.39 108.49 222.568 108.42Z" fill="#F0F0F0"/>
<path d="M109.17 171.887C113.992 166.827 120.608 163.862 127.594 163.63C134.581 163.398 141.379 165.918 146.527 170.647C149.055 172.977 151.096 175.787 152.531 178.912C153.966 182.037 154.766 185.416 154.886 188.852C155.005 192.289 154.441 195.715 153.227 198.933C152.012 202.15 150.172 205.094 147.811 207.594C142.988 212.655 136.372 215.62 129.386 215.852C122.399 216.084 115.601 213.564 110.454 208.835C107.925 206.505 105.884 203.695 104.449 200.57C103.014 197.445 102.214 194.066 102.094 190.63C101.975 187.193 102.539 183.767 103.753 180.549C104.968 177.332 106.809 174.388 109.17 171.887V171.887ZM137.705 198.277C138.837 197.082 139.72 195.674 140.302 194.134C140.884 192.595 141.154 190.955 141.097 189.31C141.039 187.665 140.654 186.048 139.966 184.554C139.277 183.059 138.298 181.716 137.085 180.603C134.621 178.345 131.369 177.144 128.028 177.26C124.688 177.376 121.527 178.8 119.225 181.224C118.094 182.419 117.211 183.827 116.629 185.366C116.046 186.906 115.776 188.546 115.834 190.19C115.892 191.835 116.276 193.452 116.965 194.947C117.654 196.442 118.633 197.785 119.846 198.897C122.309 201.161 125.565 202.365 128.909 202.249C132.253 202.133 135.417 200.706 137.718 198.277H137.705Z" fill="#F5F5F5"/>
<path d="M109.17 171.887C113.992 166.827 120.608 163.862 127.594 163.63C134.581 163.398 141.379 165.918 146.527 170.647L137.11 180.622C134.646 178.363 131.394 177.163 128.053 177.279C124.713 177.395 121.551 178.818 119.25 181.242C118.118 182.437 117.236 183.845 116.653 185.385C116.071 186.924 115.801 188.564 115.859 190.209C115.917 191.854 116.301 193.471 116.99 194.966C117.678 196.46 118.658 197.803 119.87 198.916L110.441 208.854C107.911 206.522 105.868 203.711 104.433 200.584C102.997 197.457 102.197 194.075 102.079 190.636C101.961 187.197 102.526 183.769 103.744 180.551C104.961 177.332 106.805 174.387 109.17 171.887V171.887Z" fill="#E0E0E0"/>
<path d="M145.447 166.36C158.474 178.413 160.056 197.998 147.867 210.926L134.635 199.517C140.46 193.345 141.725 185.101 135.491 179.338L145.447 166.36Z" fill="#EBEBEB"/>
<path d="M133.257 200.336L141.117 215.882C144.367 214.691 147.296 212.76 149.672 210.243L135.553 198.841L133.257 200.336Z" fill="#E0E0E0"/>
<path d="M162.91 56.8383C162.795 49.8701 164.75 43.0244 168.527 37.1674C172.304 31.3104 177.733 26.7051 184.128 23.9342C190.522 21.1634 197.595 20.3514 204.451 21.601C211.308 22.8506 217.639 26.1057 222.645 30.9545C227.651 35.8032 231.106 42.0278 232.574 48.8407C234.041 55.6536 233.455 62.7487 230.89 69.2285C228.324 75.7082 223.894 81.2814 218.161 85.2431C212.427 89.2048 205.647 91.3768 198.679 91.4845C189.346 91.6173 180.341 88.0455 173.636 81.5514C166.932 75.0574 163.075 66.1708 162.91 56.8383V56.8383ZM214.975 56.0009C214.921 52.6704 213.88 49.4308 211.985 46.6918C210.089 43.9528 207.424 41.8373 204.327 40.6129C201.229 39.3884 197.838 39.11 194.582 39.8128C191.326 40.5156 188.351 42.168 186.035 44.5612C183.718 46.9544 182.163 49.9808 181.566 53.2578C180.969 56.5348 181.357 59.9152 182.681 62.9715C184.005 66.0279 186.206 68.6231 189.005 70.4288C191.804 72.2345 195.076 73.1697 198.406 73.1162C202.871 73.0394 207.124 71.1942 210.231 67.9854C213.337 64.7766 215.043 60.4665 214.975 56.0009V56.0009Z" fill="#FAFAFA"/>
<path d="M162.91 56.8384C162.769 47.4992 166.339 38.4856 172.837 31.776C179.335 25.0664 188.23 21.2091 197.569 21.0508L197.866 39.4316C193.399 39.5031 189.144 41.3462 186.036 44.5554C182.928 47.7646 181.222 52.0769 181.294 56.5438C181.365 61.0106 183.208 65.2661 186.418 68.3741C189.627 71.482 193.939 73.1878 198.406 73.1163L198.679 91.4847C189.345 91.6207 180.338 88.0499 173.633 81.5552C166.928 75.0605 163.072 66.172 162.91 56.8384V56.8384Z" fill="#E0E0E0"/>
<path d="M194.405 18.2219C217.128 17.8559 235.261 35.4117 235.62 58.1349L214.113 58.4823C213.939 47.6138 205.633 40.7714 194.771 40.9513L194.405 18.2219Z" fill="#F0F0F0"/>
<path d="M235.9 266.378C235.9 266.465 189.517 266.54 132.302 266.54C75.0878 266.54 28.7047 266.465 28.7047 266.378C28.7047 266.292 75.0754 266.211 132.302 266.211C189.529 266.211 235.9 266.285 235.9 266.378Z" fill="#1C1D1F"/>
<path d="M92.2714 180.361L207.221 179.536V181.149L92.2714 182.179V180.361Z" fill="#1C1D1F"/>
<path d="M89.7651 63.4945L92.383 181.323L207.221 180.429V61.5156L89.7651 63.4945Z" fill="white"/>
<path d="M89.7651 63.4948L207.221 61.3794H207.364V61.5221C207.364 95.5604 207.364 135.728 207.364 178.581V180.597H207.203L92.3644 181.472H92.2279V181.335C90.7453 110.715 89.7775 64.7106 89.7465 63.501C89.7465 64.692 90.8507 110.715 92.5009 181.323L92.3644 181.186L207.203 180.275L207.041 180.436V178.575C207.041 135.721 207.041 95.5542 207.041 61.5159L207.184 61.6585L89.7651 63.4948Z" fill="#1C1D1F"/>
<path d="M89.3061 64.2826L207.724 63.6064L207.873 58.6375L89.3061 59.3757V64.2826Z" fill="#1C1D1F"/>
<path d="M145.993 184.536C145.795 184.536 145.584 183.612 145.528 182.458C145.472 181.304 145.596 180.361 145.795 180.349C145.993 180.337 146.204 181.267 146.26 182.421C146.316 183.575 146.198 184.536 145.993 184.536Z" fill="#1C1D1F"/>
<path d="M145.95 183.686C145.95 183.643 146.148 183.631 146.458 183.755C146.646 183.833 146.821 183.938 146.979 184.065C147.193 184.236 147.372 184.447 147.507 184.685C147.691 185.015 147.783 185.388 147.775 185.765C147.766 186.143 147.656 186.511 147.457 186.832C147.338 187.025 147.187 187.197 147.01 187.34C146.826 187.488 146.616 187.6 146.39 187.669C145.911 187.801 145.4 187.764 144.945 187.564C144.714 187.461 144.504 187.318 144.324 187.142C144.145 186.965 144.004 186.754 143.909 186.521C143.737 186.098 143.7 185.632 143.803 185.188C143.88 184.817 144.058 184.475 144.319 184.201C144.58 183.927 144.913 183.731 145.28 183.637C145.749 183.508 146.248 183.552 146.688 183.761C146.986 183.91 147.097 184.065 147.073 184.102C147.048 184.139 146.88 184.102 146.595 184.028C146.206 183.955 145.805 183.989 145.435 184.127C145.196 184.22 144.983 184.369 144.814 184.561C144.621 184.788 144.494 185.064 144.449 185.359C144.404 185.654 144.443 185.956 144.56 186.23C144.695 186.524 144.937 186.757 145.236 186.881C145.534 187.014 145.869 187.043 146.185 186.962C146.476 186.886 146.729 186.705 146.893 186.453C147.054 186.215 147.151 185.939 147.172 185.653C147.191 185.523 147.191 185.392 147.172 185.262C147.152 185.14 147.116 185.021 147.066 184.908C146.907 184.543 146.657 184.225 146.341 183.984C146.111 183.823 145.95 183.736 145.95 183.686Z" fill="#1C1D1F"/>
<path d="M163.034 127.973C163.034 127.973 163.034 127.973 162.96 127.973H162.749L161.93 128.011L158.772 128.147L147.159 128.581C137.352 128.941 123.797 129.419 108.835 129.934L103.686 130.107H103.568V129.989C102.526 116.298 101.583 104.028 100.931 95.2067C100.609 90.8023 100.354 87.2601 100.175 84.8222C100.094 83.5815 100.026 82.6572 99.9822 82.0182C99.9822 81.6957 99.945 81.4537 99.9388 81.2862C99.9326 81.1187 99.9388 81.1435 99.9388 81.1001C99.9388 81.0567 99.9388 81.0381 99.9388 81.0381C99.9417 81.0587 99.9417 81.0795 99.9388 81.1001C99.9388 81.1435 99.9388 81.2056 99.9388 81.2862C99.9388 81.3669 99.976 81.6956 100.007 82.012C100.057 82.6324 100.137 83.5939 100.243 84.816C100.435 87.2539 100.72 90.7961 101.074 95.1881C101.769 103.985 102.724 116.224 103.779 129.971L103.655 129.859L108.804 129.679C123.766 129.171 137.339 128.718 147.128 128.408L158.747 128.048L161.905 127.961H162.724H163.009L163.034 127.973Z" fill="#455A64"/>
<path d="M121.452 77.2228V78.8047L137.817 78.0231V76.6956L121.452 77.2228Z" fill="#1C1D1F"/>
<path d="M109.064 126.621H114.753L113.859 111.181H108.282L109.064 126.621Z" fill="#2968FF"/>
<path d="M119.374 126.627H125.057L124.169 105.045H118.593L119.374 126.627Z" fill="#2968FF"/>
<path d="M129.027 125.939H134.715L133.822 97.6819H128.251L129.027 125.939Z" fill="#2968FF"/>
<path d="M151.173 124.841H156.855L155.968 86.3296H150.391L151.173 124.841Z" fill="#2968FF"/>
<path d="M140.398 124.971H146.08L145.187 91.832H139.616L140.398 124.971Z" fill="#2968FF"/>
<path d="M105.491 107.179C105.342 106.95 115.503 100.176 128.177 92.049C140.851 83.9225 151.26 77.5206 151.409 77.7811C151.558 78.0417 141.396 84.7848 128.717 92.9113C116.037 101.038 105.627 107.409 105.491 107.179Z" fill="#2968FF"/>
<path d="M145.782 77.7564C145.733 77.4834 149.411 76.5653 154.014 75.6969L155.18 75.4797L154.517 76.4661L154.479 76.5219C151.849 80.4301 149.517 83.476 149.3 83.3457C149.082 83.2154 151.024 79.9028 153.642 75.9884L153.679 75.9326L154.188 76.7018C149.591 77.5393 145.832 78.0231 145.782 77.7564Z" fill="#2968FF"/>
<path d="M108.282 131.838H114.225L114.411 132.892H108.282V131.838Z" fill="#1C1D1F"/>
<path d="M118.803 131.404H124.746L124.932 132.458H118.803V131.404Z" fill="#1C1D1F"/>
<path d="M129.635 131.094H135.578L135.764 132.148H129.635V131.094Z" fill="#1C1D1F"/>
<path d="M139.784 130.839H145.726L145.913 131.9H139.784V130.839Z" fill="#1C1D1F"/>
<path d="M152.358 130.467H158.301L158.487 131.528H152.358V130.467Z" fill="#1C1D1F"/>
<path d="M179.014 172.514C189.491 172.514 197.984 164.021 197.984 153.544C197.984 143.067 189.491 134.574 179.014 134.574C168.537 134.574 160.044 143.067 160.044 153.544C160.044 164.021 168.537 172.514 179.014 172.514Z" fill="#2968FF"/>
<path opacity="0.3" d="M179.014 172.514C189.491 172.514 197.984 164.021 197.984 153.544C197.984 143.067 189.491 134.574 179.014 134.574C168.537 134.574 160.044 143.067 160.044 153.544C160.044 164.021 168.537 172.514 179.014 172.514Z" fill="black"/>
<path d="M179.014 153.519L160.509 157.681C157.532 144.034 168.536 134.549 179.014 134.549" fill="#2968FF"/>
<path d="M179.039 153.519L178.915 134.549C192.885 134.549 199.808 147.322 197.575 157.557L179.039 153.519Z" fill="#2968FF"/>
<path d="M179.039 153.519L178.915 134.549C192.885 134.549 199.808 147.322 197.575 157.557L179.039 153.519Z" fill="#2968FF"/>
<path opacity="0.1" d="M179.039 153.519L178.915 134.549C192.885 134.549 199.808 147.322 197.575 157.557L179.039 153.519Z" fill="black"/>
<path d="M198.474 108.625C198.106 108.378 197.713 108.17 197.302 108.004C196.156 107.654 194.927 107.689 193.803 108.104C192.351 108.556 190.912 109.71 189.516 111.156C188.121 112.601 186.626 114.35 184.442 115.374C183.389 115.898 182.203 116.094 181.036 115.938C179.984 115.72 178.968 115.357 178.015 114.859C177.177 114.423 176.281 114.107 175.354 113.922C174.548 113.796 173.722 113.899 172.972 114.22C171.868 114.689 170.965 115.532 170.422 116.602C170.248 117.004 170.105 117.419 169.994 117.843C170.014 117.394 170.121 116.954 170.311 116.546C170.83 115.417 171.743 114.515 172.879 114.009C173.657 113.663 174.516 113.54 175.36 113.656C176.318 113.833 177.245 114.147 178.115 114.586C179.042 115.067 180.032 115.418 181.055 115.628C182.158 115.766 183.278 115.576 184.275 115.082C186.371 114.102 187.842 112.365 189.275 110.945C190.708 109.524 192.19 108.327 193.698 107.886C194.869 107.478 196.143 107.478 197.314 107.886C197.627 108.007 197.921 108.17 198.189 108.37C198.294 108.443 198.39 108.528 198.474 108.625V108.625Z" fill="#1C1D1F"/>
<path d="M200.081 120.883C200.081 120.976 193.344 121.044 185.038 121.044C176.731 121.044 169.994 120.976 169.994 120.883C169.994 120.79 176.731 120.721 185.038 120.721C193.344 120.721 200.081 120.796 200.081 120.883Z" fill="#1C1D1F"/>
<path d="M198.406 120.883C198.319 120.883 198.245 117.049 198.245 112.316C198.245 107.582 198.319 103.755 198.406 103.755C198.493 103.755 198.567 107.589 198.567 112.316C198.567 117.043 198.499 120.883 198.406 120.883Z" fill="#1C1D1F"/>
<path d="M173.028 113.668C173.028 113.668 172.984 113.606 173.028 113.494C173.056 113.416 173.102 113.345 173.161 113.286C173.219 113.227 173.291 113.182 173.369 113.153C173.487 113.101 173.617 113.082 173.745 113.099C173.873 113.115 173.994 113.166 174.095 113.246C174.204 113.369 174.269 113.525 174.278 113.689C174.287 113.853 174.24 114.015 174.145 114.149C174.05 114.283 173.912 114.381 173.754 114.427C173.596 114.472 173.428 114.463 173.276 114.4C173.169 114.336 173.081 114.245 173.021 114.136C172.961 114.027 172.931 113.904 172.935 113.78C172.933 113.697 172.949 113.615 172.98 113.538C173.01 113.462 173.056 113.392 173.115 113.333C173.208 113.259 173.276 113.259 173.282 113.271C173.288 113.283 173.115 113.451 173.158 113.767C173.167 113.849 173.194 113.927 173.238 113.996C173.282 114.065 173.342 114.122 173.412 114.164C173.499 114.186 173.591 114.181 173.675 114.151C173.76 114.12 173.833 114.064 173.885 113.991C173.937 113.918 173.966 113.831 173.968 113.741C173.97 113.652 173.945 113.563 173.896 113.488C173.834 113.437 173.76 113.402 173.681 113.386C173.602 113.369 173.521 113.373 173.443 113.395C173.127 113.445 173.071 113.68 173.028 113.668Z" fill="#1C1D1F"/>
<path d="M193.313 107.446C193.313 107.446 193.313 107.372 193.425 107.31C193.569 107.237 193.736 107.224 193.89 107.272C194.012 107.306 194.123 107.372 194.211 107.464C194.298 107.556 194.359 107.67 194.386 107.794C194.396 107.954 194.351 108.112 194.26 108.244C194.168 108.375 194.035 108.472 193.881 108.519C193.728 108.565 193.564 108.559 193.414 108.5C193.265 108.442 193.14 108.335 193.059 108.197C193.014 108.077 193.002 107.948 193.025 107.822C193.048 107.696 193.105 107.579 193.189 107.483C193.294 107.359 193.443 107.281 193.605 107.266C193.716 107.266 193.772 107.303 193.766 107.322C193.76 107.341 193.53 107.353 193.375 107.62C193.332 107.686 193.305 107.762 193.297 107.84C193.288 107.919 193.298 107.999 193.325 108.073C193.38 108.14 193.453 108.189 193.536 108.214C193.619 108.239 193.707 108.239 193.789 108.214C193.872 108.188 193.945 108.139 193.999 108.072C194.054 108.005 194.087 107.923 194.095 107.837C194.078 107.76 194.044 107.687 193.994 107.626C193.945 107.565 193.881 107.516 193.809 107.483C193.536 107.347 193.344 107.49 193.313 107.446Z" fill="#1C1D1F"/>
<path d="M197.873 87.1422C197.873 87.2291 191.347 87.3035 183.301 87.3035C175.255 87.3035 168.729 87.2291 168.729 87.1422C168.729 87.0554 175.249 86.981 183.301 86.981C191.353 86.981 197.873 87.0678 197.873 87.1422Z" fill="#1C1D1F"/>
<path d="M197.873 91.2055C197.873 91.2985 191.347 91.3668 183.301 91.3668C175.255 91.3668 168.729 91.2985 168.729 91.2055C168.729 91.1124 175.249 91.0442 183.301 91.0442C191.353 91.0442 197.873 91.1186 197.873 91.2055Z" fill="#1C1D1F"/>
<path d="M197.873 95.2563C197.873 95.3431 191.347 95.4175 183.301 95.4175C175.255 95.4175 168.729 95.3431 168.729 95.2563C168.729 95.1694 175.249 95.095 183.301 95.095C191.353 95.095 197.873 95.1632 197.873 95.2563Z" fill="#1C1D1F"/>
<path d="M197.873 99.3009C197.873 99.394 191.347 99.4622 183.301 99.4622C175.255 99.4622 168.729 99.394 168.729 99.3009C168.729 99.2079 175.249 99.1396 183.301 99.1396C191.353 99.1396 197.873 99.2141 197.873 99.3009Z" fill="#1C1D1F"/>
<path d="M184.237 79.7539H168.729V81.0628H184.237V79.7539Z" fill="#1C1D1F"/>
<path d="M120.218 144.741H104.709V146.05H120.218V144.741Z" fill="#1C1D1F"/>
<path d="M147.147 152.328C147.147 152.421 137.736 152.489 126.13 152.489C114.523 152.489 105.106 152.421 105.106 152.328C105.106 152.235 114.517 152.167 126.13 152.167C137.743 152.167 147.147 152.241 147.147 152.328Z" fill="#1C1D1F"/>
<path d="M147.395 156C147.395 156.087 137.817 156.162 126.006 156.162C114.194 156.162 104.616 156.087 104.616 156C104.616 155.914 114.188 155.839 126.006 155.839C137.823 155.839 147.395 155.926 147.395 156Z" fill="#1C1D1F"/>
<path d="M147.885 159.462C147.885 159.549 138.251 159.623 126.372 159.623C114.492 159.623 104.858 159.549 104.858 159.462C104.858 159.375 114.492 159.301 126.372 159.301C138.251 159.301 147.885 159.369 147.885 159.462Z" fill="#1C1D1F"/>
<path d="M127.234 163.147C127.234 163.233 122.271 163.308 116.167 163.308C110.063 163.308 105.106 163.233 105.106 163.147C105.106 163.06 110.069 162.985 116.167 162.985C122.265 162.985 127.234 163.06 127.234 163.147Z" fill="#1C1D1F"/>
<path d="M59.6784 263.568V257.985L49.176 257.892L49.0892 266.099L49.7095 266.143C52.6065 266.323 64.4489 266.85 66.3906 266.279C68.5866 265.634 59.6784 263.568 59.6784 263.568Z" fill="#2968FF"/>
<path d="M66.6697 265.764C66.6697 265.863 62.7429 265.944 57.898 265.944C53.0532 265.944 49.1202 265.863 49.1202 265.764C49.1202 265.665 53.0532 265.584 57.898 265.584C62.7429 265.584 66.6697 265.665 66.6697 265.764Z" fill="#1C1D1F"/>
<path d="M59.8646 264.716C59.7777 264.666 59.8646 264.362 60.0755 264.096C60.2864 263.829 60.578 263.655 60.64 263.723C60.702 263.792 60.5656 264.046 60.3608 264.344C60.1561 264.641 59.9514 264.766 59.8646 264.716Z" fill="#1C1D1F"/>
<path d="M60.5345 265.082C60.4415 265.044 60.4911 264.709 60.6958 264.362C60.9005 264.015 61.1735 263.804 61.2479 263.866C61.3224 263.928 61.1983 264.219 61.006 264.542C60.8137 264.865 60.6276 265.119 60.5345 265.082Z" fill="#1C1D1F"/>
<path d="M52.2777 265.727C52.2343 265.758 52.073 265.609 51.8435 265.361C51.5641 265.037 51.2546 264.74 50.9192 264.474C50.5846 264.228 50.1948 264.068 49.7839 264.009C49.4676 263.965 49.2629 264.009 49.2442 263.959C49.2256 263.909 49.4241 263.779 49.7901 263.754C50.2725 263.74 50.7451 263.891 51.1301 264.182C51.497 264.464 51.8084 264.811 52.0482 265.206C52.2405 265.497 52.3274 265.696 52.2777 265.727Z" fill="#1C1D1F"/>
<path d="M59.8955 263.661C59.9452 263.742 59.7591 263.94 59.4613 264.046C59.1635 264.151 58.8968 264.114 58.8844 264.015C58.872 263.916 59.0767 263.804 59.3434 263.711C59.6102 263.618 59.8397 263.574 59.8955 263.661Z" fill="#1C1D1F"/>
<path d="M59.7219 263.115C59.7219 263.214 59.4489 263.301 59.1015 263.307C58.7542 263.314 58.4812 263.233 58.4812 263.134C58.4812 263.034 58.7666 262.954 59.1015 262.948C59.4365 262.941 59.7219 263.016 59.7219 263.115Z" fill="#2968FF"/>
<path d="M66.6697 265.764C66.6697 265.863 62.7429 265.944 57.898 265.944C53.0532 265.944 49.1202 265.863 49.1202 265.764C49.1202 265.665 53.0532 265.584 57.898 265.584C62.7429 265.584 66.6697 265.665 66.6697 265.764Z" fill="#1C1D1F"/>
<path d="M59.8646 264.716C59.7777 264.666 59.8646 264.362 60.0755 264.096C60.2864 263.829 60.578 263.655 60.64 263.723C60.702 263.792 60.5656 264.046 60.3608 264.344C60.1561 264.641 59.9514 264.766 59.8646 264.716Z" fill="#1C1D1F"/>
<path d="M60.5345 265.082C60.4415 265.044 60.4911 264.709 60.6958 264.362C60.9005 264.015 61.1735 263.804 61.2479 263.866C61.3224 263.928 61.1983 264.219 61.006 264.542C60.8137 264.865 60.6276 265.119 60.5345 265.082Z" fill="#1C1D1F"/>
<path d="M52.2777 265.727C52.2343 265.758 52.073 265.609 51.8435 265.361C51.5641 265.037 51.2546 264.74 50.9192 264.474C50.5846 264.228 50.1948 264.068 49.7839 264.009C49.4676 263.965 49.2629 264.009 49.2442 263.959C49.2256 263.909 49.4241 263.779 49.7901 263.754C50.2725 263.74 50.7451 263.891 51.1301 264.182C51.497 264.464 51.8084 264.811 52.0482 265.206C52.2405 265.497 52.3274 265.696 52.2777 265.727Z" fill="#1C1D1F"/>
<path d="M59.8955 263.661C59.9452 263.742 59.7591 263.94 59.4613 264.046C59.1635 264.151 58.8968 264.114 58.8844 264.015C58.872 263.916 59.0767 263.804 59.3434 263.711C59.6102 263.618 59.8397 263.574 59.8955 263.661Z" fill="#1C1D1F"/>
<path d="M59.7219 263.115C59.7219 263.214 59.4489 263.301 59.1015 263.307C58.7542 263.314 58.4812 263.233 58.4812 263.134C58.4812 263.034 58.7666 262.954 59.1015 262.948C59.4365 262.941 59.7219 263.016 59.7219 263.115Z" fill="#1C1D1F"/>
<path d="M70.7578 261.583L72.4141 256.229L62.4018 253.053L59.9204 260.863L60.5408 261.099C63.2517 262.129 74.4117 266.136 76.434 266.167C78.6548 266.192 70.7578 261.583 70.7578 261.583Z" fill="#2968FF"/>
<path d="M76.7875 265.746C76.7875 265.845 72.9786 264.759 68.3508 263.32C63.7231 261.881 59.9948 260.646 60.0258 260.553C60.0568 260.46 63.8285 261.546 68.4625 262.979C73.0965 264.412 76.8185 265.653 76.7875 265.746Z" fill="#1C1D1F"/>
<path d="M70.5965 262.731C70.5283 262.656 70.6896 262.396 70.9873 262.179C71.2851 261.961 71.6077 261.906 71.6387 261.993C71.6697 262.079 71.4712 262.278 71.1983 262.476C70.9253 262.675 70.6648 262.799 70.5965 262.731Z" fill="#1C1D1F"/>
<path d="M71.1238 263.283C71.0494 263.221 71.192 262.91 71.496 262.662C71.8 262.414 72.1164 262.272 72.1722 262.352C72.228 262.433 72.0171 262.675 71.7379 262.929C71.4588 263.183 71.2044 263.32 71.1238 263.283Z" fill="#1C1D1F"/>
<path d="M63.0593 261.459C63.0097 261.459 62.9042 261.292 62.7615 260.981C62.5911 260.59 62.3834 260.216 62.1412 259.865C61.8949 259.532 61.5713 259.263 61.1983 259.083C60.9067 258.953 60.6958 258.928 60.6958 258.878C60.6958 258.829 60.9191 258.754 61.2789 258.841C61.7416 258.973 62.1462 259.257 62.4266 259.648C62.6922 260.023 62.8876 260.443 63.0035 260.888C63.0841 261.223 63.1027 261.459 63.0593 261.459Z" fill="#455A64"/>
<path d="M70.9377 261.732C70.9377 261.825 70.7268 261.961 70.4104 261.974C70.094 261.986 69.8459 261.868 69.8645 261.769C69.8831 261.67 70.1188 261.626 70.398 261.614C70.6772 261.602 70.8881 261.633 70.9377 261.732Z" fill="#1C1D1F"/>
<path d="M70.9377 261.167C70.9377 261.26 70.6275 261.26 70.2863 261.167C69.9452 261.074 69.7032 260.907 69.7342 260.814C69.7653 260.721 70.063 260.727 70.3856 260.814C70.7082 260.901 70.9625 261.068 70.9377 261.167Z" fill="#1C1D1F"/>
<path d="M77.8855 152.669L64.1015 151.609L43.2207 149.915L45.5532 262.079L63.6859 261.844C63.6859 261.844 63.6859 260.603 63.6424 258.407L74.2751 261.316C74.2751 261.316 84.6349 226.317 88.1647 211.956C91.1113 199.989 77.8855 152.669 77.8855 152.669ZM63.4439 240.988C63.171 215.095 62.8546 171.063 63.233 165.678C63.233 165.678 73.3322 204.443 73.4253 207.502C73.4873 209.35 67.8608 227.241 63.4439 240.988Z" fill="#455A64"/>
<path d="M63.7851 257.594C63.7851 257.693 59.7281 257.774 54.7281 257.774C49.7281 257.774 45.6649 257.693 45.6649 257.594C45.6649 257.495 49.7219 257.414 54.7281 257.414C59.7343 257.414 63.7851 257.495 63.7851 257.594Z" fill="#455A64"/>
<path d="M63.6238 253.562C64.191 253.696 64.7469 253.875 65.2864 254.096L69.4365 255.541L73.5866 256.993C74.1735 257.16 74.7427 257.385 75.2863 257.662C74.6803 257.578 74.084 257.435 73.5059 257.234C72.4265 256.918 70.9439 256.447 69.3186 255.882C67.6933 255.318 66.2169 254.759 65.1995 254.331C64.6412 254.149 64.1109 253.89 63.6238 253.562V253.562Z" fill="#455A64"/>
<path d="M80.2367 207.154C79.1152 207.415 77.9698 207.561 76.8186 207.588C75.6768 207.734 74.523 207.761 73.3757 207.669C74.4965 207.403 75.6421 207.255 76.7938 207.228C77.9356 207.083 79.0896 207.058 80.2367 207.154V207.154Z" fill="#455A64"/>
<path d="M79.0518 209.189C78.1601 209.113 77.282 208.921 76.4402 208.618C75.564 208.427 74.7171 208.12 73.9216 207.706C74.8159 207.774 75.6967 207.964 76.5394 208.271C77.9538 208.68 79.0828 209.089 79.0518 209.189Z" fill="#455A64"/>
<path d="M64.9018 151.751C64.9851 152.459 65.0162 153.172 64.9948 153.885C64.9948 155.206 64.9948 157.03 64.9948 159.046C64.9948 160.045 64.9948 161 64.9576 161.881C64.9803 162.675 64.8322 163.464 64.5234 164.195C64.3033 164.693 63.9516 165.122 63.506 165.436C63.3541 165.562 63.1726 165.647 62.9787 165.684C62.9787 165.684 63.1524 165.572 63.4315 165.337C63.8233 165.001 64.1277 164.575 64.3186 164.096C64.5773 163.385 64.6932 162.631 64.6598 161.875C64.6598 160.988 64.6598 160.014 64.6598 159.034C64.6598 157.018 64.7095 155.194 64.7467 153.879C64.7447 153.167 64.7965 152.455 64.9018 151.751V151.751Z" fill="#455A64"/>
<path d="M54.5234 151.118C54.5301 151.209 54.5301 151.301 54.5234 151.391C54.5234 151.59 54.5234 151.857 54.5234 152.198C54.5234 152.917 54.4675 153.96 54.4241 155.3C54.3373 157.998 54.2132 161.875 54.0581 166.658C53.7666 176.249 53.4688 189.505 53.3943 204.139C53.3199 218.773 53.4874 232.055 53.6797 241.639C53.7852 246.422 53.8658 250.324 53.9278 252.998C53.9278 254.331 53.9775 255.367 53.9961 256.099C53.9961 256.44 53.9961 256.72 53.9961 256.906C54.0028 256.997 54.0028 257.088 53.9961 257.179C53.9894 257.088 53.9894 256.997 53.9961 256.906C53.9961 256.713 53.9961 256.447 53.9527 256.105C53.9527 255.38 53.8844 254.344 53.8286 253.004C53.7231 250.324 53.5991 246.44 53.475 241.645C53.2206 232.049 53.0221 218.792 53.0966 204.139C53.171 189.487 53.506 176.224 53.8534 166.652C54.0271 161.857 54.1884 157.967 54.3249 155.293C54.3931 153.966 54.4489 152.93 54.4861 152.192C54.4861 151.85 54.5234 151.571 54.5358 151.385C54.5253 151.297 54.5211 151.208 54.5234 151.118V151.118Z" fill="#455A64"/>
<path d="M73.3694 153.941C73.4071 154.023 73.4382 154.108 73.4625 154.195C73.5183 154.381 73.599 154.63 73.6982 154.952C73.8967 155.616 74.2131 156.596 74.5605 157.874C75.2739 160.424 76.2354 164.127 77.3086 168.736C78.3818 173.345 79.5729 178.842 80.8136 184.971C82.0542 191.1 83.3632 197.849 84.5356 204.97C84.6845 205.864 84.821 206.751 84.9388 207.638C84.9388 207.874 84.9823 208.116 84.9823 208.345L84.8706 209.003C84.79 209.443 84.7279 209.884 84.6287 210.312C84.2751 212.036 83.8781 213.723 83.45 215.374C82.6064 218.674 81.7131 221.831 80.8322 224.834C79.0828 230.839 77.3955 236.211 75.9625 240.721C74.5295 245.231 73.3322 248.86 72.4885 251.366L71.5084 254.251L71.2417 255.001C71.2185 255.088 71.1852 255.171 71.1424 255.249C71.1586 255.161 71.1814 255.074 71.2106 254.989C71.2727 254.803 71.3471 254.555 71.4464 254.232L72.3707 251.329L75.7453 240.653C77.1473 236.137 78.8099 230.758 80.5468 224.753C81.4153 221.751 82.3024 218.587 83.1461 215.293C83.5679 213.649 83.9649 211.968 84.3185 210.25C84.4178 209.822 84.4736 209.387 84.548 208.953L84.6597 208.302C84.6597 208.091 84.6287 207.886 84.6163 207.681C84.4984 206.807 84.3681 205.92 84.2193 205.032C83.0406 197.917 81.7379 191.168 80.4972 185.039C79.2565 178.91 78.1337 173.37 77.0915 168.786C76.0493 164.201 75.1126 160.461 74.4364 157.905C74.1138 156.627 73.8161 155.641 73.6362 154.971L73.4315 154.208C73.401 154.121 73.3802 154.032 73.3694 153.941V153.941Z" fill="#455A64"/>
<path d="M63.3881 238.711C63.438 239 63.4568 239.293 63.4439 239.586C63.4439 240.206 63.4439 241.019 63.4749 241.98C63.4749 244.058 63.5494 246.819 63.5928 249.865C63.6362 252.911 63.7541 255.671 63.8099 257.749C63.8099 258.711 63.8595 259.517 63.8782 260.144C63.9062 260.435 63.9062 260.728 63.8782 261.019C63.8097 260.734 63.7723 260.443 63.7665 260.15C63.7169 259.586 63.661 258.773 63.599 257.762C63.4749 255.746 63.3571 252.954 63.2888 249.871C63.2206 246.788 63.233 243.996 63.2888 241.98C63.2888 240.969 63.3323 240.119 63.3571 239.586C63.3445 239.294 63.3549 239.001 63.3881 238.711Z" fill="#455A64"/>
<path d="M77.8855 152.669L64.1015 151.609L43.2207 149.915L45.5532 262.079L63.6859 261.844C63.6859 261.844 63.6859 260.603 63.6424 258.407L74.2751 261.316C74.2751 261.316 84.6349 226.317 88.1647 211.956C91.1113 199.989 77.8855 152.669 77.8855 152.669ZM63.4439 240.988C63.171 215.095 62.8546 171.063 63.233 165.678C63.233 165.678 73.3322 204.443 73.4253 207.502C73.4873 209.35 67.8608 227.241 63.4439 240.988Z" fill="#1C1D1F"/>
<path d="M63.7851 257.594C63.7851 257.693 59.7281 257.774 54.7281 257.774C49.7281 257.774 45.6649 257.693 45.6649 257.594C45.6649 257.495 49.7219 257.414 54.7281 257.414C59.7343 257.414 63.7851 257.495 63.7851 257.594Z" fill="#455A64"/>
<path d="M63.6238 253.562C64.191 253.696 64.7469 253.875 65.2864 254.096L69.4365 255.541L73.5866 256.993C74.1735 257.16 74.7427 257.385 75.2863 257.662C74.6803 257.578 74.084 257.435 73.5059 257.234C72.4265 256.918 70.9439 256.447 69.3186 255.882C67.6933 255.318 66.2169 254.759 65.1995 254.331C64.6412 254.149 64.1109 253.89 63.6238 253.562V253.562Z" fill="#455A64"/>
<path d="M80.2367 207.154C79.1152 207.415 77.9698 207.561 76.8186 207.588C75.6768 207.734 74.523 207.761 73.3757 207.669C74.4965 207.403 75.6421 207.255 76.7938 207.228C77.9356 207.083 79.0896 207.058 80.2367 207.154V207.154Z" fill="#455A64"/>
<path d="M79.0518 209.189C78.1601 209.113 77.282 208.921 76.4402 208.618C75.564 208.427 74.7171 208.12 73.9216 207.706C74.8159 207.774 75.6967 207.964 76.5394 208.271C77.9538 208.68 79.0828 209.089 79.0518 209.189Z" fill="#455A64"/>
<path d="M64.9018 151.751C64.9851 152.459 65.0162 153.172 64.9948 153.885C64.9948 155.206 64.9948 157.03 64.9948 159.046C64.9948 160.045 64.9948 161 64.9576 161.881C64.9803 162.675 64.8322 163.464 64.5234 164.195C64.3033 164.693 63.9516 165.122 63.506 165.436C63.3541 165.562 63.1726 165.647 62.9787 165.684C62.9787 165.684 63.1524 165.572 63.4315 165.337C63.8233 165.001 64.1277 164.575 64.3186 164.096C64.5773 163.385 64.6932 162.631 64.6598 161.875C64.6598 160.988 64.6598 160.014 64.6598 159.034C64.6598 157.018 64.7095 155.194 64.7467 153.879C64.7447 153.167 64.7965 152.455 64.9018 151.751V151.751Z" fill="#455A64"/>
<path d="M54.5234 151.118C54.5301 151.209 54.5301 151.301 54.5234 151.391C54.5234 151.59 54.5234 151.857 54.5234 152.198C54.5234 152.917 54.4675 153.96 54.4241 155.3C54.3373 157.998 54.2132 161.875 54.0581 166.658C53.7666 176.249 53.4688 189.505 53.3943 204.139C53.3199 218.773 53.4874 232.055 53.6797 241.639C53.7852 246.422 53.8658 250.324 53.9278 252.998C53.9278 254.331 53.9775 255.367 53.9961 256.099C53.9961 256.44 53.9961 256.72 53.9961 256.906C54.0028 256.997 54.0028 257.088 53.9961 257.179C53.9894 257.088 53.9894 256.997 53.9961 256.906C53.9961 256.713 53.9961 256.447 53.9527 256.105C53.9527 255.38 53.8844 254.344 53.8286 253.004C53.7231 250.324 53.5991 246.44 53.475 241.645C53.2206 232.049 53.0221 218.792 53.0966 204.139C53.171 189.487 53.506 176.224 53.8534 166.652C54.0271 161.857 54.1884 157.967 54.3249 155.293C54.3931 153.966 54.4489 152.93 54.4861 152.192C54.4861 151.85 54.5234 151.571 54.5358 151.385C54.5253 151.297 54.5211 151.208 54.5234 151.118V151.118Z" fill="#455A64"/>
<path d="M73.3694 153.941C73.4071 154.023 73.4382 154.108 73.4625 154.195C73.5183 154.381 73.599 154.63 73.6982 154.952C73.8967 155.616 74.2131 156.596 74.5605 157.874C75.2739 160.424 76.2354 164.127 77.3086 168.736C78.3818 173.345 79.5729 178.842 80.8136 184.971C82.0542 191.1 83.3632 197.849 84.5356 204.97C84.6845 205.864 84.821 206.751 84.9388 207.638C84.9388 207.874 84.9823 208.116 84.9823 208.345L84.8706 209.003C84.79 209.443 84.7279 209.884 84.6287 210.312C84.2751 212.036 83.8781 213.723 83.45 215.374C82.6064 218.674 81.7131 221.831 80.8322 224.834C79.0828 230.839 77.3955 236.211 75.9625 240.721C74.5295 245.231 73.3322 248.86 72.4885 251.366L71.5084 254.251L71.2417 255.001C71.2185 255.088 71.1852 255.171 71.1424 255.249C71.1586 255.161 71.1814 255.074 71.2106 254.989C71.2727 254.803 71.3471 254.555 71.4464 254.232L72.3707 251.329L75.7453 240.653C77.1473 236.137 78.8099 230.758 80.5468 224.753C81.4153 221.751 82.3024 218.587 83.1461 215.293C83.5679 213.649 83.9649 211.968 84.3185 210.25C84.4178 209.822 84.4736 209.387 84.548 208.953L84.6597 208.302C84.6597 208.091 84.6287 207.886 84.6163 207.681C84.4984 206.807 84.3681 205.92 84.2193 205.032C83.0406 197.917 81.7379 191.168 80.4972 185.039C79.2565 178.91 78.1337 173.37 77.0915 168.786C76.0493 164.201 75.1126 160.461 74.4364 157.905C74.1138 156.627 73.8161 155.641 73.6362 154.971L73.4315 154.208C73.401 154.121 73.3802 154.032 73.3694 153.941V153.941Z" fill="#455A64"/>
<path d="M63.3881 238.711C63.438 239 63.4568 239.293 63.4439 239.586C63.4439 240.206 63.4439 241.019 63.4749 241.98C63.4749 244.058 63.5494 246.819 63.5928 249.865C63.6362 252.911 63.7541 255.671 63.8099 257.749C63.8099 258.711 63.8595 259.517 63.8782 260.144C63.9062 260.435 63.9062 260.728 63.8782 261.019C63.8097 260.734 63.7723 260.443 63.7665 260.15C63.7169 259.586 63.661 258.773 63.599 257.762C63.4749 255.746 63.3571 252.954 63.2888 249.871C63.2206 246.788 63.233 243.996 63.2888 241.98C63.2888 240.969 63.3323 240.119 63.3571 239.586C63.3445 239.294 63.3549 239.001 63.3881 238.711Z" fill="#455A64"/>
<path d="M54.1388 98.8356L64.6846 99.6172C64.8273 98.3765 65.032 93.6557 65.032 93.6557C65.032 93.6557 69.4303 93.2525 69.7528 88.8977C70.0754 84.5428 69.9389 74.4871 69.9389 74.4871C67.5279 73.2685 64.835 72.7162 62.139 72.8874C59.4429 73.0587 56.8415 73.9472 54.604 75.461L53.9279 75.9201L54.1388 98.8356Z" fill="#E5BAAB"/>
<path d="M68.4377 81.9128C68.3541 81.8249 68.2982 81.7143 68.2768 81.5949C68.2554 81.4754 68.2695 81.3524 68.3174 81.2409C68.3653 81.1294 68.4448 81.0343 68.5461 80.9676C68.6474 80.9008 68.7661 80.8652 68.8874 80.8652C69.0088 80.8652 69.1274 80.9008 69.2288 80.9676C69.3301 81.0343 69.4096 81.1294 69.4575 81.2409C69.5053 81.3524 69.5195 81.4754 69.4981 81.5949C69.4767 81.7143 69.4208 81.8249 69.3372 81.9128C69.2792 81.9738 69.2095 82.0224 69.1322 82.0556C69.0548 82.0888 68.9716 82.1059 68.8874 82.1059C68.8033 82.1059 68.72 82.0888 68.6427 82.0556C68.5654 82.0224 68.4956 81.9738 68.4377 81.9128V81.9128Z" fill="#1C1D1F"/>
<path d="M69.5544 80.9821C69.4799 81.0566 69.0767 80.703 68.475 80.6595C67.8732 80.6161 67.4204 80.9015 67.3583 80.8208C67.2963 80.7402 67.4018 80.6533 67.6065 80.5231C67.8704 80.3497 68.1853 80.271 68.4998 80.2997C68.8166 80.3187 69.118 80.4431 69.3558 80.6533C69.5357 80.8084 69.5916 80.9387 69.5544 80.9821Z" fill="#1C1D1F"/>
<path d="M62.6065 81.0813C62.7047 81.1531 62.7797 81.2521 62.8221 81.3662C62.8644 81.4802 62.8724 81.6042 62.8448 81.7227C62.8173 81.8411 62.7555 81.9489 62.6672 82.0326C62.5789 82.1163 62.4679 82.1721 62.3481 82.1932C62.2283 82.2143 62.105 82.1997 61.9934 82.1512C61.8818 82.1027 61.787 82.0225 61.7206 81.9206C61.6543 81.8186 61.6194 81.6994 61.6203 81.5777C61.6211 81.4561 61.6578 81.3374 61.7256 81.2364C61.7722 81.1671 61.8322 81.1078 61.9023 81.0623C61.9723 81.0167 62.0508 80.9858 62.133 80.9713C62.2153 80.9568 62.2996 80.9591 62.381 80.978C62.4623 80.9969 62.539 81.032 62.6065 81.0813V81.0813Z" fill="#1C1D1F"/>
<path d="M63.0035 81.1126C62.929 81.1808 62.5258 80.8272 61.9241 80.7838C61.3224 80.7404 60.8695 81.032 60.8075 80.9513C60.7454 80.8707 60.8509 80.7776 61.0494 80.6473C61.3183 80.4803 61.6331 80.4021 61.9489 80.424C62.2648 80.447 62.5649 80.571 62.805 80.7776C62.9849 80.9389 63.0407 81.0816 63.0035 81.1126Z" fill="#1C1D1F"/>
<path d="M65.1064 86.2118C65.4238 86.1137 65.7545 86.0655 66.0866 86.0691C66.2479 86.0691 66.3782 86.0381 66.3968 85.9512C66.4125 85.7911 66.3823 85.6297 66.3099 85.486L65.9129 84.2453C65.5309 83.1845 65.2505 82.0899 65.0754 80.9761C65.5561 81.9946 65.9404 83.0559 66.2231 84.146L66.5953 85.3867C66.6848 85.592 66.7023 85.8216 66.6449 86.0381C66.6188 86.0962 66.5794 86.1472 66.5298 86.1871C66.4802 86.227 66.4219 86.2546 66.3595 86.2676C66.271 86.2791 66.1813 86.2791 66.0928 86.2676C65.7631 86.3018 65.4301 86.283 65.1064 86.2118V86.2118Z" fill="#1C1D1F"/>
<path d="M63.1152 86.7513C62.4948 86.3418 64.7777 87.7748 66.006 87.7935C65.7829 88.0957 65.4637 88.3132 65.1007 88.4101C64.7377 88.5071 64.3526 88.4777 64.0085 88.3269C62.7306 87.7624 63.1152 86.7513 63.1152 86.7513Z" fill="white"/>
<path d="M65.0072 93.5938C62.9929 93.5087 61.0495 92.8264 59.4241 91.6335C59.4241 91.6335 60.5718 94.8531 64.9452 94.7353L65.0072 93.5938Z" fill="#D78776"/>
<path d="M54.7591 79.785C54.6599 79.7478 51.5209 79.3384 51.8187 83.048C52.1164 86.7577 55.7641 85.2255 55.7579 85.12C55.7517 85.0145 54.7591 79.785 54.7591 79.785Z" fill="#E5BAAB"/>
<path d="M54.4862 83.9103C54.4862 83.9103 54.4304 83.9599 54.3249 84.0219C54.1755 84.0985 54.0028 84.1162 53.841 84.0716C53.5899 83.9376 53.3785 83.7397 53.2282 83.4979C53.0779 83.2561 52.994 82.979 52.985 82.6944C52.9508 82.3777 52.9889 82.0574 53.0966 81.7577C53.1214 81.639 53.1744 81.5281 53.2511 81.4342C53.3277 81.3402 53.4258 81.2661 53.5371 81.218C53.6103 81.1944 53.6894 81.1962 53.7615 81.2233C53.8336 81.2503 53.8944 81.3009 53.9341 81.3669C53.9899 81.4661 53.9775 81.5406 53.9961 81.5468C54.0147 81.553 54.0706 81.4785 53.9961 81.3297C53.9702 81.2386 53.9131 81.1595 53.8348 81.1063C53.7248 81.0409 53.5943 81.0187 53.4688 81.0443C53.3211 81.0861 53.1865 81.1651 53.0779 81.2737C52.9693 81.3823 52.8903 81.5169 52.8485 81.6646C52.7147 81.9969 52.6657 82.3571 52.7058 82.713C52.7127 83.0444 52.8177 83.3663 53.0077 83.638C53.1976 83.9096 53.4639 84.1188 53.7728 84.2391C53.8745 84.2604 53.9796 84.2587 54.0806 84.234C54.1815 84.2093 54.2756 84.1623 54.3559 84.0964C54.4862 84.0033 54.5048 83.9165 54.4862 83.9103Z" fill="#D78776"/>
<path d="M70.2181 72.9178C70.4691 72.9111 70.7153 72.8467 70.9375 72.7296C71.1598 72.6126 71.3521 72.446 71.4996 72.2427C71.6472 72.0395 71.746 71.805 71.7884 71.5574C71.8309 71.3099 71.8158 71.0559 71.7444 70.8151C71.673 70.5743 71.5472 70.3531 71.3767 70.1687C71.2061 69.9843 70.9955 69.8416 70.761 69.7516C70.5265 69.6617 70.2744 69.6268 70.0243 69.6498C69.7742 69.6728 69.5327 69.7531 69.3186 69.8843C69.8373 69.4537 70.26 68.919 70.5593 68.3148C70.704 68.0101 70.7518 67.6684 70.6964 67.3356C70.6409 67.0029 70.4848 66.6951 70.2491 66.4538C69.9761 66.2732 69.6603 66.1677 69.3336 66.1481C69.0068 66.1285 68.6807 66.1954 68.3881 66.3421C67.4637 66.7392 66.7317 67.5208 65.7826 67.8496C64.8335 68.1783 63.7727 68.0171 62.7553 68.0605C61.6137 68.0809 60.5081 68.4632 59.5978 69.1523C58.8221 69.7618 58.32 70.6543 58.202 71.6337C58.0801 71.4663 57.9453 71.3086 57.7988 71.1622C57.3163 70.5864 56.6654 70.1763 55.9377 69.9898C55.8943 70.0704 56.7442 70.5419 57.5568 71.3855C57.7781 71.5972 57.9853 71.8231 58.1772 72.0617C56.7628 71.888 55.2057 71.8756 54.0891 72.7565C53.6367 73.1597 53.2792 73.6581 53.0422 74.2158C52.8052 74.7735 52.6945 75.3767 52.7182 75.9823C52.7182 77.1857 53.2144 78.3334 53.568 79.4872C53.6535 79.8141 53.8009 80.1216 54.0023 80.3929L54.5358 83.4946L56.4774 83.4574L56.3534 76.95C56.3534 76.95 56.1549 74.2081 58.5122 74.4686C60.8695 74.7292 64.0953 77.3657 68.6734 76.6957C69.4246 76.6538 70.1565 76.4417 70.8136 76.0753C71.1317 75.8739 71.3902 75.5911 71.5625 75.2563C71.7348 74.9215 71.8146 74.5468 71.7937 74.1709C71.7486 73.7968 71.5579 73.4556 71.263 73.221C70.9681 72.9865 70.5927 72.8776 70.2181 72.9178V72.9178Z" fill="#1C1D1F"/>
<path d="M109.672 105.033L109.957 103.06C110.249 101.981 110.432 100.876 110.503 99.7601C110.55 99.2056 110.5 98.6472 110.354 98.11C110.208 97.4338 109.966 96.782 109.635 96.1745C109.275 95.6472 109.746 94.9338 110.255 95.1509C110.764 95.3681 111.825 96.77 112.166 98.7924C112.507 100.815 114.101 98.0107 114.697 96.9996C115.292 95.9884 117.296 92.9425 117.755 92.8805C118.425 92.7874 118.648 93.5008 118.022 94.4872C117.395 95.4735 115.745 98.6063 116.297 98.8916C116.711 98.8256 117.133 98.8467 117.538 98.9536C117.603 98.9728 117.661 99.0117 117.703 99.0651C117.745 99.1184 117.77 99.1835 117.774 99.2514C117.771 99.5643 117.805 99.8765 117.873 100.182C117.873 100.182 118.686 99.9958 118.853 100.349C118.966 100.713 119.019 101.092 119.008 101.472C119.008 101.472 119.629 101.261 119.926 101.472C120.547 101.975 119.753 102.837 119.753 102.837C117.926 105.016 115.964 107.077 113.878 109.009L109.604 104.89" fill="#E5BAAB"/>
<path d="M117.625 100.318C117.442 100.702 117.197 101.052 116.899 101.354C116.651 101.652 116.341 101.975 115.975 102.366C115.784 102.569 115.576 102.755 115.354 102.924C115.218 103.033 115.053 103.1 114.879 103.117C114.705 103.135 114.53 103.102 114.374 103.023C114.289 102.973 114.217 102.904 114.165 102.821C114.112 102.738 114.079 102.644 114.07 102.545C114.058 102.371 114.097 102.196 114.182 102.043C114.335 101.813 114.5 101.591 114.678 101.379C114.995 100.982 115.255 100.61 115.472 100.287C115.681 99.9227 115.919 99.5762 116.186 99.2515C116.082 99.6641 115.906 100.055 115.665 100.405C115.439 100.804 115.191 101.189 114.92 101.559C114.755 101.757 114.602 101.964 114.461 102.179C114.349 102.384 114.356 102.639 114.535 102.732C114.637 102.774 114.748 102.789 114.857 102.775C114.966 102.761 115.069 102.718 115.156 102.651C115.362 102.495 115.557 102.325 115.739 102.142C116.111 101.795 116.434 101.466 116.7 101.187C116.978 100.867 117.288 100.576 117.625 100.318Z" fill="#D78776"/>
<path d="M118.71 101.59C118.528 101.921 118.293 102.221 118.016 102.477C117.735 102.777 117.43 103.053 117.104 103.302C116.908 103.451 116.7 103.583 116.483 103.699C116.355 103.764 116.216 103.808 116.074 103.83C115.988 103.844 115.899 103.839 115.815 103.817C115.731 103.794 115.652 103.754 115.584 103.699C115.469 103.581 115.397 103.428 115.378 103.264C115.359 103.101 115.394 102.935 115.478 102.794C115.604 102.573 115.752 102.365 115.919 102.173C116.192 101.857 116.446 101.553 116.7 101.249C117.153 100.728 117.451 100.424 117.488 100.449C117.325 100.789 117.116 101.106 116.868 101.392L116.173 102.378C116.027 102.554 115.894 102.74 115.776 102.936C115.728 103.015 115.706 103.107 115.713 103.2C115.72 103.292 115.755 103.38 115.813 103.451C115.925 103.557 116.161 103.513 116.365 103.414C116.569 103.308 116.766 103.19 116.955 103.06C117.277 102.83 117.586 102.582 117.879 102.316C118.126 102.041 118.405 101.797 118.71 101.59V101.59Z" fill="#D78776"/>
<path d="M118.965 103.364C118.996 103.364 118.965 103.643 118.673 103.985C118.585 104.09 118.476 104.177 118.354 104.24C118.231 104.303 118.097 104.34 117.96 104.351C117.782 104.352 117.609 104.293 117.47 104.183C117.393 104.119 117.331 104.038 117.289 103.947C117.247 103.856 117.226 103.756 117.228 103.656C117.277 103.34 117.405 103.041 117.6 102.787C117.731 102.583 117.874 102.386 118.028 102.198C118.295 101.875 118.487 101.708 118.524 101.739C118.562 101.77 118.425 101.981 118.214 102.359C118.09 102.576 117.966 102.775 117.854 102.98C117.705 103.199 117.601 103.445 117.55 103.705C117.555 103.811 117.6 103.91 117.677 103.983C117.753 104.056 117.854 104.096 117.96 104.096C118.166 104.09 118.362 104.008 118.512 103.867C118.791 103.569 118.921 103.339 118.965 103.364Z" fill="#D78776"/>
<path d="M109.207 102.471C109.207 102.471 92.9351 118.482 90.6522 118.6C88.0468 118.724 80.0319 107.359 80.0319 107.359C74.9017 99.4437 68.1337 98.1658 65.6647 97.9673V96.9872L53.537 95.9946C53.537 95.9946 53.537 97.0368 53.537 97.9487H48.1834C48.1834 97.9487 38.5681 97.5083 37.1289 110.424L44.0395 115.889L46.8745 126.435C47.8609 130.107 44.3373 135.957 42.6562 145.43C42.3969 147.009 42.6605 148.63 43.4068 150.045L78.4252 154.071L76.5642 127.297L75.9997 121.094C78.8843 125.033 84.0642 130.604 90.4103 130.48C101.235 130.275 116.272 107.527 116.272 107.527L109.207 102.471Z" fill="#E0E0E0"/>
<path d="M61.5829 96.8135C61.643 97.3639 61.643 97.9193 61.5829 98.4698C61.4924 99.8479 61.3059 101.218 61.0246 102.57L60.9812 102.775L60.7951 102.676C60.3732 102.452 59.9328 102.217 59.4861 101.956C57.7492 100.933 56.2665 99.878 55.1437 99.146C54.5376 98.7771 53.9535 98.3732 53.3943 97.9363C53.58 97.9905 53.7574 98.0699 53.9216 98.172C54.2442 98.3519 54.7095 98.6125 55.2678 98.9537C56.3968 99.636 57.8981 100.666 59.6102 101.677C60.0444 101.931 60.4787 102.173 60.9005 102.397L60.671 102.502C61.0308 100.902 61.2045 99.4685 61.3348 98.4512C61.3842 97.9008 61.4671 97.3539 61.5829 96.8135V96.8135Z" fill="#FAFAFA"/>
<path d="M65.702 98.0356C65.6241 98.5684 65.508 99.095 65.3546 99.6112C65.2367 100.101 65.1127 100.684 64.9018 101.317C64.792 101.652 64.6614 101.979 64.5109 102.297C64.4676 102.411 64.3894 102.509 64.2876 102.576C64.217 102.62 64.1337 102.638 64.0514 102.628C63.9692 102.618 63.8928 102.58 63.8348 102.521C63.7185 102.349 63.6247 102.164 63.5556 101.969C62.9353 100.56 62.4452 99.2824 62.0854 98.3457C61.8591 97.855 61.6865 97.3413 61.5705 96.8135C61.8603 97.2697 62.1034 97.754 62.2963 98.2589C62.7119 99.1708 63.264 100.436 63.8534 101.844C63.9106 102.001 63.9812 102.153 64.0643 102.297C64.0953 102.297 64.0643 102.297 64.1201 102.297C64.1668 102.259 64.2031 102.21 64.2256 102.155C64.374 101.849 64.5065 101.537 64.6226 101.218C64.8397 100.598 64.9886 100.027 65.1313 99.5492C65.2546 99.0219 65.4465 98.513 65.702 98.0356V98.0356Z" fill="#FAFAFA"/>
<path d="M63.4439 141.36C63.4143 141.215 63.3977 141.068 63.3943 140.92C63.3943 140.597 63.3695 140.184 63.3199 139.679C63.2702 138.538 63.1958 136.956 63.1089 135.014C62.9601 131.044 62.7491 125.616 62.5258 119.623C62.3025 113.631 62.1598 108.203 62.0357 104.233C61.9923 102.285 61.9551 100.703 61.9241 99.5614C61.9241 99.0403 61.9241 98.6184 61.9241 98.3207C61.908 98.1722 61.908 98.0225 61.9241 97.874C61.9527 98.0191 61.9672 98.1666 61.9675 98.3145C61.9675 98.637 62.0171 99.0589 62.0481 99.5552C62.0978 100.69 62.1722 102.272 62.2591 104.214C62.4079 108.184 62.6127 113.612 62.8422 119.605C63.0717 125.597 63.202 131.025 63.3323 135.002C63.3757 136.943 63.4129 138.525 63.4439 139.667C63.4439 140.194 63.4439 140.616 63.4439 140.938C63.4585 141.079 63.4585 141.22 63.4439 141.36Z" fill="#F5F5F5"/>
<path d="M61.2355 100.734L62.2529 103.538L63.1276 100.529L61.769 97.5144L61.2355 100.734Z" fill="#2968FF"/>
<path d="M62.439 102.7L61.769 134.264L66.5332 144.226L68.4129 133.017L62.439 102.7Z" fill="#2968FF"/>
<path d="M90.8259 122.502C90.8259 122.502 90.8259 122.595 90.8259 122.75L90.7887 122.986L90.6833 122.75C90.4432 122.123 90.305 121.461 90.2738 120.79C90.1712 120.041 90.2609 119.279 90.5344 118.575C90.6274 118.575 90.5344 119.568 90.5964 120.771C90.646 121.627 90.7825 122.359 90.8259 122.713H90.6833C90.7391 122.545 90.8011 122.502 90.8259 122.502Z" fill="#FAFAFA"/>
<path d="M92.2217 122.396C91.759 121.911 91.415 121.325 91.2167 120.684C90.9182 120.093 90.7551 119.442 90.7391 118.78C91.0549 119.357 91.3125 119.963 91.5083 120.591C91.8042 121.168 92.0431 121.773 92.2217 122.396V122.396Z" fill="#FAFAFA"/>
<path d="M115.255 109.034C113.913 108.324 112.624 107.52 111.397 106.627C110.11 105.824 108.883 104.931 107.724 103.954C109.065 104.669 110.355 105.477 111.583 106.373C112.868 107.172 114.096 108.061 115.255 109.034Z" fill="#FAFAFA"/>
<path d="M47.619 114.102C47.619 114.102 45.0383 132.092 46.2604 133.097C53.0098 138.773 62.3894 141.751 65.7392 142.688C66.2293 142.57 66.8 142.415 67.4576 142.204C68.0276 142.023 68.5625 141.746 69.0395 141.385C69.6484 140.958 70.1954 140.448 70.6648 139.871C70.7356 139.748 70.8432 139.649 70.9727 139.589C71.1021 139.529 71.247 139.51 71.3873 139.536C71.5276 139.562 71.6564 139.631 71.7559 139.733C71.8554 139.836 71.9206 139.966 71.9427 140.107C71.9737 140.727 70.9811 142.322 69.1139 143.488C69.1139 143.488 73.4129 150.405 74.7838 151.031C76.1548 151.658 80.0754 153.42 79.4116 153.755C78.7478 154.09 73.9774 152.706 73.9774 152.706L64.3 150.119C64.3 150.119 32.2903 145.101 34.418 130.417C35.727 121.416 37.1538 113.308 37.6686 111.255L47.619 114.102Z" fill="#E5BAAB"/>
<path d="M37.1289 110.417L34.2878 130.027C33.624 136.063 37.6686 140.858 43.1091 143.556C51.3907 147.657 63.6859 150.585 63.5804 150.566C63.475 150.548 64.4117 141.813 64.4117 141.813C64.4117 141.813 47.1723 134.369 46.6326 131.143C46.0929 127.917 48.8224 114.518 48.8224 114.518L37.1289 110.417Z" fill="#E0E0E0"/>
<path d="M63.5556 150.566C63.5491 150.515 63.5491 150.463 63.5556 150.411C63.5556 150.287 63.5556 150.138 63.5866 149.958C63.6176 149.53 63.6611 148.954 63.7231 148.215C63.8534 146.677 64.0457 144.493 64.2752 141.807L64.3434 141.919L55.6586 137.719L53.1772 136.478C52.3398 136.032 51.4961 135.542 50.6586 135.002C49.8089 134.454 48.9928 133.855 48.2145 133.209C47.8237 132.88 47.4329 132.533 47.0606 132.167C46.8508 131.983 46.6817 131.757 46.5644 131.503C46.4986 131.38 46.4506 131.249 46.4217 131.112C46.381 130.983 46.3519 130.85 46.3348 130.715C46.0557 128.569 46.6264 126.547 46.9552 124.617C47.284 122.688 47.6128 120.809 47.9229 119.034C48.5433 115.474 49.1078 112.273 49.5792 109.568C49.8338 108.37 49.9791 107.151 50.0135 105.926C50.0255 105.005 49.8349 104.092 49.4552 103.253C49.2116 102.723 48.8659 102.247 48.4378 101.851C48.14 101.584 47.9601 101.479 47.9664 101.46C48.1509 101.553 48.3237 101.667 48.4812 101.801C48.9367 102.185 49.3065 102.661 49.5668 103.197C49.974 104.049 50.1859 104.982 50.1872 105.926C50.1733 107.162 50.0425 108.394 49.7964 109.605C49.3435 112.316 48.8038 115.523 48.2083 119.09C47.9043 120.871 47.5879 122.744 47.2592 124.673C47.1785 125.157 47.0917 125.647 47.0048 126.143C46.918 126.64 46.8249 127.124 46.7567 127.62C46.5936 128.623 46.5664 129.643 46.676 130.653C46.6957 130.777 46.7226 130.899 46.7567 131.019C46.7811 131.139 46.8229 131.254 46.8807 131.361C46.9829 131.58 47.131 131.774 47.315 131.931C47.681 132.291 48.0594 132.632 48.444 132.955C49.2119 133.594 50.0178 134.187 50.8572 134.729C51.6822 135.269 52.5135 135.753 53.3385 136.199L55.8199 137.44L64.4365 141.733L64.5047 141.77V141.844C64.2256 144.53 64.0022 146.708 63.8472 148.246C63.7603 148.978 63.6983 149.561 63.6487 149.983C63.6238 150.165 63.6052 150.314 63.5928 150.43C63.5849 150.477 63.5724 150.522 63.5556 150.566V150.566Z" fill="#FAFAFA"/>
<path d="M61.9551 140.616C61.9735 141.065 61.9381 141.515 61.8496 141.956C61.7442 142.775 61.5705 143.904 61.3409 145.144C61.1114 146.385 60.8509 147.502 60.64 148.302C60.5548 148.743 60.4109 149.171 60.2119 149.574C60.2335 149.125 60.3022 148.68 60.4166 148.246C60.5986 147.312 60.8054 146.257 61.037 145.082C61.254 143.577 61.5606 142.085 61.9551 140.616V140.616Z" fill="#FAFAFA"/>
<path d="M63.5556 150.566C63.4523 150.566 63.3497 150.549 63.2516 150.517L62.4018 150.312L59.3 149.493C56.676 148.786 53.0284 147.855 49.1202 146.422C47.2811 145.75 45.4903 144.952 43.7604 144.034C42.3472 143.282 40.9985 142.415 39.7282 141.441C38.871 140.785 38.0625 140.067 37.3088 139.295C37.0421 139.022 36.8498 138.804 36.6885 138.674C36.6146 138.601 36.5519 138.517 36.5024 138.426C36.5024 138.426 36.8126 138.718 37.3709 139.232C38.1574 139.965 38.9859 140.65 39.8522 141.286C41.1351 142.209 42.4826 143.038 43.8845 143.767C45.61 144.664 47.3921 145.447 49.2194 146.112C53.1028 147.539 56.7442 148.5 59.3497 149.27L62.4514 150.182L63.2888 150.448C63.3825 150.476 63.4721 150.516 63.5556 150.566V150.566Z" fill="#FAFAFA"/>
<path d="M63.7665 142.713C63.7702 142.823 63.7408 142.933 63.682 143.027C63.6232 143.121 63.5377 143.196 63.4365 143.241C63.3352 143.286 63.2227 143.3 63.1134 143.281C63.0041 143.262 62.9029 143.211 62.8227 143.135C62.7425 143.058 62.687 142.959 62.6632 142.851C62.6394 142.743 62.6484 142.63 62.6891 142.526C62.7298 142.423 62.8004 142.334 62.8917 142.271C62.983 142.208 63.0911 142.174 63.202 142.173C63.348 142.171 63.4888 142.227 63.5943 142.328C63.6998 142.428 63.7617 142.567 63.7665 142.713Z" fill="#FAFAFA"/>
</svg>
